STARTFONT 2.3
FONT -FontForge-STIX Two Math-Book-R-Normal--12-120-72-72-P-82-ISO10646-1
SIZE 12 72 72  2
FONTBOUNDINGBOX 49 52 -12 -20
COMMENT "Generated by fontforge, http://fontforge.sourceforge.net"
COMMENT "Copyright 2001-2021 The STIX Fonts Project Authors (https://github.com/stipub/stixfonts)"
STARTPROPERTIES 41
FOUNDRY "FontForge"
FAMILY_NAME "STIX Two Math"
WEIGHT_NAME "Book"
SLANT "R"
SETWIDTH_NAME "Normal"
ADD_STYLE_NAME ""
PIXEL_SIZE 12
POINT_SIZE 120
RESOLUTION_X 72
RESOLUTION_Y 72
SPACING "P"
AVERAGE_WIDTH 82
CHARSET_REGISTRY "ISO10646"
CHARSET_ENCODING "1"
FONTNAME_REGISTRY ""
CHARSET_COLLECTIONS "ASCII ISOLatin1Encoding ISO8859-2 ISO8859-5 ISO8859-7 ISO8859-9 ISO8859-4 ISO10646-1"
BITS_PER_PIXEL 2
FONT_NAME "STIXTwoMath-Regular"
FACE_NAME "STIX Two Math Regular"
COPYRIGHT "Copyright 2001-2021 The STIX Fonts Project Authors (https://github.com/stipub/stixfonts)"
FONT_VERSION "2.12 b168a"
FONT_ASCENT 9
FONT_DESCENT 3
UNDERLINE_POSITION -1
UNDERLINE_THICKNESS 1
X_HEIGHT 5
CAP_HEIGHT 7
RAW_ASCENT 762
RAW_DESCENT 238
NORM_SPACE 3
RELATIVE_WEIGHT 40
RELATIVE_SETWIDTH 50
SUPERSCRIPT_X 0
SUPERSCRIPT_Y 6
SUPERSCRIPT_SIZE 6
SUBSCRIPT_X 0
SUBSCRIPT_Y 3
SUBSCRIPT_SIZE 6
FIGURE_WIDTH 6
AVG_LOWERCASE_WIDTH 59
AVG_UPPERCASE_WIDTH 81
ENDPROPERTIES
CHARS 6611
STARTCHAR space
ENCODING 32
SWIDTH 235 0
DWIDTH 3 0
BBX 1 1 0 0
BITMAP
00
ENDCHAR
STARTCHAR exclam
ENCODING 33
SWIDTH 283 0
DWIDTH 3 0
BBX 2 8 1 0
BITMAP
90
D0
90
80
80
40
40
D0
ENDCHAR
STARTCHAR quotedbl
ENCODING 34
SWIDTH 334 0
DWIDTH 4 0
BBX 4 3 0 6
BITMAP
69
58
44
ENDCHAR
STARTCHAR numbersign
ENCODING 35
SWIDTH 702 0
DWIDTH 8 0
BBX 8 8 0 0
BITMAP
0218
0514
2AA9
0920
0820
6EB9
0820
0850
ENDCHAR
STARTCHAR dollar
ENCODING 36
SWIDTH 495 0
DWIDTH 6 0
BBX 6 10 0 -1
BITMAP
0500
2A80
5550
6500
2E00
07C0
4590
8590
6A80
0500
ENDCHAR
STARTCHAR percent
ENCODING 37
SWIDTH 692 0
DWIDTH 8 0
BBX 8 8 0 0
BITMAP
2658
6120
5160
2480
0155
0261
0851
0464
ENDCHAR
STARTCHAR ampersand
ENCODING 38
SWIDTH 736 0
DWIDTH 9 0
BBX 9 8 0 0
BITMAP
098000
0C5000
0A5A00
1B0800
628400
90E000
A0B040
2E5E00
ENDCHAR
STARTCHAR quotesingle
ENCODING 39
SWIDTH 187 0
DWIDTH 2 0
BBX 2 3 0 6
BITMAP
60
50
40
ENDCHAR
STARTCHAR parenleft
ENCODING 40
SWIDTH 357 0
DWIDTH 4 0
BBX 4 11 0 -2
BITMAP
01
08
24
20
60
60
60
60
20
14
05
ENDCHAR
STARTCHAR parenright
ENCODING 41
SWIDTH 357 0
DWIDTH 4 0
BBX 4 11 0 -2
BITMAP
50
24
08
09
06
06
06
06
08
18
20
ENDCHAR
STARTCHAR asterisk
ENCODING 42
SWIDTH 410 0
DWIDTH 5 0
BBX 5 5 0 4
BITMAP
0800
6A40
1900
5940
0400
ENDCHAR
STARTCHAR plus
ENCODING 43
SWIDTH 720 0
DWIDTH 9 0
BBX 8 7 0 0
BITMAP
0080
0080
0080
7FFE
0080
0080
0080
ENDCHAR
STARTCHAR comma
ENCODING 44
SWIDTH 245 0
DWIDTH 3 0
BBX 3 4 0 -2
BITMAP
10
74
10
10
ENDCHAR
STARTCHAR hyphen
ENCODING 45
SWIDTH 315 0
DWIDTH 4 0
BBX 4 1 0 3
BITMAP
69
ENDCHAR
STARTCHAR period
ENCODING 46
SWIDTH 245 0
DWIDTH 3 0
BBX 1 2 1 0
BITMAP
40
C0
ENDCHAR
STARTCHAR slash
ENCODING 47
SWIDTH 386 0
DWIDTH 5 0
BBX 4 10 0 -1
BITMAP
02
02
05
08
08
14
14
20
20
50
ENDCHAR
STARTCHAR zero
ENCODING 48
SWIDTH 495 0
DWIDTH 6 0
BBX 6 8 0 0
BITMAP
1A40
60C0
A090
90A0
90A0
6090
60C0
1A40
ENDCHAR
STARTCHAR one
ENCODING 49
SWIDTH 495 0
DWIDTH 6 0
BBX 4 8 1 0
BITMAP
68
28
18
18
18
18
18
6D
ENDCHAR
STARTCHAR two
ENCODING 50
SWIDTH 495 0
DWIDTH 6 0
BBX 6 8 0 0
BITMAP
1B40
51C0
00C0
0180
0200
0900
1410
7FD0
ENDCHAR
STARTCHAR three
ENCODING 51
SWIDTH 495 0
DWIDTH 6 0
BBX 5 8 1 0
BITMAP
6D00
4600
0500
2D00
0700
0240
0200
E900
ENDCHAR
STARTCHAR four
ENCODING 52
SWIDTH 495 0
DWIDTH 6 0
BBX 6 8 0 0
BITMAP
0280
0680
0A80
2280
5280
BFE0
0280
0280
ENDCHAR
STARTCHAR five
ENCODING 53
SWIDTH 495 0
DWIDTH 6 0
BBX 6 8 0 0
BITMAP
1FC0
1000
2E40
06C0
0090
0090
0080
7A00
ENDCHAR
STARTCHAR six
ENCODING 54
SWIDTH 495 0
DWIDTH 6 0
BBX 6 8 0 0
BITMAP
0640
1800
3000
7A40
70D0
6090
3090
1980
ENDCHAR
STARTCHAR seven
ENCODING 55
SWIDTH 495 0
DWIDTH 6 0
BBX 6 8 0 0
BITMAP
3FD0
4080
0080
0140
0200
0600
0900
0C00
ENDCHAR
STARTCHAR eight
ENCODING 56
SWIDTH 495 0
DWIDTH 6 0
BBX 6 8 0 0
BITMAP
1540
60C0
3080
1E00
1780
60D0
6090
2580
ENDCHAR
STARTCHAR nine
ENCODING 57
SWIDTH 495 0
DWIDTH 6 0
BBX 6 8 0 0
BITMAP
2640
60C0
6090
60D0
2AD0
00C0
0240
1900
ENDCHAR
STARTCHAR colon
ENCODING 58
SWIDTH 245 0
DWIDTH 3 0
BBX 1 6 1 0
BITMAP
40
C0
00
00
40
C0
ENDCHAR
STARTCHAR semicolon
ENCODING 59
SWIDTH 245 0
DWIDTH 3 0
BBX 3 8 0 -2
BITMAP
10
30
00
00
10
74
10
10
ENDCHAR
STARTCHAR less
ENCODING 60
SWIDTH 720 0
DWIDTH 9 0
BBX 7 7 1 0
BITMAP
0004
0064
0640
6400
6800
0680
0068
ENDCHAR
STARTCHAR equal
ENCODING 61
SWIDTH 720 0
DWIDTH 9 0
BBX 8 4 0 1
BITMAP
6AAA
0000
0000
6AAA
ENDCHAR
STARTCHAR greater
ENCODING 62
SWIDTH 720 0
DWIDTH 9 0
BBX 7 7 1 0
BITMAP
4000
A400
0A40
00A4
01A0
1A00
A000
ENDCHAR
STARTCHAR question
ENCODING 63
SWIDTH 411 0
DWIDTH 5 0
BBX 5 8 0 0
BITMAP
2600
9280
4240
0200
0900
0400
0400
0C00
ENDCHAR
STARTCHAR at
ENCODING 64
SWIDTH 905 0
DWIDTH 11 0
BBX 10 10 0 -2
BITMAP
01A900
090180
245560
224A20
630520
630520
230920
25A790
090000
01A900
ENDCHAR
STARTCHAR A
ENCODING 65
SWIDTH 718 0
DWIDTH 9 0
BBX 9 8 0 0
BITMAP
018000
02C000
02A000
057000
083400
1AAC00
200D00
B41F40
ENDCHAR
STARTCHAR B
ENCODING 66
SWIDTH 618 0
DWIDTH 7 0
BBX 7 8 0 0
BITMAP
6EA0
1828
1824
1EA0
1824
181C
181C
6D64
ENDCHAR
STARTCHAR C
ENCODING 67
SWIDTH 670 0
DWIDTH 8 0
BBX 8 8 0 0
BITMAP
06AD
2809
3005
7000
7000
7000
2805
0BA4
ENDCHAR
STARTCHAR D
ENCODING 68
SWIDTH 730 0
DWIDTH 9 0
BBX 8 8 0 0
BITMAP
6EA4
180D
1807
1807
1803
1807
1809
6DA4
ENDCHAR
STARTCHAR E
ENCODING 69
SWIDTH 626 0
DWIDTH 8 0
BBX 7 8 0 0
BITMAP
6EA8
1804
1810
1DA0
1810
1800
1808
6EAC
ENDCHAR
STARTCHAR F
ENCODING 70
SWIDTH 588 0
DWIDTH 7 0
BBX 7 8 0 0
BITMAP
6EA8
1804
1810
1DA0
1810
1800
1800
6D00
ENDCHAR
STARTCHAR G
ENCODING 71
SWIDTH 720 0
DWIDTH 9 0
BBX 8 8 0 0
BITMAP
06AD
2809
3005
7000
701A
7009
2809
0AA8
ENDCHAR
STARTCHAR H
ENCODING 72
SWIDTH 777 0
DWIDTH 9 0
BBX 8 8 1 0
BITMAP
B42D
701C
701C
756C
701C
701C
701C
B42D
ENDCHAR
STARTCHAR I
ENCODING 73
SWIDTH 357 0
DWIDTH 4 0
BBX 4 8 0 0
BITMAP
6D
18
18
18
18
18
18
6D
ENDCHAR
STARTCHAR J
ENCODING 74
SWIDTH 396 0
DWIDTH 5 0
BBX 5 8 0 0
BITMAP
1E40
0900
0900
0900
0900
0900
4900
A800
ENDCHAR
STARTCHAR K
ENCODING 75
SWIDTH 702 0
DWIDTH 8 0
BBX 8 8 0 0
BITMAP
6D2D
1820
1880
1A00
1A40
18D0
1834
6D2E
ENDCHAR
STARTCHAR L
ENCODING 76
SWIDTH 585 0
DWIDTH 7 0
BBX 7 8 0 0
BITMAP
6D00
1800
1800
1800
1800
1800
1808
6EA8
ENDCHAR
STARTCHAR M
ENCODING 77
SWIDTH 895 0
DWIDTH 11 0
BBX 10 8 0 0
BITMAP
7C01E0
2D02C0
2702C0
2348C0
2288C0
20D4C0
20B0C0
7851E0
ENDCHAR
STARTCHAR N
ENCODING 78
SWIDTH 742 0
DWIDTH 9 0
BBX 9 8 0 0
BITMAP
780B40
2E0200
274100
21C100
20A100
202900
200D00
780500
ENDCHAR
STARTCHAR O
ENCODING 79
SWIDTH 738 0
DWIDTH 9 0
BBX 9 8 0 0
BITMAP
0A6400
280A00
300700
700340
700340
300700
280900
0AA400
ENDCHAR
STARTCHAR P
ENCODING 80
SWIDTH 569 0
DWIDTH 7 0
BBX 7 8 0 0
BITMAP
2EA0
1834
1824
1830
1E90
1800
1800
6D00
ENDCHAR
STARTCHAR Q
ENCODING 81
SWIDTH 737 0
DWIDTH 9 0
BBX 9 10 0 -2
BITMAP
0AA400
280A00
300700
700340
700340
700700
280900
0A6400
007400
001A40
ENDCHAR
STARTCHAR R
ENCODING 82
SWIDTH 659 0
DWIDTH 8 0
BBX 8 8 0 0
BITMAP
6DA0
1824
1828
1830
1E80
1890
1834
6D1D
ENDCHAR
STARTCHAR S
ENCODING 83
SWIDTH 504 0
DWIDTH 6 0
BBX 6 8 0 0
BITMAP
2AD0
6050
7400
2E00
06C0
40A0
90A0
7A80
ENDCHAR
STARTCHAR T
ENCODING 84
SWIDTH 603 0
DWIDTH 7 0
BBX 7 8 0 0
BITMAP
ABAC
8348
0340
0340
0340
0340
0340
0780
ENDCHAR
STARTCHAR U
ENCODING 85
SWIDTH 752 0
DWIDTH 9 0
BBX 9 8 0 0
BITMAP
7D0B40
280200
280200
280200
280200
280200
1C0500
06A400
ENDCHAR
STARTCHAR V
ENCODING 86
SWIDTH 680 0
DWIDTH 8 0
BBX 8 8 0 0
BITMAP
B80A
3408
1C08
0D14
0A20
0350
02C0
0180
ENDCHAR
STARTCHAR W
ENCODING 87
SWIDTH 944 0
DWIDTH 11 0
BBX 11 8 0 0
BITMAP
B8B828
342414
182820
0C2C20
0A5A50
078780
038340
014200
ENDCHAR
STARTCHAR X
ENCODING 88
SWIDTH 664 0
DWIDTH 8 0
BBX 8 8 0 0
BITMAP
7D2D
1D20
0A50
0380
02C0
08A0
1434
743D
ENDCHAR
STARTCHAR Y
ENCODING 89
SWIDTH 647 0
DWIDTH 8 0
BBX 8 8 0 0
BITMAP
B81D
2814
0D20
0780
0280
0240
0240
0790
ENDCHAR
STARTCHAR Z
ENCODING 90
SWIDTH 594 0
DWIDTH 7 0
BBX 7 8 0 0
BITMAP
7AB8
5070
00D0
0280
0700
1D00
2408
BAA8
ENDCHAR
STARTCHAR bracketleft
ENCODING 91
SWIDTH 349 0
DWIDTH 4 0
BBX 3 12 1 -3
BITMAP
94
C0
C0
C0
C0
C0
C0
C0
C0
C0
C0
D4
ENDCHAR
STARTCHAR backslash
ENCODING 92
SWIDTH 385 0
DWIDTH 5 0
BBX 4 10 0 -1
BITMAP
50
20
20
14
14
08
08
05
02
02
ENDCHAR
STARTCHAR bracketright
ENCODING 93
SWIDTH 349 0
DWIDTH 4 0
BBX 2 12 1 -3
BITMAP
60
30
30
30
30
30
30
30
30
30
30
70
ENDCHAR
STARTCHAR asciicircum
ENCODING 94
SWIDTH 480 0
DWIDTH 6 0
BBX 5 5 0 4
BITMAP
0500
0A00
1640
2080
5080
ENDCHAR
STARTCHAR underscore
ENCODING 95
SWIDTH 512 0
DWIDTH 6 0
BBX 6 1 0 -2
BITMAP
AAA0
ENDCHAR
STARTCHAR grave
ENCODING 96
SWIDTH 222 0
DWIDTH 3 0
BBX 2 2 0 6
BITMAP
60
20
ENDCHAR
STARTCHAR a
ENCODING 97
SWIDTH 480 0
DWIDTH 6 0
BBX 6 6 0 0
BITMAP
2640
6180
0680
2580
6180
79D0
ENDCHAR
STARTCHAR b
ENCODING 98
SWIDTH 522 0
DWIDTH 6 0
BBX 6 9 0 0
BITMAP
7000
3000
3000
3680
34A0
3060
3060
3090
2980
ENDCHAR
STARTCHAR c
ENCODING 99
SWIDTH 446 0
DWIDTH 5 0
BBX 5 6 0 0
BITMAP
1640
6080
9000
9000
7040
2E40
ENDCHAR
STARTCHAR d
ENCODING 100
SWIDTH 539 0
DWIDTH 6 0
BBX 6 9 0 0
BITMAP
0190
0090
0090
1AD0
6090
9090
A090
6090
2EA0
ENDCHAR
STARTCHAR e
ENCODING 101
SWIDTH 464 0
DWIDTH 6 0
BBX 5 6 0 0
BITMAP
1A40
60C0
A580
9000
7040
1F40
ENDCHAR
STARTCHAR f
ENCODING 102
SWIDTH 307 0
DWIDTH 4 0
BBX 5 9 0 0
BITMAP
0A40
2400
2400
7900
2400
2400
2400
2400
7800
ENDCHAR
STARTCHAR g
ENCODING 103
SWIDTH 484 0
DWIDTH 6 0
BBX 6 9 0 -3
BITMAP
26D0
60C0
6180
2600
6000
7F90
5060
9050
7A40
ENDCHAR
STARTCHAR h
ENCODING 104
SWIDTH 577 0
DWIDTH 7 0
BBX 7 9 0 0
BITMAP
7400
2400
2400
26D0
2460
2460
2460
2460
78B4
ENDCHAR
STARTCHAR i
ENCODING 105
SWIDTH 285 0
DWIDTH 3 0
BBX 3 8 0 0
BITMAP
24
10
74
24
24
24
24
78
ENDCHAR
STARTCHAR j
ENCODING 106
SWIDTH 263 0
DWIDTH 3 0
BBX 4 11 -1 -3
BITMAP
0D
04
1D
09
09
09
09
09
08
48
A4
ENDCHAR
STARTCHAR k
ENCODING 107
SWIDTH 542 0
DWIDTH 7 0
BBX 7 9 0 0
BITMAP
7400
2400
2400
25D0
2600
2900
2700
2580
78E4
ENDCHAR
STARTCHAR l
ENCODING 108
SWIDTH 283 0
DWIDTH 3 0
BBX 3 9 0 0
BITMAP
74
24
24
24
24
24
24
24
78
ENDCHAR
STARTCHAR m
ENCODING 109
SWIDTH 852 0
DWIDTH 10 0
BBX 10 6 0 0
BITMAP
76DA80
2460C0
2460C0
2460C0
2460C0
78B5D0
ENDCHAR
STARTCHAR n
ENCODING 110
SWIDTH 576 0
DWIDTH 7 0
BBX 7 6 0 0
BITMAP
76D0
2460
2460
2460
2460
78B4
ENDCHAR
STARTCHAR o
ENCODING 111
SWIDTH 514 0
DWIDTH 6 0
BBX 6 6 0 0
BITMAP
1A80
6090
A060
A060
6090
1A80
ENDCHAR
STARTCHAR p
ENCODING 112
SWIDTH 537 0
DWIDTH 6 0
BBX 6 9 0 -3
BITMAP
76D0
3460
3030
3030
3460
3980
3000
3000
7800
ENDCHAR
STARTCHAR q
ENCODING 113
SWIDTH 521 0
DWIDTH 6 0
BBX 6 9 0 -3
BITMAP
1A90
6090
9090
A090
7090
2E90
0090
0090
01E0
ENDCHAR
STARTCHAR r
ENCODING 114
SWIDTH 380 0
DWIDTH 5 0
BBX 5 6 0 0
BITMAP
7740
2900
2400
2400
2400
7800
ENDCHAR
STARTCHAR s
ENCODING 115
SWIDTH 395 0
DWIDTH 5 0
BBX 5 6 0 0
BITMAP
2600
5100
7800
0B00
4240
6600
ENDCHAR
STARTCHAR t
ENCODING 116
SWIDTH 315 0
DWIDTH 4 0
BBX 4 8 0 0
BITMAP
10
20
79
30
30
30
30
29
ENDCHAR
STARTCHAR u
ENCODING 117
SWIDTH 570 0
DWIDTH 7 0
BBX 7 6 0 0
BITMAP
70A0
3060
3060
3060
3460
1EA4
ENDCHAR
STARTCHAR v
ENCODING 118
SWIDTH 481 0
DWIDTH 6 0
BBX 6 6 0 0
BITMAP
B0A0
3080
2480
1900
0E00
0900
ENDCHAR
STARTCHAR w
ENCODING 119
SWIDTH 749 0
DWIDTH 9 0
BBX 9 6 0 0
BITMAP
B1D280
309100
24A200
197500
0E2800
091800
ENDCHAR
STARTCHAR x
ENCODING 120
SWIDTH 479 0
DWIDTH 6 0
BBX 6 6 0 0
BITMAP
74D0
2940
0D00
0A00
2280
A1D0
ENDCHAR
STARTCHAR y
ENCODING 121
SWIDTH 483 0
DWIDTH 6 0
BBX 6 9 0 -3
BITMAP
B0A0
3080
2480
1940
0A00
0500
0400
0800
A000
ENDCHAR
STARTCHAR z
ENCODING 122
SWIDTH 458 0
DWIDTH 6 0
BBX 5 6 0 0
BITMAP
6AC0
4340
0A00
1C00
3440
7AC0
ENDCHAR
STARTCHAR braceleft
ENCODING 123
SWIDTH 327 0
DWIDTH 4 0
BBX 3 12 0 -3
BITMAP
04
20
20
20
24
20
50
20
24
20
20
18
ENDCHAR
STARTCHAR bar
ENCODING 124
SWIDTH 267 0
DWIDTH 3 0
BBX 1 12 1 -3
BITMAP
80
80
80
80
80
80
80
80
80
80
80
80
ENDCHAR
STARTCHAR braceright
ENCODING 125
SWIDTH 327 0
DWIDTH 4 0
BBX 4 12 0 -3
BITMAP
50
18
08
18
18
08
09
18
18
18
08
64
ENDCHAR
STARTCHAR asciitilde
ENCODING 126
SWIDTH 557 0
DWIDTH 7 0
BBX 6 2 0 2
BITMAP
2960
5190
ENDCHAR
STARTCHAR uni00A0
ENCODING 160
SWIDTH 235 0
DWIDTH 3 0
BBX 1 1 0 0
BITMAP
00
ENDCHAR
STARTCHAR exclamdown
ENCODING 161
SWIDTH 282 0
DWIDTH 3 0
BBX 2 9 1 -3
BITMAP
D0
40
40
80
80
80
D0
D0
90
ENDCHAR
STARTCHAR cent
ENCODING 162
SWIDTH 495 0
DWIDTH 6 0
BBX 5 8 0 0
BITMAP
0100
1680
2180
6100
6500
3540
1F40
0500
ENDCHAR
STARTCHAR sterling
ENCODING 163
SWIDTH 495 0
DWIDTH 6 0
BBX 6 8 0 0
BITMAP
0690
1850
1800
6E40
0C00
0800
6810
9B80
ENDCHAR
STARTCHAR currency
ENCODING 164
SWIDTH 617 0
DWIDTH 7 0
BBX 7 7 0 0
BITMAP
5004
2AA4
2420
2014
2420
26A4
0004
ENDCHAR
STARTCHAR yen
ENCODING 165
SWIDTH 495 0
DWIDTH 6 0
BBX 6 8 0 0
BITMAP
A490
7480
2840
0E00
2B80
2A80
0A00
1F40
ENDCHAR
STARTCHAR brokenbar
ENCODING 166
SWIDTH 267 0
DWIDTH 3 0
BBX 1 9 1 0
BITMAP
80
80
80
40
00
40
80
80
80
ENDCHAR
STARTCHAR section
ENCODING 167
SWIDTH 491 0
DWIDTH 6 0
BBX 4 11 1 -3
BITMAP
55
82
A0
38
8A
82
A2
28
09
86
55
ENDCHAR
STARTCHAR dieresis
ENCODING 168
SWIDTH 392 0
DWIDTH 5 0
BBX 5 1 0 7
BITMAP
6240
ENDCHAR
STARTCHAR copyright
ENCODING 169
SWIDTH 781 0
DWIDTH 9 0
BBX 9 9 0 0
BITMAP
015400
140500
126540
560440
450040
560440
12A140
140500
015400
ENDCHAR
STARTCHAR ordfeminine
ENCODING 170
SWIDTH 410 0
DWIDTH 5 0
BBX 5 5 0 3
BITMAP
2600
5300
1700
5300
6640
ENDCHAR
STARTCHAR guillemotleft
ENCODING 171
SWIDTH 517 0
DWIDTH 6 0
BBX 6 5 0 0
BITMAP
0850
6240
6240
1480
0410
ENDCHAR
STARTCHAR logicalnot
ENCODING 172
SWIDTH 720 0
DWIDTH 9 0
BBX 8 5 0 0
BITMAP
7FFE
0006
0006
0006
0001
ENDCHAR
STARTCHAR uni00AD
ENCODING 173
SWIDTH 315 0
DWIDTH 4 0
BBX 4 1 0 3
BITMAP
69
ENDCHAR
STARTCHAR registered
ENCODING 174
SWIDTH 413 0
DWIDTH 5 0
BBX 5 5 0 4
BITMAP
1500
5540
5840
5540
1500
ENDCHAR
STARTCHAR macron
ENCODING 175
SWIDTH 350 0
DWIDTH 4 0
BBX 4 1 0 7
BITMAP
6A
ENDCHAR
STARTCHAR degree
ENCODING 176
SWIDTH 409 0
DWIDTH 5 0
BBX 5 4 0 5
BITMAP
1900
5200
5240
1900
ENDCHAR
STARTCHAR plusminus
ENCODING 177
SWIDTH 720 0
DWIDTH 9 0
BBX 8 8 0 0
BITMAP
0040
0080
0080
6AEA
0080
0080
0040
6AAA
ENDCHAR
STARTCHAR twosuperior
ENCODING 178
SWIDTH 373 0
DWIDTH 4 0
BBX 4 6 0 3
BITMAP
69
43
02
08
20
BB
ENDCHAR
STARTCHAR threesuperior
ENCODING 179
SWIDTH 374 0
DWIDTH 4 0
BBX 4 6 0 3
BITMAP
69
05
19
03
02
65
ENDCHAR
STARTCHAR acute
ENCODING 180
SWIDTH 222 0
DWIDTH 3 0
BBX 2 2 0 6
BITMAP
30
50
ENDCHAR
STARTCHAR uni00B5
ENCODING 181
SWIDTH 556 0
DWIDTH 7 0
BBX 7 9 0 -3
BITMAP
3090
3090
2080
20C0
3180
6E74
5000
6000
5000
ENDCHAR
STARTCHAR paragraph
ENCODING 182
SWIDTH 605 0
DWIDTH 7 0
BBX 7 10 0 -2
BITMAP
1BA4
6250
6250
6250
1750
0250
0250
0250
0250
0764
ENDCHAR
STARTCHAR periodcentered
ENCODING 183
SWIDTH 282 0
DWIDTH 3 0
BBX 2 2 1 2
BITMAP
D0
40
ENDCHAR
STARTCHAR cedilla
ENCODING 184
SWIDTH 247 0
DWIDTH 3 0
BBX 3 3 0 -3
BITMAP
24
08
60
ENDCHAR
STARTCHAR onesuperior
ENCODING 185
SWIDTH 343 0
DWIDTH 4 0
BBX 4 6 0 3
BITMAP
68
18
18
18
18
29
ENDCHAR
STARTCHAR ordmasculine
ENCODING 186
SWIDTH 432 0
DWIDTH 5 0
BBX 5 5 0 3
BITMAP
2600
5180
9080
5180
2600
ENDCHAR
STARTCHAR guillemotright
ENCODING 187
SWIDTH 517 0
DWIDTH 6 0
BBX 5 5 1 0
BITMAP
8500
6240
2180
8600
0400
ENDCHAR
STARTCHAR onequarter
ENCODING 188
SWIDTH 861 0
DWIDTH 10 0
BBX 9 10 1 -1
BITMAP
000400
901400
502000
505000
508340
A20640
011240
082B80
140240
100000
ENDCHAR
STARTCHAR onehalf
ENCODING 189
SWIDTH 889 0
DWIDTH 11 0
BBX 10 9 1 0
BITMAP
000400
901400
502000
504000
504A80
A200C0
050180
080510
101A80
ENDCHAR
STARTCHAR threequarters
ENCODING 190
SWIDTH 861 0
DWIDTH 10 0
BBX 10 10 0 -1
BITMAP
000100
290500
460800
191400
032090
658190
004490
020AE0
050090
040000
ENDCHAR
STARTCHAR questiondown
ENCODING 191
SWIDTH 411 0
DWIDTH 5 0
BBX 5 9 0 -3
BITMAP
0C00
0400
0400
0800
2400
6000
9140
A180
2600
ENDCHAR
STARTCHAR Agrave
ENCODING 192
SWIDTH 718 0
DWIDTH 9 0
BBX 9 11 0 0
BITMAP
014000
008000
000000
018000
02C000
02A000
057000
083400
1AAC00
200D00
B41F40
ENDCHAR
STARTCHAR Aacute
ENCODING 193
SWIDTH 718 0
DWIDTH 9 0
BBX 9 11 0 0
BITMAP
005000
014000
000000
018000
02C000
02A000
057000
083400
1AAC00
200D00
B41F40
ENDCHAR
STARTCHAR Acircumflex
ENCODING 194
SWIDTH 718 0
DWIDTH 9 0
BBX 9 11 0 0
BITMAP
014000
025000
000000
018000
02C000
02A000
057000
083400
1AAC00
200D00
B41F40
ENDCHAR
STARTCHAR Atilde
ENCODING 195
SWIDTH 718 0
DWIDTH 9 0
BBX 9 11 0 0
BITMAP
025000
04A000
000000
018000
02C000
02A000
057000
083400
1AAC00
200D00
B41F40
ENDCHAR
STARTCHAR Adieresis
ENCODING 196
SWIDTH 718 0
DWIDTH 9 0
BBX 9 10 0 0
BITMAP
093000
001000
018000
02C000
02A000
057000
083400
1AAC00
200D00
B41F40
ENDCHAR
STARTCHAR Aring
ENCODING 197
SWIDTH 718 0
DWIDTH 9 0
BBX 9 11 0 0
BITMAP
018000
021000
018000
018000
02C000
02A000
057000
083400
1AAC00
200D00
B41F40
ENDCHAR
STARTCHAR AE
ENCODING 198
SWIDTH 894 0
DWIDTH 11 0
BBX 11 8 0 0
BITMAP
01FAB0
017010
023040
053080
0ABAC0
143004
203014
A0BAB0
ENDCHAR
STARTCHAR Ccedilla
ENCODING 199
SWIDTH 670 0
DWIDTH 8 0
BBX 8 11 0 -3
BITMAP
06AD
2809
3005
7000
7000
7000
2805
0BE4
0180
0050
0180
ENDCHAR
STARTCHAR Egrave
ENCODING 200
SWIDTH 626 0
DWIDTH 8 0
BBX 7 11 0 0
BITMAP
0500
0180
0000
6EA8
1804
1810
1DA0
1810
1800
1808
6EAC
ENDCHAR
STARTCHAR Eacute
ENCODING 201
SWIDTH 626 0
DWIDTH 8 0
BBX 7 11 0 0
BITMAP
0040
0240
0000
6EA8
1804
1810
1DA0
1810
1800
1808
6EAC
ENDCHAR
STARTCHAR Ecircumflex
ENCODING 202
SWIDTH 626 0
DWIDTH 8 0
BBX 7 11 0 0
BITMAP
0140
0590
0000
6EA8
1804
1810
1DA0
1810
1800
1808
6EAC
ENDCHAR
STARTCHAR Edieresis
ENCODING 203
SWIDTH 626 0
DWIDTH 8 0
BBX 7 10 0 0
BITMAP
0C60
0400
6EA8
1804
1810
1DA0
1810
1800
1808
6EAC
ENDCHAR
STARTCHAR Igrave
ENCODING 204
SWIDTH 357 0
DWIDTH 4 0
BBX 4 11 0 0
BITMAP
10
18
00
6D
18
18
18
18
18
18
6D
ENDCHAR
STARTCHAR Iacute
ENCODING 205
SWIDTH 357 0
DWIDTH 4 0
BBX 4 11 0 0
BITMAP
05
24
00
6D
18
18
18
18
18
18
6D
ENDCHAR
STARTCHAR Icircumflex
ENCODING 206
SWIDTH 357 0
DWIDTH 4 0
BBX 4 11 0 0
BITMAP
14
65
00
6D
18
18
18
18
18
18
6D
ENDCHAR
STARTCHAR Idieresis
ENCODING 207
SWIDTH 357 0
DWIDTH 4 0
BBX 4 10 0 0
BITMAP
93
01
6D
18
18
18
18
18
18
6D
ENDCHAR
STARTCHAR Eth
ENCODING 208
SWIDTH 737 0
DWIDTH 9 0
BBX 9 8 0 0
BITMAP
6EA400
180D00
180700
6E4740
180340
180700
180900
6DA400
ENDCHAR
STARTCHAR Ntilde
ENCODING 209
SWIDTH 742 0
DWIDTH 9 0
BBX 9 11 0 0
BITMAP
029400
046000
000000
780B40
2E0200
274100
21C100
20A100
202900
200D00
780500
ENDCHAR
STARTCHAR Ograve
ENCODING 210
SWIDTH 738 0
DWIDTH 9 0
BBX 9 11 0 0
BITMAP
014000
009000
000000
0A6400
280A00
300700
700340
700340
300700
280900
0AA400
ENDCHAR
STARTCHAR Oacute
ENCODING 211
SWIDTH 738 0
DWIDTH 9 0
BBX 9 11 0 0
BITMAP
005000
018000
000000
0A6400
280A00
300700
700340
700340
300700
280900
0AA400
ENDCHAR
STARTCHAR Ocircumflex
ENCODING 212
SWIDTH 738 0
DWIDTH 9 0
BBX 9 11 0 0
BITMAP
004000
026000
000000
0A6400
280A00
300700
700340
700340
300700
280900
0AA400
ENDCHAR
STARTCHAR Otilde
ENCODING 213
SWIDTH 738 0
DWIDTH 9 0
BBX 9 11 0 0
BITMAP
029400
04A000
000000
0A6400
280A00
300700
700340
700340
300700
280900
0AA400
ENDCHAR
STARTCHAR Odieresis
ENCODING 214
SWIDTH 738 0
DWIDTH 9 0
BBX 9 10 0 0
BITMAP
062400
000000
0A6400
280A00
300700
700340
700340
300700
280900
0AA400
ENDCHAR
STARTCHAR multiply
ENCODING 215
SWIDTH 720 0
DWIDTH 9 0
BBX 7 7 1 0
BITMAP
4004
9024
2490
0B40
0A80
24A0
9024
ENDCHAR
STARTCHAR Oslash
ENCODING 216
SWIDTH 737 0
DWIDTH 9 0
BBX 9 8 0 0
BITMAP
0AA900
280D00
302700
704340
714340
750700
280900
2AA400
ENDCHAR
STARTCHAR Ugrave
ENCODING 217
SWIDTH 752 0
DWIDTH 9 0
BBX 9 11 0 0
BITMAP
014000
005000
000000
7D0B40
280200
280200
280200
280200
280200
1C0500
06A400
ENDCHAR
STARTCHAR Uacute
ENCODING 218
SWIDTH 752 0
DWIDTH 9 0
BBX 9 11 0 0
BITMAP
001000
009000
000000
7D0B40
280200
280200
280200
280200
280200
1C0500
06A400
ENDCHAR
STARTCHAR Ucircumflex
ENCODING 219
SWIDTH 752 0
DWIDTH 9 0
BBX 9 11 0 0
BITMAP
005000
016400
000000
7D0B40
280200
280200
280200
280200
280200
1C0500
06A400
ENDCHAR
STARTCHAR Udieresis
ENCODING 220
SWIDTH 752 0
DWIDTH 9 0
BBX 9 10 0 0
BITMAP
031800
010000
7D0B40
280200
280200
280200
280200
280200
1C0500
06A400
ENDCHAR
STARTCHAR Yacute
ENCODING 221
SWIDTH 647 0
DWIDTH 8 0
BBX 8 11 0 0
BITMAP
0040
0240
0000
B81D
2814
0D20
0780
0280
0240
0240
0790
ENDCHAR
STARTCHAR Thorn
ENCODING 222
SWIDTH 572 0
DWIDTH 7 0
BBX 7 8 0 0
BITMAP
6D00
1E90
1834
1824
1834
1E90
1800
6D00
ENDCHAR
STARTCHAR germandbls
ENCODING 223
SWIDTH 563 0
DWIDTH 7 0
BBX 7 9 0 0
BITMAP
0990
2460
2450
7540
2590
2430
2424
2524
7760
ENDCHAR
STARTCHAR agrave
ENCODING 224
SWIDTH 480 0
DWIDTH 6 0
BBX 6 8 0 0
BITMAP
1800
0500
2640
6180
0680
2580
6180
79D0
ENDCHAR
STARTCHAR aacute
ENCODING 225
SWIDTH 480 0
DWIDTH 6 0
BBX 6 8 0 0
BITMAP
0600
0800
2640
6180
0680
2580
6180
79D0
ENDCHAR
STARTCHAR acircumflex
ENCODING 226
SWIDTH 480 0
DWIDTH 6 0
BBX 6 8 0 0
BITMAP
0900
1140
2640
6180
0680
2580
6180
79D0
ENDCHAR
STARTCHAR atilde
ENCODING 227
SWIDTH 480 0
DWIDTH 6 0
BBX 6 9 0 0
BITMAP
1940
1640
0000
2640
6180
0680
2580
6180
79D0
ENDCHAR
STARTCHAR adieresis
ENCODING 228
SWIDTH 480 0
DWIDTH 6 0
BBX 6 8 0 0
BITMAP
3180
0000
2640
6180
0680
2580
6180
79D0
ENDCHAR
STARTCHAR aring
ENCODING 229
SWIDTH 480 0
DWIDTH 6 0
BBX 6 9 0 0
BITMAP
0900
1200
0900
2640
6180
0680
2580
6180
79D0
ENDCHAR
STARTCHAR ae
ENCODING 230
SWIDTH 709 0
DWIDTH 9 0
BBX 8 6 0 0
BITMAP
2659
6287
0696
2580
A1C1
79B9
ENDCHAR
STARTCHAR ccedilla
ENCODING 231
SWIDTH 446 0
DWIDTH 5 0
BBX 5 9 0 -3
BITMAP
1640
6080
9000
9000
7040
2E40
0400
0600
0600
ENDCHAR
STARTCHAR egrave
ENCODING 232
SWIDTH 464 0
DWIDTH 6 0
BBX 5 8 0 0
BITMAP
1C00
0500
1A40
60C0
A580
9000
7040
1F40
ENDCHAR
STARTCHAR eacute
ENCODING 233
SWIDTH 464 0
DWIDTH 6 0
BBX 5 8 0 0
BITMAP
0300
0500
1A40
60C0
A580
9000
7040
1F40
ENDCHAR
STARTCHAR ecircumflex
ENCODING 234
SWIDTH 464 0
DWIDTH 6 0
BBX 5 8 0 0
BITMAP
0A00
1540
1A40
60C0
A580
9000
7040
1F40
ENDCHAR
STARTCHAR edieresis
ENCODING 235
SWIDTH 464 0
DWIDTH 6 0
BBX 5 8 0 0
BITMAP
3180
0000
1A40
60C0
A580
9000
7040
1F40
ENDCHAR
STARTCHAR igrave
ENCODING 236
SWIDTH 285 0
DWIDTH 3 0
BBX 3 8 0 0
BITMAP
A0
20
74
24
24
24
24
78
ENDCHAR
STARTCHAR iacute
ENCODING 237
SWIDTH 285 0
DWIDTH 3 0
BBX 3 8 0 0
BITMAP
28
20
74
24
24
24
24
78
ENDCHAR
STARTCHAR icircumflex
ENCODING 238
SWIDTH 285 0
DWIDTH 3 0
BBX 3 9 0 0
BITMAP
30
98
44
74
24
24
24
24
78
ENDCHAR
STARTCHAR idieresis
ENCODING 239
SWIDTH 285 0
DWIDTH 3 0
BBX 5 8 -1 0
BITMAP
7240
1100
1D00
0900
0900
0900
0900
1E00
ENDCHAR
STARTCHAR eth
ENCODING 240
SWIDTH 532 0
DWIDTH 6 0
BBX 6 9 0 0
BITMAP
1A50
06C0
0090
19A0
60A0
A060
A060
6090
1980
ENDCHAR
STARTCHAR ntilde
ENCODING 241
SWIDTH 576 0
DWIDTH 7 0
BBX 7 9 0 0
BITMAP
0A50
0180
0000
76D0
2460
2460
2460
2460
78B4
ENDCHAR
STARTCHAR ograve
ENCODING 242
SWIDTH 514 0
DWIDTH 6 0
BBX 6 8 0 0
BITMAP
0C00
0600
1A80
6090
A060
A060
6090
1A80
ENDCHAR
STARTCHAR oacute
ENCODING 243
SWIDTH 514 0
DWIDTH 6 0
BBX 6 8 0 0
BITMAP
0340
0500
1A80
6090
A060
A060
6090
1A80
ENDCHAR
STARTCHAR ocircumflex
ENCODING 244
SWIDTH 514 0
DWIDTH 6 0
BBX 6 8 0 0
BITMAP
0A00
1540
1A80
6090
A060
A060
6090
1A80
ENDCHAR
STARTCHAR otilde
ENCODING 245
SWIDTH 514 0
DWIDTH 6 0
BBX 6 9 0 0
BITMAP
1940
1280
0000
1A80
6090
A060
A060
6090
1A80
ENDCHAR
STARTCHAR odieresis
ENCODING 246
SWIDTH 514 0
DWIDTH 6 0
BBX 6 8 0 0
BITMAP
24C0
0000
1A80
6090
A060
A060
6090
1A80
ENDCHAR
STARTCHAR divide
ENCODING 247
SWIDTH 720 0
DWIDTH 9 0
BBX 8 7 0 0
BITMAP
01C0
0000
0000
7FFE
0000
0040
0180
ENDCHAR
STARTCHAR oslash
ENCODING 248
SWIDTH 514 0
DWIDTH 6 0
BBX 6 6 0 0
BITMAP
1A80
6190
A160
A860
7090
6A80
ENDCHAR
STARTCHAR ugrave
ENCODING 249
SWIDTH 570 0
DWIDTH 7 0
BBX 7 8 0 0
BITMAP
0900
0200
70A0
3060
3060
3060
3460
1EA4
ENDCHAR
STARTCHAR uacute
ENCODING 250
SWIDTH 570 0
DWIDTH 7 0
BBX 7 8 0 0
BITMAP
0240
0200
70A0
3060
3060
3060
3460
1EA4
ENDCHAR
STARTCHAR ucircumflex
ENCODING 251
SWIDTH 570 0
DWIDTH 7 0
BBX 7 8 0 0
BITMAP
0700
0880
70A0
3060
3060
3060
3460
1EA4
ENDCHAR
STARTCHAR udieresis
ENCODING 252
SWIDTH 570 0
DWIDTH 7 0
BBX 7 8 0 0
BITMAP
28C0
0000
70A0
3060
3060
3060
3460
1EA4
ENDCHAR
STARTCHAR yacute
ENCODING 253
SWIDTH 483 0
DWIDTH 6 0
BBX 6 11 0 -3
BITMAP
0340
0500
B0A0
3080
2480
1940
0A00
0500
0400
0800
A000
ENDCHAR
STARTCHAR thorn
ENCODING 254
SWIDTH 524 0
DWIDTH 6 0
BBX 6 12 0 -3
BITMAP
7000
3000
3000
36C0
34A0
3070
3060
3050
3980
3000
3000
7800
ENDCHAR
STARTCHAR ydieresis
ENCODING 255
SWIDTH 483 0
DWIDTH 6 0
BBX 6 11 0 -3
BITMAP
24C0
0000
B0A0
3080
2480
1940
0A00
0500
0400
0800
A000
ENDCHAR
STARTCHAR Amacron
ENCODING 256
SWIDTH 718 0
DWIDTH 9 0
BBX 9 10 0 0
BITMAP
06A000
000000
018000
02C000
02A000
057000
083400
1AAC00
200D00
B41F40
ENDCHAR
STARTCHAR amacron
ENCODING 257
SWIDTH 480 0
DWIDTH 6 0
BBX 6 8 0 0
BITMAP
2A40
0000
2640
6180
0680
2580
6180
79D0
ENDCHAR
STARTCHAR Abreve
ENCODING 258
SWIDTH 718 0
DWIDTH 9 0
BBX 9 11 0 0
BITMAP
042000
029000
000000
018000
02C000
02A000
057000
083400
1AAC00
200D00
B41F40
ENDCHAR
STARTCHAR abreve
ENCODING 259
SWIDTH 480 0
DWIDTH 6 0
BBX 6 8 0 0
BITMAP
2040
1A00
2640
6180
0680
2580
6180
79D0
ENDCHAR
STARTCHAR Aogonek
ENCODING 260
SWIDTH 719 0
DWIDTH 9 0
BBX 9 11 0 -3
BITMAP
018000
02C000
02A000
057000
083400
1AAC00
201D00
740F40
001000
008000
00A400
ENDCHAR
STARTCHAR aogonek
ENCODING 261
SWIDTH 480 0
DWIDTH 6 0
BBX 6 9 0 -3
BITMAP
2640
6180
0680
2580
6180
79D0
0140
0200
0290
ENDCHAR
STARTCHAR Cacute
ENCODING 262
SWIDTH 670 0
DWIDTH 8 0
BBX 8 11 0 0
BITMAP
0050
0180
0000
06AD
2809
3005
7000
7000
7000
2805
0BA4
ENDCHAR
STARTCHAR cacute
ENCODING 263
SWIDTH 446 0
DWIDTH 5 0
BBX 5 8 0 0
BITMAP
0300
0500
1640
6080
9000
9000
7040
2E40
ENDCHAR
STARTCHAR Ccircumflex
ENCODING 264
SWIDTH 670 0
DWIDTH 8 0
BBX 8 11 0 0
BITMAP
0040
0260
0000
06AD
2809
3005
7000
7000
7000
2805
0BA4
ENDCHAR
STARTCHAR ccircumflex
ENCODING 265
SWIDTH 446 0
DWIDTH 5 0
BBX 5 8 0 0
BITMAP
0A00
1540
1640
6080
9000
9000
7040
2E40
ENDCHAR
STARTCHAR Cdotaccent
ENCODING 266
SWIDTH 670 0
DWIDTH 8 0
BBX 8 10 0 0
BITMAP
00C0
0040
06AD
2809
3005
7000
7000
7000
2805
0BA4
ENDCHAR
STARTCHAR cdotaccent
ENCODING 267
SWIDTH 446 0
DWIDTH 5 0
BBX 5 8 0 0
BITMAP
0900
0000
1640
6080
9000
9000
7040
2E40
ENDCHAR
STARTCHAR Ccaron
ENCODING 268
SWIDTH 670 0
DWIDTH 8 0
BBX 8 11 0 0
BITMAP
0110
0190
0000
06AD
2809
3005
7000
7000
7000
2805
0BA4
ENDCHAR
STARTCHAR ccaron
ENCODING 269
SWIDTH 446 0
DWIDTH 5 0
BBX 5 9 0 0
BITMAP
1540
0A00
0000
1640
6080
9000
9000
7040
2E40
ENDCHAR
STARTCHAR Dcaron
ENCODING 270
SWIDTH 730 0
DWIDTH 9 0
BBX 8 11 0 0
BITMAP
0410
0280
0000
6EA4
180D
1807
1807
1803
1807
1809
6DA4
ENDCHAR
STARTCHAR dcaron
ENCODING 271
SWIDTH 626 0
DWIDTH 8 0
BBX 8 9 0 0
BITMAP
0199
0098
0094
1AD0
6090
9090
A090
6090
2EA0
ENDCHAR
STARTCHAR Dcroat
ENCODING 272
SWIDTH 733 0
DWIDTH 9 0
BBX 8 8 0 0
BITMAP
6EA4
180D
1807
6E47
1807
1807
1809
6DA4
ENDCHAR
STARTCHAR dcroat
ENCODING 273
SWIDTH 540 0
DWIDTH 6 0
BBX 6 9 0 0
BITMAP
0190
0090
06E0
1AD0
6090
9090
A090
6090
2EA0
ENDCHAR
STARTCHAR Emacron
ENCODING 274
SWIDTH 626 0
DWIDTH 8 0
BBX 7 10 0 0
BITMAP
0A90
0000
6EA8
1804
1810
1DA0
1810
1800
1808
6EAC
ENDCHAR
STARTCHAR emacron
ENCODING 275
SWIDTH 464 0
DWIDTH 6 0
BBX 5 8 0 0
BITMAP
2A40
0000
1A40
60C0
A580
9000
7040
1F40
ENDCHAR
STARTCHAR Ebreve
ENCODING 276
SWIDTH 626 0
DWIDTH 8 0
BBX 7 11 0 0
BITMAP
0810
0680
0000
6EA8
1804
1810
1DA0
1810
1800
1808
6EAC
ENDCHAR
STARTCHAR ebreve
ENCODING 277
SWIDTH 464 0
DWIDTH 6 0
BBX 5 8 0 0
BITMAP
2040
1A00
1A40
60C0
A580
9000
7040
1F40
ENDCHAR
STARTCHAR Edotaccent
ENCODING 278
SWIDTH 626 0
DWIDTH 8 0
BBX 7 10 0 0
BITMAP
0240
0000
6EA8
1804
1810
1DA0
1810
1800
1808
6EAC
ENDCHAR
STARTCHAR edotaccent
ENCODING 279
SWIDTH 464 0
DWIDTH 6 0
BBX 5 8 0 0
BITMAP
0900
0000
1A40
60C0
A580
9000
7040
1F40
ENDCHAR
STARTCHAR Eogonek
ENCODING 280
SWIDTH 625 0
DWIDTH 8 0
BBX 7 11 0 -3
BITMAP
6EA8
1804
1810
1820
1DA0
1800
1808
6EAC
0020
0050
0064
ENDCHAR
STARTCHAR eogonek
ENCODING 281
SWIDTH 464 0
DWIDTH 6 0
BBX 5 9 0 -3
BITMAP
1A40
60C0
A580
9000
7040
1F40
0500
0800
0A40
ENDCHAR
STARTCHAR Ecaron
ENCODING 282
SWIDTH 626 0
DWIDTH 8 0
BBX 7 11 0 0
BITMAP
0410
0280
0000
6EA8
1804
1810
1DA0
1810
1800
1808
6EAC
ENDCHAR
STARTCHAR ecaron
ENCODING 283
SWIDTH 464 0
DWIDTH 6 0
BBX 5 9 0 0
BITMAP
1540
0A00
0000
1A40
60C0
A580
9000
7040
1F40
ENDCHAR
STARTCHAR Gcircumflex
ENCODING 284
SWIDTH 720 0
DWIDTH 9 0
BBX 8 11 0 0
BITMAP
0040
0260
0000
06AD
2809
3005
7000
701A
7009
2809
0AA8
ENDCHAR
STARTCHAR gcircumflex
ENCODING 285
SWIDTH 484 0
DWIDTH 6 0
BBX 6 11 0 -3
BITMAP
0A00
1540
26D0
60C0
6180
2600
6000
7F90
5060
9050
7A40
ENDCHAR
STARTCHAR Gbreve
ENCODING 286
SWIDTH 720 0
DWIDTH 9 0
BBX 8 11 0 0
BITMAP
0110
02A0
0000
06AD
2809
3005
7000
701A
7009
2809
0AA8
ENDCHAR
STARTCHAR gbreve
ENCODING 287
SWIDTH 484 0
DWIDTH 6 0
BBX 6 11 0 -3
BITMAP
2040
1A00
26D0
60C0
6180
2600
6000
7F90
5060
9050
7A40
ENDCHAR
STARTCHAR Gdotaccent
ENCODING 288
SWIDTH 720 0
DWIDTH 9 0
BBX 8 10 0 0
BITMAP
00C0
0040
06AD
2809
3005
7000
701A
7009
2809
0AA8
ENDCHAR
STARTCHAR gdotaccent
ENCODING 289
SWIDTH 484 0
DWIDTH 6 0
BBX 6 11 0 -3
BITMAP
0900
0000
26D0
60C0
6180
2600
6000
7F90
5060
9050
7A40
ENDCHAR
STARTCHAR Gcommaaccent
ENCODING 290
SWIDTH 720 0
DWIDTH 9 0
BBX 8 12 0 -4
BITMAP
06AD
2809
3005
7000
701A
7009
2809
0AA8
0000
01C0
0080
0040
ENDCHAR
STARTCHAR gcommaaccent
ENCODING 291
SWIDTH 484 0
DWIDTH 6 0
BBX 6 12 0 -3
BITMAP
0800
0900
0000
26D0
60C0
6180
2600
6000
7F90
5060
9050
7A40
ENDCHAR
STARTCHAR Hcircumflex
ENCODING 292
SWIDTH 777 0
DWIDTH 9 0
BBX 9 11 0 0
BITMAP
005000
026000
000000
6D1B40
180600
180600
1D5A00
180600
180600
180600
6D1B40
ENDCHAR
STARTCHAR hcircumflex
ENCODING 293
SWIDTH 577 0
DWIDTH 7 0
BBX 7 11 0 0
BITMAP
0500
0940
7400
2400
2400
26D0
2460
2460
2460
2460
78B4
ENDCHAR
STARTCHAR Hbar
ENCODING 294
SWIDTH 788 0
DWIDTH 9 0
BBX 9 8 0 0
BITMAP
6D1B40
180600
6D5B40
1D5A00
180600
180600
180600
6D1B40
ENDCHAR
STARTCHAR hbar
ENCODING 295
SWIDTH 579 0
DWIDTH 7 0
BBX 7 9 0 0
BITMAP
7400
3400
7A00
26D0
2460
2460
2460
2460
78B4
ENDCHAR
STARTCHAR Itilde
ENCODING 296
SWIDTH 357 0
DWIDTH 4 0
BBX 4 11 0 0
BITMAP
65
4A
00
6D
18
18
18
18
18
18
6D
ENDCHAR
STARTCHAR itilde
ENCODING 297
SWIDTH 285 0
DWIDTH 3 0
BBX 3 8 0 0
BITMAP
A8
00
74
24
24
24
24
78
ENDCHAR
STARTCHAR Imacron
ENCODING 298
SWIDTH 357 0
DWIDTH 4 0
BBX 4 10 0 0
BITMAP
6A
00
6D
18
18
18
18
18
18
6D
ENDCHAR
STARTCHAR imacron
ENCODING 299
SWIDTH 285 0
DWIDTH 3 0
BBX 3 8 0 0
BITMAP
A8
00
74
24
24
24
24
78
ENDCHAR
STARTCHAR Ibreve
ENCODING 300
SWIDTH 357 0
DWIDTH 4 0
BBX 4 11 0 0
BITMAP
42
29
00
6D
18
18
18
18
18
18
6D
ENDCHAR
STARTCHAR ibreve
ENCODING 301
SWIDTH 285 0
DWIDTH 3 0
BBX 3 9 0 0
BITMAP
44
88
64
74
24
24
24
24
78
ENDCHAR
STARTCHAR Iogonek
ENCODING 302
SWIDTH 357 0
DWIDTH 4 0
BBX 4 11 0 -3
BITMAP
6D
18
18
18
18
18
18
6D
14
20
29
ENDCHAR
STARTCHAR iogonek
ENCODING 303
SWIDTH 285 0
DWIDTH 3 0
BBX 3 12 0 -3
BITMAP
24
10
00
74
24
24
24
24
78
20
50
64
ENDCHAR
STARTCHAR Idotaccent
ENCODING 304
SWIDTH 357 0
DWIDTH 4 0
BBX 4 10 0 0
BITMAP
18
00
6D
18
18
18
18
18
18
6D
ENDCHAR
STARTCHAR dotlessi
ENCODING 305
SWIDTH 285 0
DWIDTH 3 0
BBX 3 6 0 0
BITMAP
74
24
24
24
24
78
ENDCHAR
STARTCHAR IJ
ENCODING 306
SWIDTH 753 0
DWIDTH 9 0
BBX 9 8 0 0
BITMAP
6D1B40
180600
180600
180600
180600
180600
184600
6D6900
ENDCHAR
STARTCHAR ij
ENCODING 307
SWIDTH 548 0
DWIDTH 7 0
BBX 6 11 0 -3
BITMAP
2460
1010
74A0
2460
2460
2460
2460
7860
0060
0450
0680
ENDCHAR
STARTCHAR Jcircumflex
ENCODING 308
SWIDTH 396 0
DWIDTH 5 0
BBX 5 11 0 0
BITMAP
0500
1640
0000
1E40
0900
0900
0900
0900
0900
4900
A800
ENDCHAR
STARTCHAR jcircumflex
ENCODING 309
SWIDTH 263 0
DWIDTH 3 0
BBX 4 11 -1 -3
BITMAP
1D
22
1D
09
09
09
09
09
08
48
A4
ENDCHAR
STARTCHAR Kcommaaccent
ENCODING 310
SWIDTH 702 0
DWIDTH 8 0
BBX 8 12 0 -4
BITMAP
6D2D
1820
1880
1A00
1A40
18D0
1834
6D2E
0000
01C0
0080
0140
ENDCHAR
STARTCHAR kcommaaccent
ENCODING 311
SWIDTH 542 0
DWIDTH 7 0
BBX 7 13 0 -4
BITMAP
7400
2400
2400
25D0
2600
2900
2700
2580
78E4
0000
0700
0200
0100
ENDCHAR
STARTCHAR kgreenlandic
ENCODING 312
SWIDTH 542 0
DWIDTH 7 0
BBX 7 6 0 0
BITMAP
75E0
2540
2900
2A00
2580
78E4
ENDCHAR
STARTCHAR Lacute
ENCODING 313
SWIDTH 585 0
DWIDTH 7 0
BBX 7 11 0 0
BITMAP
0500
0800
0000
6D00
1800
1800
1800
1800
1800
1808
6EA8
ENDCHAR
STARTCHAR lacute
ENCODING 314
SWIDTH 283 0
DWIDTH 3 0
BBX 3 11 0 0
BITMAP
04
24
74
24
24
24
24
24
24
24
78
ENDCHAR
STARTCHAR Lcommaaccent
ENCODING 315
SWIDTH 585 0
DWIDTH 7 0
BBX 7 12 0 -4
BITMAP
6D00
1800
1800
1800
1800
1800
1808
6EA8
0000
0300
0140
0100
ENDCHAR
STARTCHAR lcommaaccent
ENCODING 316
SWIDTH 283 0
DWIDTH 3 0
BBX 3 13 0 -4
BITMAP
74
24
24
24
24
24
24
24
78
00
34
14
10
ENDCHAR
STARTCHAR Lcaron
ENCODING 317
SWIDTH 585 0
DWIDTH 7 0
BBX 7 8 0 0
BITMAP
6D30
1820
1810
1800
1800
1800
1808
6EA8
ENDCHAR
STARTCHAR lcaron
ENCODING 318
SWIDTH 366 0
DWIDTH 4 0
BBX 4 9 0 0
BITMAP
77
26
25
24
24
24
24
24
78
ENDCHAR
STARTCHAR Ldot
ENCODING 319
SWIDTH 605 0
DWIDTH 7 0
BBX 7 8 0 0
BITMAP
6D00
1800
1800
1824
1800
1800
1808
6EA8
ENDCHAR
STARTCHAR ldot
ENCODING 320
SWIDTH 357 0
DWIDTH 4 0
BBX 5 9 0 0
BITMAP
7400
2400
2400
2400
2640
2400
2400
2400
7800
ENDCHAR
STARTCHAR Lslash
ENCODING 321
SWIDTH 590 0
DWIDTH 7 0
BBX 7 8 0 0
BITMAP
2D00
1800
1840
1D00
6800
1800
1808
2EA8
ENDCHAR
STARTCHAR lslash
ENCODING 322
SWIDTH 290 0
DWIDTH 3 0
BBX 3 9 0 0
BITMAP
74
24
24
28
34
64
24
24
78
ENDCHAR
STARTCHAR Nacute
ENCODING 323
SWIDTH 742 0
DWIDTH 9 0
BBX 9 11 0 0
BITMAP
005000
018000
000000
780B40
2E0200
274100
21C100
20A100
202900
200D00
780500
ENDCHAR
STARTCHAR nacute
ENCODING 324
SWIDTH 576 0
DWIDTH 7 0
BBX 7 8 0 0
BITMAP
0180
0200
76D0
2460
2460
2460
2460
78B4
ENDCHAR
STARTCHAR Ncommaaccent
ENCODING 325
SWIDTH 742 0
DWIDTH 9 0
BBX 9 12 0 -4
BITMAP
780B40
2E0200
274100
21C100
20A100
202900
200D00
780500
000000
01C000
008000
004000
ENDCHAR
STARTCHAR ncommaaccent
ENCODING 326
SWIDTH 576 0
DWIDTH 7 0
BBX 7 10 0 -4
BITMAP
76D0
2460
2460
2460
2460
78B4
0000
0700
0200
0100
ENDCHAR
STARTCHAR Ncaron
ENCODING 327
SWIDTH 742 0
DWIDTH 9 0
BBX 9 11 0 0
BITMAP
011000
019000
000000
780B40
2E0200
274100
21C100
20A100
202900
200D00
780500
ENDCHAR
STARTCHAR ncaron
ENCODING 328
SWIDTH 576 0
DWIDTH 7 0
BBX 7 9 0 0
BITMAP
0880
0340
0000
76D0
2460
2460
2460
2460
78B4
ENDCHAR
STARTCHAR napostrophe
ENCODING 329
SWIDTH 576 0
DWIDTH 7 0
BBX 9 9 -2 0
BITMAP
A00000
600000
500000
076D00
024600
024600
024600
024600
078B40
ENDCHAR
STARTCHAR Eng
ENCODING 330
SWIDTH 742 0
DWIDTH 9 0
BBX 9 11 0 -3
BITMAP
780B40
2D0200
274100
21C100
20A100
203900
201D00
780500
000100
004500
00A800
ENDCHAR
STARTCHAR eng
ENCODING 331
SWIDTH 559 0
DWIDTH 7 0
BBX 6 9 0 -3
BITMAP
76D0
2460
2460
2460
2460
7860
0060
0060
0680
ENDCHAR
STARTCHAR Omacron
ENCODING 332
SWIDTH 738 0
DWIDTH 9 0
BBX 9 10 0 0
BITMAP
06A000
000000
0A6400
280A00
300700
700340
700340
300700
280900
0AA400
ENDCHAR
STARTCHAR omacron
ENCODING 333
SWIDTH 514 0
DWIDTH 6 0
BBX 6 8 0 0
BITMAP
1A80
0000
1A80
6090
A060
A060
6090
1A80
ENDCHAR
STARTCHAR Obreve
ENCODING 334
SWIDTH 738 0
DWIDTH 9 0
BBX 9 11 0 0
BITMAP
051000
029000
000000
0A6400
280A00
300700
700340
700340
300700
280900
0AA400
ENDCHAR
STARTCHAR obreve
ENCODING 335
SWIDTH 514 0
DWIDTH 6 0
BBX 6 8 0 0
BITMAP
1040
0A40
1A80
6090
A060
A060
6090
1A80
ENDCHAR
STARTCHAR Ohungarumlaut
ENCODING 336
SWIDTH 738 0
DWIDTH 9 0
BBX 9 11 0 0
BITMAP
009800
016000
000000
0A6400
280A00
300700
700340
700340
300700
280900
0AA400
ENDCHAR
STARTCHAR ohungarumlaut
ENCODING 337
SWIDTH 514 0
DWIDTH 6 0
BBX 6 8 0 0
BITMAP
0690
0940
1A80
6090
A060
A060
6090
1A80
ENDCHAR
STARTCHAR OE
ENCODING 338
SWIDTH 945 0
DWIDTH 11 0
BBX 11 8 0 0
BITMAP
0ABEA8
281804
301810
7019A0
701810
701804
281808
0ABEA8
ENDCHAR
STARTCHAR oe
ENCODING 339
SWIDTH 807 0
DWIDTH 10 0
BBX 9 6 0 0
BITMAP
1A5640
60A0C0
A06580
A06000
60B440
1A5F40
ENDCHAR
STARTCHAR Racute
ENCODING 340
SWIDTH 659 0
DWIDTH 8 0
BBX 8 11 0 0
BITMAP
0140
0200
0000
6DA0
1824
1828
1830
1E80
1890
1834
6D1D
ENDCHAR
STARTCHAR racute
ENCODING 341
SWIDTH 380 0
DWIDTH 5 0
BBX 5 8 0 0
BITMAP
0900
0800
7740
2900
2400
2400
2400
7800
ENDCHAR
STARTCHAR Rcommaaccent
ENCODING 342
SWIDTH 659 0
DWIDTH 8 0
BBX 8 12 0 -4
BITMAP
6DA0
1824
1828
1830
1E80
1890
1834
6D1D
0000
0280
0080
0100
ENDCHAR
STARTCHAR rcommaaccent
ENCODING 343
SWIDTH 380 0
DWIDTH 5 0
BBX 5 10 0 -4
BITMAP
7740
2900
2400
2400
2400
7800
0000
2800
0800
1000
ENDCHAR
STARTCHAR Rcaron
ENCODING 344
SWIDTH 659 0
DWIDTH 8 0
BBX 8 11 0 0
BITMAP
0400
0680
0000
6DA0
1824
1828
1830
1E80
1890
1834
6D1D
ENDCHAR
STARTCHAR rcaron
ENCODING 345
SWIDTH 380 0
DWIDTH 5 0
BBX 5 9 0 0
BITMAP
2200
1C00
0000
7740
2900
2400
2400
2400
7800
ENDCHAR
STARTCHAR Sacute
ENCODING 346
SWIDTH 504 0
DWIDTH 6 0
BBX 6 11 0 0
BITMAP
0100
0900
0000
2AD0
6050
7400
2E00
06C0
40A0
90A0
7A80
ENDCHAR
STARTCHAR sacute
ENCODING 347
SWIDTH 394 0
DWIDTH 5 0
BBX 5 8 0 0
BITMAP
0900
0800
2600
5100
7800
0B00
4240
6600
ENDCHAR
STARTCHAR Scircumflex
ENCODING 348
SWIDTH 504 0
DWIDTH 6 0
BBX 6 11 0 0
BITMAP
0500
1540
0000
2AD0
6050
7400
2E00
06C0
40A0
90A0
7A80
ENDCHAR
STARTCHAR scircumflex
ENCODING 349
SWIDTH 394 0
DWIDTH 5 0
BBX 5 8 0 0
BITMAP
1C00
2200
2600
5100
7800
0B00
4240
6600
ENDCHAR
STARTCHAR uni015E
ENCODING 350
SWIDTH 504 0
DWIDTH 6 0
BBX 6 11 0 -3
BITMAP
2AD0
6050
7400
2E00
06C0
40A0
90A0
7A80
0600
0200
0500
ENDCHAR
STARTCHAR uni015F
ENCODING 351
SWIDTH 394 0
DWIDTH 5 0
BBX 5 9 0 -3
BITMAP
2600
5100
7800
0B00
4240
6A00
0900
0500
1800
ENDCHAR
STARTCHAR Scaron
ENCODING 352
SWIDTH 504 0
DWIDTH 6 0
BBX 6 11 0 0
BITMAP
1040
0A00
0000
2AD0
6050
7400
2E00
06C0
40A0
90A0
7A80
ENDCHAR
STARTCHAR scaron
ENCODING 353
SWIDTH 394 0
DWIDTH 5 0
BBX 5 9 0 0
BITMAP
2200
1C00
0000
2600
5100
7800
0B00
4240
6600
ENDCHAR
STARTCHAR uni0162
ENCODING 354
SWIDTH 603 0
DWIDTH 7 0
BBX 7 11 0 -3
BITMAP
ABAC
8348
0340
0340
0340
0340
0340
0780
0240
0080
0240
ENDCHAR
STARTCHAR uni0163
ENCODING 355
SWIDTH 315 0
DWIDTH 4 0
BBX 4 11 0 -3
BITMAP
10
20
79
30
30
30
30
2D
18
05
18
ENDCHAR
STARTCHAR Tcaron
ENCODING 356
SWIDTH 603 0
DWIDTH 7 0
BBX 7 11 0 0
BITMAP
0440
0640
0000
ABAC
8348
0340
0340
0340
0340
0340
0780
ENDCHAR
STARTCHAR tcaron
ENCODING 357
SWIDTH 353 0
DWIDTH 4 0
BBX 4 9 0 0
BITMAP
03
12
21
79
30
30
30
30
29
ENDCHAR
STARTCHAR Tbar
ENCODING 358
SWIDTH 603 0
DWIDTH 7 0
BBX 7 8 0 0
BITMAP
ABAC
4344
0340
1790
0340
0340
0340
0780
ENDCHAR
STARTCHAR tbar
ENCODING 359
SWIDTH 328 0
DWIDTH 4 0
BBX 4 7 0 0
BITMAP
20
79
30
79
30
30
29
ENDCHAR
STARTCHAR Utilde
ENCODING 360
SWIDTH 752 0
DWIDTH 9 0
BBX 9 11 0 0
BITMAP
019400
016400
000000
7D0B40
280200
280200
280200
280200
280200
1C0500
06A400
ENDCHAR
STARTCHAR utilde
ENCODING 361
SWIDTH 570 0
DWIDTH 7 0
BBX 7 9 0 0
BITMAP
0940
1280
0000
70A0
3060
3060
3060
3460
1EA4
ENDCHAR
STARTCHAR Umacron
ENCODING 362
SWIDTH 752 0
DWIDTH 9 0
BBX 9 10 0 0
BITMAP
02A400
000000
7D0B40
280200
280200
280200
280200
280200
1C0500
06A400
ENDCHAR
STARTCHAR umacron
ENCODING 363
SWIDTH 570 0
DWIDTH 7 0
BBX 7 8 0 0
BITMAP
1A80
0000
70A0
3060
3060
3060
3460
1EA4
ENDCHAR
STARTCHAR Ubreve
ENCODING 364
SWIDTH 752 0
DWIDTH 9 0
BBX 9 11 0 0
BITMAP
020400
01A000
000000
7D0B40
280200
280200
280200
280200
280200
1C0500
06A400
ENDCHAR
STARTCHAR ubreve
ENCODING 365
SWIDTH 570 0
DWIDTH 7 0
BBX 7 8 0 0
BITMAP
1080
0A40
70A0
3060
3060
3060
3460
1EA4
ENDCHAR
STARTCHAR Uring
ENCODING 366
SWIDTH 752 0
DWIDTH 9 0
BBX 9 11 0 0
BITMAP
005000
012000
005000
7D0B40
280200
280200
280200
280200
280200
1C0500
06A400
ENDCHAR
STARTCHAR uring
ENCODING 367
SWIDTH 570 0
DWIDTH 7 0
BBX 7 9 0 0
BITMAP
0600
0840
0600
70A0
3060
3060
3060
3460
1EA4
ENDCHAR
STARTCHAR Uhungarumlaut
ENCODING 368
SWIDTH 752 0
DWIDTH 9 0
BBX 9 11 0 0
BITMAP
005800
009400
000000
7D0B40
280200
280200
280200
280200
280200
1C0500
06A400
ENDCHAR
STARTCHAR uhungarumlaut
ENCODING 369
SWIDTH 570 0
DWIDTH 7 0
BBX 7 8 0 0
BITMAP
0690
0980
70A0
3060
3060
3060
3460
1EA4
ENDCHAR
STARTCHAR Uogonek
ENCODING 370
SWIDTH 753 0
DWIDTH 9 0
BBX 9 11 0 -3
BITMAP
7D0B40
280200
280200
280200
280200
280200
1C0500
06BC00
005000
008000
00A400
ENDCHAR
STARTCHAR uogonek
ENCODING 371
SWIDTH 570 0
DWIDTH 7 0
BBX 7 9 0 -3
BITMAP
70A0
3060
3060
3060
24A0
1E64
0080
0140
0190
ENDCHAR
STARTCHAR Wcircumflex
ENCODING 372
SWIDTH 944 0
DWIDTH 11 0
BBX 11 11 0 0
BITMAP
001000
009800
000000
B8B828
342414
182820
0C2C20
0A5A50
078780
038340
014200
ENDCHAR
STARTCHAR wcircumflex
ENCODING 373
SWIDTH 749 0
DWIDTH 9 0
BBX 9 8 0 0
BITMAP
01D000
022000
B1D280
309100
24A200
197500
0E2800
091800
ENDCHAR
STARTCHAR Ycircumflex
ENCODING 374
SWIDTH 647 0
DWIDTH 8 0
BBX 8 11 0 0
BITMAP
0140
0650
0000
B81D
2814
0D20
0780
0280
0240
0240
0790
ENDCHAR
STARTCHAR ycircumflex
ENCODING 375
SWIDTH 483 0
DWIDTH 6 0
BBX 6 11 0 -3
BITMAP
0A00
1540
B0A0
3080
2480
1940
0A00
0500
0400
0800
A000
ENDCHAR
STARTCHAR Ydieresis
ENCODING 376
SWIDTH 647 0
DWIDTH 8 0
BBX 8 10 0 0
BITMAP
0930
0010
B81D
2814
0D20
0780
0280
0240
0240
0790
ENDCHAR
STARTCHAR Zacute
ENCODING 377
SWIDTH 594 0
DWIDTH 7 0
BBX 7 11 0 0
BITMAP
0040
0200
0000
7AB8
5070
00D0
0280
0700
1D00
2408
BAA8
ENDCHAR
STARTCHAR zacute
ENCODING 378
SWIDTH 458 0
DWIDTH 6 0
BBX 5 8 0 0
BITMAP
0300
0900
6AC0
4340
0A00
1C00
3440
7AC0
ENDCHAR
STARTCHAR Zdotaccent
ENCODING 379
SWIDTH 594 0
DWIDTH 7 0
BBX 7 10 0 0
BITMAP
0240
0000
7AB8
5070
00D0
0280
0700
1D00
2408
BAA8
ENDCHAR
STARTCHAR zdotaccent
ENCODING 380
SWIDTH 458 0
DWIDTH 6 0
BBX 5 8 0 0
BITMAP
0900
0000
6AC0
4340
0A00
1C00
3440
7AC0
ENDCHAR
STARTCHAR Zcaron
ENCODING 381
SWIDTH 594 0
DWIDTH 7 0
BBX 7 11 0 0
BITMAP
0400
0680
0000
7AB8
5070
00D0
0280
0700
1D00
2408
BAA8
ENDCHAR
STARTCHAR zcaron
ENCODING 382
SWIDTH 458 0
DWIDTH 6 0
BBX 5 9 0 0
BITMAP
1540
0A00
0000
6AC0
4340
0A00
1C00
3440
7AC0
ENDCHAR
STARTCHAR longs
ENCODING 383
SWIDTH 285 0
DWIDTH 3 0
BBX 5 9 0 0
BITMAP
0A40
2400
2400
7400
2400
2400
2400
2400
7800
ENDCHAR
STARTCHAR uni0180
ENCODING 384
SWIDTH 522 0
DWIDTH 6 0
BBX 6 9 0 0
BITMAP
B000
3000
7500
3680
34A0
3060
3060
3090
2980
ENDCHAR
STARTCHAR uni0188
ENCODING 392
SWIDTH 446 0
DWIDTH 5 0
BBX 7 8 0 0
BITMAP
0064
0040
1680
6080
9000
9000
7040
2E40
ENDCHAR
STARTCHAR uni0190
ENCODING 400
SWIDTH 518 0
DWIDTH 6 0
BBX 6 8 0 0
BITMAP
2A90
6050
3000
1E40
3000
6000
7010
2E80
ENDCHAR
STARTCHAR uni0192
ENCODING 402
SWIDTH 301 0
DWIDTH 4 0
BBX 6 12 -1 -3
BITMAP
0290
0900
0900
1E40
0900
0900
0900
0900
0900
0800
4800
A400
ENDCHAR
STARTCHAR uni0195
ENCODING 405
SWIDTH 798 0
DWIDTH 10 0
BBX 9 9 0 0
BITMAP
740000
240000
240000
26D240
24A080
246080
246040
246040
782A00
ENDCHAR
STARTCHAR uni0199
ENCODING 409
SWIDTH 538 0
DWIDTH 6 0
BBX 6 9 0 0
BITMAP
0680
2040
2000
31D0
3200
3900
3700
3180
78E0
ENDCHAR
STARTCHAR uni019A
ENCODING 410
SWIDTH 287 0
DWIDTH 3 0
BBX 3 9 0 0
BITMAP
74
24
24
24
78
24
24
24
78
ENDCHAR
STARTCHAR uni019B
ENCODING 411
SWIDTH 495 0
DWIDTH 6 0
BBX 6 9 0 0
BITMAP
7400
0900
1500
0600
0A00
0C40
2880
3040
B0A0
ENDCHAR
STARTCHAR uni019E
ENCODING 414
SWIDTH 559 0
DWIDTH 7 0
BBX 7 9 0 -3
BITMAP
76D0
2460
2460
2460
2460
7860
0060
0060
0074
ENDCHAR
STARTCHAR Ohorn
ENCODING 416
SWIDTH 737 0
DWIDTH 9 0
BBX 9 10 0 0
BITMAP
000240
000140
0AAD00
280A00
300700
700340
700340
300700
280900
0AA400
ENDCHAR
STARTCHAR ohorn
ENCODING 417
SWIDTH 516 0
DWIDTH 6 0
BBX 6 8 0 0
BITMAP
0020
0020
1AD0
6090
A060
A060
6090
1A80
ENDCHAR
STARTCHAR uni01A5
ENCODING 421
SWIDTH 522 0
DWIDTH 6 0
BBX 6 12 0 -3
BITMAP
1640
2040
3000
3780
34A0
3060
3060
3050
3980
3000
3000
7400
ENDCHAR
STARTCHAR uni01AA
ENCODING 426
SWIDTH 298 0
DWIDTH 4 0
BBX 6 12 -1 -3
BITMAP
5800
4900
4600
1A00
0600
0600
0600
0600
0600
0600
0610
02A0
ENDCHAR
STARTCHAR uni01AB
ENCODING 427
SWIDTH 321 0
DWIDTH 4 0
BBX 4 11 0 -3
BITMAP
10
20
79
30
30
30
30
2A
02
01
29
ENDCHAR
STARTCHAR uni01AD
ENCODING 429
SWIDTH 315 0
DWIDTH 4 0
BBX 5 9 0 0
BITMAP
0A80
2040
3000
7900
3000
3000
3000
3000
2900
ENDCHAR
STARTCHAR Uhorn
ENCODING 431
SWIDTH 762 0
DWIDTH 9 0
BBX 10 11 0 0
BITMAP
000010
000060
000010
7D0B00
280200
280200
280200
280200
280200
1C0500
06A400
ENDCHAR
STARTCHAR uhorn
ENCODING 432
SWIDTH 574 0
DWIDTH 7 0
BBX 7 8 0 0
BITMAP
0008
0008
70A0
3060
3060
3060
3460
1EA4
ENDCHAR
STARTCHAR uni01B5
ENCODING 437
SWIDTH 594 0
DWIDTH 7 0
BBX 7 8 0 0
BITMAP
7AB8
5060
01C0
1B90
0A00
1C00
3408
BAA8
ENDCHAR
STARTCHAR uni01BA
ENCODING 442
SWIDTH 430 0
DWIDTH 5 0
BBX 5 9 0 -3
BITMAP
AB40
4A00
1800
1A40
0180
0240
1900
4100
6A00
ENDCHAR
STARTCHAR uni01BB
ENCODING 443
SWIDTH 508 0
DWIDTH 6 0
BBX 6 9 0 0
BITMAP
1B40
51C0
00D0
00C0
6A90
0600
0800
2010
7FD0
ENDCHAR
STARTCHAR uni01BE
ENCODING 446
SWIDTH 406 0
DWIDTH 5 0
BBX 5 7 0 0
BITMAP
2400
7900
2900
0340
0240
4240
6600
ENDCHAR
STARTCHAR uni01C0
ENCODING 448
SWIDTH 250 0
DWIDTH 3 0
BBX 1 9 1 0
BITMAP
C0
C0
C0
C0
C0
C0
C0
C0
C0
ENDCHAR
STARTCHAR uni01C1
ENCODING 449
SWIDTH 423 0
DWIDTH 5 0
BBX 3 9 1 0
BITMAP
CC
CC
CC
CC
CC
CC
CC
CC
CC
ENDCHAR
STARTCHAR uni01C2
ENCODING 450
SWIDTH 422 0
DWIDTH 5 0
BBX 5 9 0 0
BITMAP
0C00
0C00
0C00
6E40
0C00
6E40
0C00
0C00
0C00
ENDCHAR
STARTCHAR uni01C3
ENCODING 451
SWIDTH 245 0
DWIDTH 3 0
BBX 1 9 1 0
BITMAP
C0
C0
C0
C0
80
80
40
40
C0
ENDCHAR
STARTCHAR uni01DE
ENCODING 478
SWIDTH 718 0
DWIDTH 9 0
BBX 9 11 0 0
BITMAP
06A000
093000
001000
018000
02C000
02A000
057000
083400
1AAC00
200D00
B41F40
ENDCHAR
STARTCHAR uni01DF
ENCODING 479
SWIDTH 480 0
DWIDTH 6 0
BBX 6 10 0 0
BITMAP
2A40
0000
3180
0000
2640
6180
0680
2580
6180
79D0
ENDCHAR
STARTCHAR uni01F0
ENCODING 496
SWIDTH 263 0
DWIDTH 3 0
BBX 4 12 -1 -3
BITMAP
22
1D
00
1D
09
09
09
09
09
08
48
A4
ENDCHAR
STARTCHAR Aringacute
ENCODING 506
SWIDTH 718 0
DWIDTH 9 0
BBX 9 13 0 0
BITMAP
005000
014000
018000
021000
018000
018000
02C000
02A000
057000
083400
1AAC00
200D00
B41F40
ENDCHAR
STARTCHAR aringacute
ENCODING 507
SWIDTH 480 0
DWIDTH 6 0
BBX 6 11 0 0
BITMAP
0100
0800
0900
1200
0900
2640
6180
0680
2580
6180
79D0
ENDCHAR
STARTCHAR AEacute
ENCODING 508
SWIDTH 894 0
DWIDTH 11 0
BBX 11 11 0 0
BITMAP
000500
000800
000000
01FAB0
017010
023040
053080
0ABAC0
143004
203014
A0BAB0
ENDCHAR
STARTCHAR aeacute
ENCODING 509
SWIDTH 709 0
DWIDTH 9 0
BBX 8 8 0 0
BITMAP
00C0
0200
2659
6287
0696
2580
A1C1
79B9
ENDCHAR
STARTCHAR Oslashacute
ENCODING 510
SWIDTH 737 0
DWIDTH 9 0
BBX 9 11 0 0
BITMAP
005000
018000
000000
0AA900
280D00
302700
704340
714340
750700
280900
2AA400
ENDCHAR
STARTCHAR oslashacute
ENCODING 511
SWIDTH 514 0
DWIDTH 6 0
BBX 6 8 0 0
BITMAP
0300
0900
1A80
6190
A160
A860
7090
6A80
ENDCHAR
STARTCHAR uni0218
ENCODING 536
SWIDTH 504 0
DWIDTH 6 0
BBX 6 12 0 -4
BITMAP
2AD0
6050
7400
2E00
06C0
40A0
90A0
7A80
0000
0A00
0200
0400
ENDCHAR
STARTCHAR uni0219
ENCODING 537
SWIDTH 394 0
DWIDTH 5 0
BBX 5 10 0 -4
BITMAP
2600
5100
7800
0B00
4240
6600
0000
1C00
0800
0400
ENDCHAR
STARTCHAR uni021A
ENCODING 538
SWIDTH 603 0
DWIDTH 7 0
BBX 7 12 0 -4
BITMAP
ABAC
8348
0340
0340
0340
0340
0340
0780
0000
0340
0140
0100
ENDCHAR
STARTCHAR uni021B
ENCODING 539
SWIDTH 315 0
DWIDTH 4 0
BBX 4 12 0 -4
BITMAP
10
20
79
30
30
30
30
29
00
18
08
14
ENDCHAR
STARTCHAR uni0221
ENCODING 545
SWIDTH 674 0
DWIDTH 8 0
BBX 8 11 0 -2
BITMAP
0190
0090
0090
1AD0
6090
9090
A090
7095
2E65
0010
0040
ENDCHAR
STARTCHAR uni0228
ENCODING 552
SWIDTH 626 0
DWIDTH 8 0
BBX 7 11 0 -3
BITMAP
6EA8
1804
1810
1DA0
1810
1800
1808
6EAC
0180
0080
0140
ENDCHAR
STARTCHAR uni0229
ENCODING 553
SWIDTH 464 0
DWIDTH 6 0
BBX 5 9 0 -3
BITMAP
1A40
60C0
A580
9000
7040
1F40
0600
0200
0500
ENDCHAR
STARTCHAR uni0234
ENCODING 564
SWIDTH 399 0
DWIDTH 5 0
BBX 5 11 0 -2
BITMAP
7000
3000
3000
3000
3000
3000
3000
3140
2940
1000
1000
ENDCHAR
STARTCHAR uni0235
ENCODING 565
SWIDTH 702 0
DWIDTH 8 0
BBX 9 8 0 -2
BITMAP
76D000
246000
246000
246000
246540
782940
001000
001000
ENDCHAR
STARTCHAR uni0236
ENCODING 566
SWIDTH 406 0
DWIDTH 5 0
BBX 5 10 0 -2
BITMAP
1000
2000
7900
3000
3000
3000
3140
2940
1400
1000
ENDCHAR
STARTCHAR uni0237
ENCODING 567
SWIDTH 263 0
DWIDTH 3 0
BBX 4 9 -1 -3
BITMAP
1D
09
09
09
09
09
08
48
A4
ENDCHAR
STARTCHAR uni0250
ENCODING 592
SWIDTH 475 0
DWIDTH 6 0
BBX 6 6 0 0
BITMAP
B680
30D0
3180
3500
3080
1940
ENDCHAR
STARTCHAR uni0251
ENCODING 593
SWIDTH 542 0
DWIDTH 7 0
BBX 6 6 0 0
BITMAP
1A90
6090
9090
9090
6090
2EA0
ENDCHAR
STARTCHAR uni0252
ENCODING 594
SWIDTH 544 0
DWIDTH 7 0
BBX 6 6 0 0
BITMAP
7AD0
2470
2430
2430
2460
2980
ENDCHAR
STARTCHAR uni0253
ENCODING 595
SWIDTH 518 0
DWIDTH 6 0
BBX 5 9 1 0
BITMAP
5900
8100
C000
DE00
C280
C180
C180
C240
A500
ENDCHAR
STARTCHAR uni0254
ENCODING 596
SWIDTH 454 0
DWIDTH 5 0
BBX 5 6 0 0
BITMAP
2E00
4280
00C0
00C0
5080
6600
ENDCHAR
STARTCHAR uni0255
ENCODING 597
SWIDTH 447 0
DWIDTH 5 0
BBX 5 8 0 -2
BITMAP
1680
6040
9000
A140
7880
2E40
1000
1000
ENDCHAR
STARTCHAR uni0256
ENCODING 598
SWIDTH 528 0
DWIDTH 6 0
BBX 8 12 0 -3
BITMAP
01D0
0090
0090
1AD0
6090
9090
A090
6090
2E90
0090
0051
0029
ENDCHAR
STARTCHAR uni0257
ENCODING 599
SWIDTH 542 0
DWIDTH 7 0
BBX 8 9 0 0
BITMAP
002A
0051
0090
1AD0
6090
9090
A090
6090
2EA0
ENDCHAR
STARTCHAR uni0258
ENCODING 600
SWIDTH 466 0
DWIDTH 6 0
BBX 5 6 0 0
BITMAP
2A40
6080
65C0
00C0
41C0
2E40
ENDCHAR
STARTCHAR uni0259
ENCODING 601
SWIDTH 464 0
DWIDTH 6 0
BBX 5 6 0 0
BITMAP
2E40
41C0
00C0
65C0
6080
2A40
ENDCHAR
STARTCHAR uni025A
ENCODING 602
SWIDTH 642 0
DWIDTH 8 0
BBX 8 6 0 0
BITMAP
2E00
41A5
00D9
65C0
6080
2A40
ENDCHAR
STARTCHAR uni025B
ENCODING 603
SWIDTH 399 0
DWIDTH 5 0
BBX 5 6 0 0
BITMAP
2640
6000
2900
6000
A000
2A00
ENDCHAR
STARTCHAR uni025C
ENCODING 604
SWIDTH 398 0
DWIDTH 5 0
BBX 5 6 0 0
BITMAP
6600
0200
1900
0200
0240
6A00
ENDCHAR
STARTCHAR uni025D
ENCODING 605
SWIDTH 575 0
DWIDTH 7 0
BBX 7 6 0 0
BITMAP
6600
4294
1A24
0200
0240
6A00
ENDCHAR
STARTCHAR uni025E
ENCODING 606
SWIDTH 500 0
DWIDTH 6 0
BBX 6 6 0 0
BITMAP
1980
6090
9680
9090
60A0
1A80
ENDCHAR
STARTCHAR uni025F
ENCODING 607
SWIDTH 272 0
DWIDTH 3 0
BBX 4 9 -1 -3
BITMAP
1D
09
09
1E
09
09
09
48
A4
ENDCHAR
STARTCHAR uni0260
ENCODING 608
SWIDTH 541 0
DWIDTH 6 0
BBX 8 12 0 -3
BITMAP
001A
0051
0090
1AD0
6090
9090
A090
7090
2E90
0090
1080
2A40
ENDCHAR
STARTCHAR uni0261
ENCODING 609
SWIDTH 521 0
DWIDTH 6 0
BBX 6 9 0 -3
BITMAP
1A90
6090
9090
A090
7090
2E90
0090
1080
2A40
ENDCHAR
STARTCHAR uni0262
ENCODING 610
SWIDTH 535 0
DWIDTH 6 0
BBX 6 6 0 0
BITMAP
19A0
6020
A000
A0A0
7060
1990
ENDCHAR
STARTCHAR uni0263
ENCODING 611
SWIDTH 479 0
DWIDTH 6 0
BBX 6 9 0 -3
BITMAP
B0A0
3080
2480
1940
0E00
0A00
0A00
0700
0A00
ENDCHAR
STARTCHAR uni0264
ENCODING 612
SWIDTH 466 0
DWIDTH 6 0
BBX 6 6 0 0
BITMAP
A990
4A50
1200
1240
1240
1600
ENDCHAR
STARTCHAR uni0265
ENCODING 613
SWIDTH 553 0
DWIDTH 7 0
BBX 7 9 0 -3
BITMAP
70A0
3060
3060
3060
2460
1E60
0060
0060
0074
ENDCHAR
STARTCHAR uni0266
ENCODING 614
SWIDTH 577 0
DWIDTH 7 0
BBX 7 9 0 0
BITMAP
0680
2440
2400
26D0
2460
2460
2460
2460
78B4
ENDCHAR
STARTCHAR uni0267
ENCODING 615
SWIDTH 562 0
DWIDTH 7 0
BBX 6 12 0 -3
BITMAP
0A80
2440
2400
26D0
2460
2460
2460
2460
7860
0060
0060
0680
ENDCHAR
STARTCHAR uni0268
ENCODING 616
SWIDTH 295 0
DWIDTH 4 0
BBX 3 9 0 0
BITMAP
24
10
00
74
24
78
24
24
78
ENDCHAR
STARTCHAR uni0269
ENCODING 617
SWIDTH 286 0
DWIDTH 3 0
BBX 4 6 0 0
BITMAP
70
30
30
30
30
29
ENDCHAR
STARTCHAR uni026A
ENCODING 618
SWIDTH 287 0
DWIDTH 3 0
BBX 3 6 0 0
BITMAP
78
24
24
24
24
78
ENDCHAR
STARTCHAR uni026B
ENCODING 619
SWIDTH 290 0
DWIDTH 3 0
BBX 4 9 0 0
BITMAP
74
24
24
24
B9
24
24
24
78
ENDCHAR
STARTCHAR uni026C
ENCODING 620
SWIDTH 318 0
DWIDTH 4 0
BBX 4 9 0 0
BITMAP
28
18
18
A8
99
A9
18
18
29
ENDCHAR
STARTCHAR uni026D
ENCODING 621
SWIDTH 248 0
DWIDTH 3 0
BBX 4 12 0 -3
BITMAP
70
30
30
30
30
30
30
30
30
30
31
1B
ENDCHAR
STARTCHAR uni026E
ENCODING 622
SWIDTH 590 0
DWIDTH 7 0
BBX 7 12 0 -3
BITMAP
7400
2400
2400
2AB8
2470
24D0
2680
2464
7818
001C
0818
0A50
ENDCHAR
STARTCHAR uni026F
ENCODING 623
SWIDTH 846 0
DWIDTH 10 0
BBX 10 6 0 0
BITMAP
7091C0
30A0C0
30A0C0
30A0C0
34A1C0
1A79D0
ENDCHAR
STARTCHAR uni0270
ENCODING 624
SWIDTH 826 0
DWIDTH 10 0
BBX 10 9 0 -3
BITMAP
7091C0
30A0C0
30A0C0
30A0C0
34A1C0
1E79C0
0000C0
0000C0
0000D0
ENDCHAR
STARTCHAR uni0271
ENCODING 625
SWIDTH 835 0
DWIDTH 10 0
BBX 9 9 0 -3
BITMAP
76DB80
2460C0
2460C0
2460C0
2460C0
78B4C0
0000C0
0004C0
000E40
ENDCHAR
STARTCHAR uni0272
ENCODING 626
SWIDTH 574 0
DWIDTH 7 0
BBX 8 9 -1 -3
BITMAP
1DB4
0918
0918
0918
0918
092D
0800
4800
A400
ENDCHAR
STARTCHAR uni0273
ENCODING 627
SWIDTH 563 0
DWIDTH 7 0
BBX 8 9 0 -3
BITMAP
76D0
2460
2460
2460
2460
7860
0060
0021
001A
ENDCHAR
STARTCHAR uni0274
ENCODING 628
SWIDTH 568 0
DWIDTH 7 0
BBX 7 6 0 0
BITMAP
7474
2C20
2610
2290
20A0
7420
ENDCHAR
STARTCHAR uni0275
ENCODING 629
SWIDTH 514 0
DWIDTH 6 0
BBX 6 6 0 0
BITMAP
1980
6090
A5A0
A060
7090
1A80
ENDCHAR
STARTCHAR uni0276
ENCODING 630
SWIDTH 732 0
DWIDTH 9 0
BBX 9 6 0 0
BITMAP
1AEB00
70C100
A0E900
A0C100
60C040
15E640
ENDCHAR
STARTCHAR uni0277
ENCODING 631
SWIDTH 672 0
DWIDTH 8 0
BBX 8 6 0 0
BITMAP
0964
2008
618A
A286
6149
2968
ENDCHAR
STARTCHAR uni0278
ENCODING 632
SWIDTH 658 0
DWIDTH 8 0
BBX 8 12 0 -3
BITMAP
0640
0240
0240
1AA4
724C
A249
A249
724C
1AA4
0240
0240
0280
ENDCHAR
STARTCHAR uni0279
ENCODING 633
SWIDTH 380 0
DWIDTH 5 0
BBX 4 6 0 0
BITMAP
1E
09
09
09
4D
AA
ENDCHAR
STARTCHAR uni027A
ENCODING 634
SWIDTH 374 0
DWIDTH 4 0
BBX 4 9 0 0
BITMAP
19
09
09
09
09
09
09
4D
AA
ENDCHAR
STARTCHAR uni027B
ENCODING 635
SWIDTH 375 0
DWIDTH 5 0
BBX 6 9 0 -3
BITMAP
1E00
0900
0900
0900
4D00
A900
0900
0510
0290
ENDCHAR
STARTCHAR uni027C
ENCODING 636
SWIDTH 378 0
DWIDTH 5 0
BBX 5 9 0 -3
BITMAP
7740
2500
2400
2400
2400
2400
2400
2400
7800
ENDCHAR
STARTCHAR uni027D
ENCODING 637
SWIDTH 373 0
DWIDTH 4 0
BBX 5 9 0 -3
BITMAP
7740
3400
3000
3000
3000
3000
2000
2500
1A40
ENDCHAR
STARTCHAR uni027E
ENCODING 638
SWIDTH 371 0
DWIDTH 4 0
BBX 5 6 0 0
BITMAP
1640
2400
2000
3000
3000
7800
ENDCHAR
STARTCHAR uni027F
ENCODING 639
SWIDTH 371 0
DWIDTH 4 0
BBX 4 6 0 0
BITMAP
A4
08
09
09
09
1E
ENDCHAR
STARTCHAR uni0280
ENCODING 640
SWIDTH 494 0
DWIDTH 6 0
BBX 6 6 0 0
BITMAP
7A40
24C0
24C0
2A00
2640
78E0
ENDCHAR
STARTCHAR uni0281
ENCODING 641
SWIDTH 494 0
DWIDTH 6 0
BBX 6 6 0 0
BITMAP
78E0
2640
2A00
24C0
24C0
7A40
ENDCHAR
STARTCHAR uni0282
ENCODING 642
SWIDTH 395 0
DWIDTH 5 0
BBX 5 9 0 -3
BITMAP
2600
5100
7800
0B00
4240
A600
8000
4000
2800
ENDCHAR
STARTCHAR uni0283
ENCODING 643
SWIDTH 253 0
DWIDTH 3 0
BBX 6 12 -1 -3
BITMAP
05D0
0840
0C00
0C00
0C00
0C00
0C00
0C00
0C00
0C00
4C00
A400
ENDCHAR
STARTCHAR uni0284
ENCODING 644
SWIDTH 286 0
DWIDTH 3 0
BBX 6 12 -1 -3
BITMAP
0290
0900
0900
0900
0900
0900
0900
0900
1E00
0800
0800
9400
ENDCHAR
STARTCHAR uni0285
ENCODING 645
SWIDTH 361 0
DWIDTH 4 0
BBX 6 9 0 -3
BITMAP
A400
4800
0900
0900
0900
0900
0900
0910
0290
ENDCHAR
STARTCHAR uni0286
ENCODING 646
SWIDTH 253 0
DWIDTH 3 0
BBX 6 12 -1 -3
BITMAP
06D0
0840
0C00
0C00
0C00
0C00
0C00
0C00
0C00
6C00
8D00
A400
ENDCHAR
STARTCHAR uni0287
ENCODING 647
SWIDTH 315 0
DWIDTH 4 0
BBX 3 7 0 -1
BITMAP
74
18
18
18
18
6C
18
ENDCHAR
STARTCHAR uni0288
ENCODING 648
SWIDTH 309 0
DWIDTH 4 0
BBX 5 10 0 -3
BITMAP
2000
7900
3000
3000
3000
3000
3000
2000
2500
1A40
ENDCHAR
STARTCHAR uni0289
ENCODING 649
SWIDTH 580 0
DWIDTH 7 0
BBX 7 6 0 0
BITMAP
70A0
3060
79A4
3060
2460
1E74
ENDCHAR
STARTCHAR uni028A
ENCODING 650
SWIDTH 548 0
DWIDTH 7 0
BBX 6 6 0 0
BITMAP
24D0
2050
6030
6030
6070
1980
ENDCHAR
STARTCHAR uni028B
ENCODING 651
SWIDTH 530 0
DWIDTH 6 0
BBX 6 6 0 0
BITMAP
7090
3060
3020
3010
2410
1E40
ENDCHAR
STARTCHAR uni028C
ENCODING 652
SWIDTH 495 0
DWIDTH 6 0
BBX 6 6 0 0
BITMAP
0900
0A00
1740
2280
20C0
A1E0
ENDCHAR
STARTCHAR uni028D
ENCODING 653
SWIDTH 764 0
DWIDTH 9 0
BBX 9 6 0 0
BITMAP
091800
0A2C00
171900
228600
21C340
A1D280
ENDCHAR
STARTCHAR uni028E
ENCODING 654
SWIDTH 492 0
DWIDTH 6 0
BBX 6 9 0 0
BITMAP
01E0
0200
0500
0900
0A00
1700
2280
20C0
A1E0
ENDCHAR
STARTCHAR uni028F
ENCODING 655
SWIDTH 454 0
DWIDTH 5 0
BBX 6 6 0 0
BITMAP
A090
3040
1900
0900
0900
1E00
ENDCHAR
STARTCHAR uni0290
ENCODING 656
SWIDTH 458 0
DWIDTH 6 0
BBX 7 9 0 -3
BITMAP
6AC0
4340
0A00
1C00
3440
7AC0
0080
0040
0028
ENDCHAR
STARTCHAR uni0291
ENCODING 657
SWIDTH 458 0
DWIDTH 6 0
BBX 6 8 0 -2
BITMAP
6AC0
4340
0A00
1C00
3540
7A90
0400
1000
ENDCHAR
STARTCHAR uni0292
ENCODING 658
SWIDTH 443 0
DWIDTH 5 0
BBX 5 9 0 -3
BITMAP
AA80
4340
0A00
1C00
0640
01C0
00C0
4180
6600
ENDCHAR
STARTCHAR uni0293
ENCODING 659
SWIDTH 443 0
DWIDTH 5 0
BBX 5 11 0 -5
BITMAP
AA80
4340
0900
1C00
0640
01C0
60C0
8580
2A00
0200
0140
ENDCHAR
STARTCHAR uni0294
ENCODING 660
SWIDTH 383 0
DWIDTH 5 0
BBX 5 9 0 0
BITMAP
6600
9240
0280
0240
0900
2400
2400
2400
7800
ENDCHAR
STARTCHAR uni0295
ENCODING 661
SWIDTH 383 0
DWIDTH 5 0
BBX 5 9 0 0
BITMAP
6600
9240
C000
9000
2400
0900
0900
0900
1E00
ENDCHAR
STARTCHAR uni0296
ENCODING 662
SWIDTH 408 0
DWIDTH 5 0
BBX 5 9 0 0
BITMAP
6400
2400
2400
2400
0900
0240
0280
9240
6600
ENDCHAR
STARTCHAR uni0297
ENCODING 663
SWIDTH 437 0
DWIDTH 5 0
BBX 5 8 0 -2
BITMAP
1A40
2080
5000
9000
9000
6000
3040
1E40
ENDCHAR
STARTCHAR uni0298
ENCODING 664
SWIDTH 736 0
DWIDTH 9 0
BBX 9 9 0 0
BITMAP
056400
240900
700300
A00240
A1C240
A04240
600300
240900
056400
ENDCHAR
STARTCHAR uni0299
ENCODING 665
SWIDTH 485 0
DWIDTH 6 0
BBX 6 6 0 0
BITMAP
7A80
24C0
2A40
2480
2490
7980
ENDCHAR
STARTCHAR uni029A
ENCODING 666
SWIDTH 500 0
DWIDTH 6 0
BBX 6 6 0 0
BITMAP
2640
6090
2960
6060
A090
2A40
ENDCHAR
STARTCHAR uni029B
ENCODING 667
SWIDTH 536 0
DWIDTH 6 0
BBX 8 8 0 0
BITMAP
0019
0020
19A0
6020
A000
A0A0
7060
1990
ENDCHAR
STARTCHAR uni029C
ENCODING 668
SWIDTH 599 0
DWIDTH 7 0
BBX 7 6 0 0
BITMAP
7874
2430
2970
2430
2430
7874
ENDCHAR
STARTCHAR uni029D
ENCODING 669
SWIDTH 263 0
DWIDTH 3 0
BBX 4 11 -1 -3
BITMAP
0D
04
1D
09
09
09
09
09
5D
8D
64
ENDCHAR
STARTCHAR uni029E
ENCODING 670
SWIDTH 542 0
DWIDTH 7 0
BBX 6 9 0 -3
BITMAP
75E0
1C90
0A90
0290
0590
6890
0090
0090
00A0
ENDCHAR
STARTCHAR uni029F
ENCODING 671
SWIDTH 440 0
DWIDTH 5 0
BBX 5 6 0 0
BITMAP
7800
3000
3000
3000
3040
7580
ENDCHAR
STARTCHAR uni02A0
ENCODING 672
SWIDTH 541 0
DWIDTH 6 0
BBX 8 12 0 -3
BITMAP
002A
0051
0090
1AD0
6090
9090
A090
7090
2E90
0090
0090
01E0
ENDCHAR
STARTCHAR uni02A1
ENCODING 673
SWIDTH 393 0
DWIDTH 5 0
BBX 5 9 0 0
BITMAP
6600
9240
0180
0240
0600
2400
7900
2400
7800
ENDCHAR
STARTCHAR uni02A2
ENCODING 674
SWIDTH 393 0
DWIDTH 5 0
BBX 5 9 0 0
BITMAP
2600
9240
D000
9000
2400
0900
1A40
0900
1A00
ENDCHAR
STARTCHAR uni02A3
ENCODING 675
SWIDTH 830 0
DWIDTH 10 0
BBX 10 9 0 0
BITMAP
019000
009000
009000
1AEAD0
609180
909340
A09900
60A810
2EBA90
ENDCHAR
STARTCHAR uni02A4
ENCODING 676
SWIDTH 838 0
DWIDTH 10 0
BBX 10 12 0 -3
BITMAP
019000
009000
009000
1AEAE0
6091C0
909340
A09A00
609180
2EA060
000060
002060
002940
ENDCHAR
STARTCHAR uni02A5
ENCODING 677
SWIDTH 829 0
DWIDTH 10 0
BBX 10 11 0 -2
BITMAP
019000
009000
009000
1AEAD0
609180
909340
A09900
60A850
2EBA50
000400
000400
ENDCHAR
STARTCHAR uni02A6
ENCODING 678
SWIDTH 614 0
DWIDTH 7 0
BBX 7 7 0 0
BITMAP
2000
7BA8
3304
31D0
3068
240C
1964
ENDCHAR
STARTCHAR uni02A7
ENCODING 679
SWIDTH 513 0
DWIDTH 6 0
BBX 8 12 0 -3
BITMAP
0069
1084
20C0
79C0
30C0
30C0
30C0
30C0
29C0
00C0
04C0
0A40
ENDCHAR
STARTCHAR uni02A8
ENCODING 680
SWIDTH 687 0
DWIDTH 8 0
BBX 8 7 0 0
BITMAP
2000
7959
3141
3240
3255
31D2
29A9
ENDCHAR
STARTCHAR uni02A9
ENCODING 681
SWIDTH 866 0
DWIDTH 10 0
BBX 10 12 0 -3
BITMAP
0A4000
244000
240000
7AB680
243090
243090
243090
243090
787490
000090
000490
000A80
ENDCHAR
STARTCHAR uni02AA
ENCODING 682
SWIDTH 595 0
DWIDTH 7 0
BBX 7 9 0 0
BITMAP
7000
3000
3000
3164
3304
32D0
3074
3018
1964
ENDCHAR
STARTCHAR uni02AB
ENCODING 683
SWIDTH 580 0
DWIDTH 7 0
BBX 7 9 0 0
BITMAP
7400
2400
2400
2AB4
2460
24C0
2640
2604
7EA4
ENDCHAR
STARTCHAR uni02AC
ENCODING 684
SWIDTH 599 0
DWIDTH 7 0
BBX 7 9 0 0
BITMAP
A358
3250
1990
0890
6248
2244
2290
19D0
0C90
ENDCHAR
STARTCHAR uni02AD
ENCODING 685
SWIDTH 479 0
DWIDTH 6 0
BBX 4 8 1 0
BITMAP
FF
82
82
41
FF
82
82
82
ENDCHAR
STARTCHAR uni02AE
ENCODING 686
SWIDTH 595 0
DWIDTH 7 0
BBX 8 9 -1 -3
BITMAP
681D
0609
0609
0609
070D
0299
0009
0009
000A
ENDCHAR
STARTCHAR uni02AF
ENCODING 687
SWIDTH 600 0
DWIDTH 7 0
BBX 10 9 -1 -3
BITMAP
681D00
060900
060900
060900
070D00
029900
000900
000940
000290
ENDCHAR
STARTCHAR uni02B0
ENCODING 688
SWIDTH 488 0
DWIDTH 6 0
BBX 6 7 0 3
BITMAP
7000
3000
3A40
3080
30C0
30C0
75D0
ENDCHAR
STARTCHAR uni02B1
ENCODING 689
SWIDTH 488 0
DWIDTH 6 0
BBX 6 8 0 3
BITMAP
0600
2100
3000
3A40
3080
30C0
30C0
75D0
ENDCHAR
STARTCHAR uni02B2
ENCODING 690
SWIDTH 222 0
DWIDTH 3 0
BBX 3 9 -1 1
BITMAP
0C
00
1C
0C
0C
0C
0C
08
A4
ENDCHAR
STARTCHAR uni02B3
ENCODING 691
SWIDTH 325 0
DWIDTH 4 0
BBX 4 5 0 3
BITMAP
7A
30
30
30
74
ENDCHAR
STARTCHAR uni02B4
ENCODING 692
SWIDTH 325 0
DWIDTH 4 0
BBX 4 5 0 3
BITMAP
1D
08
08
0C
A9
ENDCHAR
STARTCHAR uni02B5
ENCODING 693
SWIDTH 325 0
DWIDTH 4 0
BBX 5 7 0 1
BITMAP
1D00
0800
0800
0C00
A800
0800
0140
ENDCHAR
STARTCHAR uni02B6
ENCODING 694
SWIDTH 443 0
DWIDTH 5 0
BBX 5 5 0 3
BITMAP
7580
3200
3A00
3240
7640
ENDCHAR
STARTCHAR uni02B7
ENCODING 695
SWIDTH 653 0
DWIDTH 8 0
BBX 8 5 0 3
BITMAP
A289
3184
2584
19A0
0C20
ENDCHAR
STARTCHAR uni02B8
ENCODING 696
SWIDTH 427 0
DWIDTH 5 0
BBX 5 7 0 1
BITMAP
A180
3140
2500
1900
0800
0800
A000
ENDCHAR
STARTCHAR uni02B9
ENCODING 697
SWIDTH 296 0
DWIDTH 4 0
BBX 2 4 1 5
BITMAP
60
90
80
40
ENDCHAR
STARTCHAR uni02BA
ENCODING 698
SWIDTH 456 0
DWIDTH 5 0
BBX 4 4 1 5
BITMAP
66
99
88
44
ENDCHAR
STARTCHAR uni02BB
ENCODING 699
SWIDTH 245 0
DWIDTH 3 0
BBX 3 3 0 6
BITMAP
10
10
74
ENDCHAR
STARTCHAR uni02BC
ENCODING 700
SWIDTH 244 0
DWIDTH 3 0
BBX 2 3 0 6
BITMAP
70
20
10
ENDCHAR
STARTCHAR uni02BD
ENCODING 701
SWIDTH 244 0
DWIDTH 3 0
BBX 3 3 0 6
BITMAP
34
50
10
ENDCHAR
STARTCHAR uni02BE
ENCODING 702
SWIDTH 203 0
DWIDTH 2 0
BBX 2 3 0 6
BITMAP
60
20
60
ENDCHAR
STARTCHAR uni02BF
ENCODING 703
SWIDTH 203 0
DWIDTH 2 0
BBX 2 3 0 6
BITMAP
60
80
60
ENDCHAR
STARTCHAR uni02C0
ENCODING 704
SWIDTH 364 0
DWIDTH 4 0
BBX 4 5 0 5
BITMAP
14
52
03
09
24
ENDCHAR
STARTCHAR uni02C1
ENCODING 705
SWIDTH 364 0
DWIDTH 4 0
BBX 4 5 0 5
BITMAP
15
52
90
60
0C
ENDCHAR
STARTCHAR uni02C2
ENCODING 706
SWIDTH 324 0
DWIDTH 4 0
BBX 4 4 0 5
BITMAP
09
60
28
05
ENDCHAR
STARTCHAR uni02C3
ENCODING 707
SWIDTH 324 0
DWIDTH 4 0
BBX 4 4 0 5
BITMAP
60
19
28
40
ENDCHAR
STARTCHAR uni02C4
ENCODING 708
SWIDTH 324 0
DWIDTH 4 0
BBX 4 3 0 6
BITMAP
24
28
82
ENDCHAR
STARTCHAR uni02C5
ENCODING 709
SWIDTH 324 0
DWIDTH 4 0
BBX 4 3 0 6
BITMAP
82
28
24
ENDCHAR
STARTCHAR circumflex
ENCODING 710
SWIDTH 342 0
DWIDTH 4 0
BBX 4 2 0 6
BITMAP
28
55
ENDCHAR
STARTCHAR caron
ENCODING 711
SWIDTH 342 0
DWIDTH 4 0
BBX 4 2 0 7
BITMAP
55
28
ENDCHAR
STARTCHAR uni02C8
ENCODING 712
SWIDTH 284 0
DWIDTH 3 0
BBX 1 3 1 6
BITMAP
40
40
40
ENDCHAR
STARTCHAR uni02C9
ENCODING 713
SWIDTH 350 0
DWIDTH 4 0
BBX 4 1 0 7
BITMAP
6A
ENDCHAR
STARTCHAR uni02CA
ENCODING 714
SWIDTH 222 0
DWIDTH 3 0
BBX 2 2 0 6
BITMAP
30
50
ENDCHAR
STARTCHAR uni02CB
ENCODING 715
SWIDTH 222 0
DWIDTH 3 0
BBX 2 2 0 6
BITMAP
60
20
ENDCHAR
STARTCHAR uni02CC
ENCODING 716
SWIDTH 284 0
DWIDTH 3 0
BBX 1 3 1 -2
BITMAP
40
40
40
ENDCHAR
STARTCHAR uni02CD
ENCODING 717
SWIDTH 342 0
DWIDTH 4 0
BBX 4 1 0 -2
BITMAP
AA
ENDCHAR
STARTCHAR uni02CE
ENCODING 718
SWIDTH 222 0
DWIDTH 3 0
BBX 2 2 0 -3
BITMAP
60
20
ENDCHAR
STARTCHAR uni02CF
ENCODING 719
SWIDTH 223 0
DWIDTH 3 0
BBX 2 2 0 -3
BITMAP
30
50
ENDCHAR
STARTCHAR uni02D0
ENCODING 720
SWIDTH 341 0
DWIDTH 4 0
BBX 2 6 1 0
BITMAP
A0
50
00
00
50
A0
ENDCHAR
STARTCHAR uni02D1
ENCODING 721
SWIDTH 341 0
DWIDTH 4 0
BBX 2 2 1 4
BITMAP
A0
50
ENDCHAR
STARTCHAR uni02D2
ENCODING 722
SWIDTH 341 0
DWIDTH 4 0
BBX 2 4 1 1
BITMAP
90
20
20
90
ENDCHAR
STARTCHAR uni02D3
ENCODING 723
SWIDTH 341 0
DWIDTH 4 0
BBX 2 4 1 1
BITMAP
60
80
80
60
ENDCHAR
STARTCHAR uni02D4
ENCODING 724
SWIDTH 341 0
DWIDTH 4 0
BBX 4 3 0 2
BITMAP
04
14
69
ENDCHAR
STARTCHAR uni02D5
ENCODING 725
SWIDTH 341 0
DWIDTH 4 0
BBX 4 3 0 2
BITMAP
69
14
04
ENDCHAR
STARTCHAR uni02D6
ENCODING 726
SWIDTH 341 0
DWIDTH 4 0
BBX 2 2 1 2
BITMAP
A0
50
ENDCHAR
STARTCHAR uni02D7
ENCODING 727
SWIDTH 341 0
DWIDTH 4 0
BBX 2 1 1 3
BITMAP
50
ENDCHAR
STARTCHAR breve
ENCODING 728
SWIDTH 353 0
DWIDTH 4 0
BBX 4 2 0 6
BITMAP
41
29
ENDCHAR
STARTCHAR dotaccent
ENCODING 729
SWIDTH 194 0
DWIDTH 2 0
BBX 2 1 0 7
BITMAP
60
ENDCHAR
STARTCHAR ring
ENCODING 730
SWIDTH 265 0
DWIDTH 3 0
BBX 3 3 0 6
BITMAP
64
88
64
ENDCHAR
STARTCHAR ogonek
ENCODING 731
SWIDTH 277 0
DWIDTH 3 0
BBX 3 3 0 -3
BITMAP
10
50
64
ENDCHAR
STARTCHAR tilde
ENCODING 732
SWIDTH 381 0
DWIDTH 5 0
BBX 4 2 0 7
BITMAP
25
4A
ENDCHAR
STARTCHAR hungarumlaut
ENCODING 733
SWIDTH 350 0
DWIDTH 4 0
BBX 4 2 0 6
BITMAP
2A
58
ENDCHAR
STARTCHAR uni02DE
ENCODING 734
SWIDTH 205 0
DWIDTH 2 0
BBX 4 2 -1 2
BITMAP
61
18
ENDCHAR
STARTCHAR uni02DF
ENCODING 735
SWIDTH 302 0
DWIDTH 4 0
BBX 3 3 0 6
BITMAP
54
28
58
ENDCHAR
STARTCHAR uni02E0
ENCODING 736
SWIDTH 413 0
DWIDTH 5 0
BBX 5 7 0 1
BITMAP
A180
3100
2500
1900
0C00
1900
1900
ENDCHAR
STARTCHAR uni02E1
ENCODING 737
SWIDTH 244 0
DWIDTH 3 0
BBX 3 7 0 3
BITMAP
70
30
30
30
30
30
74
ENDCHAR
STARTCHAR uni02E2
ENCODING 738
SWIDTH 337 0
DWIDTH 4 0
BBX 4 5 0 3
BITMAP
69
91
28
46
99
ENDCHAR
STARTCHAR uni02E3
ENCODING 739
SWIDTH 445 0
DWIDTH 5 0
BBX 5 5 0 3
BITMAP
7680
1900
0D00
1600
6280
ENDCHAR
STARTCHAR uni02E4
ENCODING 740
SWIDTH 364 0
DWIDTH 4 0
BBX 4 7 0 3
BITMAP
26
51
60
24
09
05
0A
ENDCHAR
STARTCHAR uni02E5
ENCODING 741
SWIDTH 423 0
DWIDTH 5 0
BBX 5 9 0 0
BITMAP
6A80
0080
0080
0080
0080
0080
0080
0080
0040
ENDCHAR
STARTCHAR uni02E6
ENCODING 742
SWIDTH 414 0
DWIDTH 5 0
BBX 5 9 0 -1
BITMAP
0040
0040
6A40
0040
0040
0040
0040
0040
0040
ENDCHAR
STARTCHAR uni02E7
ENCODING 743
SWIDTH 414 0
DWIDTH 5 0
BBX 5 9 0 0
BITMAP
0040
0040
0040
0040
6A40
0040
0040
0040
0040
ENDCHAR
STARTCHAR uni02E8
ENCODING 744
SWIDTH 414 0
DWIDTH 5 0
BBX 5 9 0 -1
BITMAP
0040
0040
0040
0040
0040
6A40
0040
0040
0040
ENDCHAR
STARTCHAR uni02E9
ENCODING 745
SWIDTH 414 0
DWIDTH 5 0
BBX 5 9 0 0
BITMAP
0040
0040
0040
0040
0040
0040
0040
0040
6A40
ENDCHAR
STARTCHAR uni02EC
ENCODING 748
SWIDTH 341 0
DWIDTH 4 0
BBX 4 3 0 -2
BITMAP
41
29
18
ENDCHAR
STARTCHAR uni02ED
ENCODING 749
SWIDTH 380 0
DWIDTH 5 0
BBX 4 2 0 7
BITMAP
6A
6A
ENDCHAR
STARTCHAR uni02F7
ENCODING 759
SWIDTH 381 0
DWIDTH 5 0
BBX 4 2 0 -2
BITMAP
25
4A
ENDCHAR
STARTCHAR uni0300
ENCODING 768
SWIDTH 0 0
DWIDTH 0 0
BBX 2 2 -4 6
BITMAP
90
20
ENDCHAR
STARTCHAR uni0301
ENCODING 769
SWIDTH 0 0
DWIDTH 0 0
BBX 3 2 -4 6
BITMAP
24
50
ENDCHAR
STARTCHAR uni0302
ENCODING 770
SWIDTH 0 0
DWIDTH 0 0
BBX 3 2 -4 6
BITMAP
60
44
ENDCHAR
STARTCHAR uni0303
ENCODING 771
SWIDTH 0 0
DWIDTH 0 0
BBX 4 2 -5 7
BITMAP
25
4A
ENDCHAR
STARTCHAR uni0304
ENCODING 772
SWIDTH 0 0
DWIDTH 0 0
BBX 4 1 -5 7
BITMAP
6A
ENDCHAR
STARTCHAR uni0305
ENCODING 773
SWIDTH 0 0
DWIDTH 0 0
BBX 5 1 -5 7
BITMAP
AA80
ENDCHAR
STARTCHAR uni0306
ENCODING 774
SWIDTH 0 0
DWIDTH 0 0
BBX 4 2 -5 6
BITMAP
42
29
ENDCHAR
STARTCHAR uni0307
ENCODING 775
SWIDTH 0 0
DWIDTH 0 0
BBX 2 1 -4 7
BITMAP
60
ENDCHAR
STARTCHAR uni0308
ENCODING 776
SWIDTH 0 0
DWIDTH 0 0
BBX 4 1 -5 7
BITMAP
93
ENDCHAR
STARTCHAR uni0309
ENCODING 777
SWIDTH 0 0
DWIDTH 0 0
BBX 3 3 -4 6
BITMAP
50
14
20
ENDCHAR
STARTCHAR uni030A
ENCODING 778
SWIDTH 0 0
DWIDTH 0 0
BBX 3 3 -4 6
BITMAP
60
84
60
ENDCHAR
STARTCHAR uni030B
ENCODING 779
SWIDTH 0 0
DWIDTH 0 0
BBX 4 2 -4 6
BITMAP
69
98
ENDCHAR
STARTCHAR uni030C
ENCODING 780
SWIDTH 0 0
DWIDTH 0 0
BBX 3 2 -4 7
BITMAP
44
60
ENDCHAR
STARTCHAR uni030D
ENCODING 781
SWIDTH 0 0
DWIDTH 0 0
BBX 1 3 -3 6
BITMAP
40
80
80
ENDCHAR
STARTCHAR uni030E
ENCODING 782
SWIDTH 0 0
DWIDTH 0 0
BBX 3 3 -4 6
BITMAP
94
94
94
ENDCHAR
STARTCHAR uni030F
ENCODING 783
SWIDTH 0 0
DWIDTH 0 0
BBX 4 2 -5 6
BITMAP
98
69
ENDCHAR
STARTCHAR uni0310
ENCODING 784
SWIDTH 0 0
DWIDTH 0 0
BBX 4 3 -5 6
BITMAP
18
42
29
ENDCHAR
STARTCHAR uni0311
ENCODING 785
SWIDTH 0 0
DWIDTH 0 0
BBX 4 2 -5 7
BITMAP
29
42
ENDCHAR
STARTCHAR uni0312
ENCODING 786
SWIDTH 0 0
DWIDTH 0 0
BBX 2 3 -4 7
BITMAP
10
50
60
ENDCHAR
STARTCHAR uni0313
ENCODING 787
SWIDTH 0 0
DWIDTH 0 0
BBX 2 3 -4 6
BITMAP
70
20
40
ENDCHAR
STARTCHAR uni0314
ENCODING 788
SWIDTH 0 0
DWIDTH 0 0
BBX 2 3 -4 6
BITMAP
60
50
10
ENDCHAR
STARTCHAR uni0315
ENCODING 789
SWIDTH 0 0
DWIDTH 0 0
BBX 1 3 -3 6
BITMAP
80
80
40
ENDCHAR
STARTCHAR uni0316
ENCODING 790
SWIDTH 0 0
DWIDTH 0 0
BBX 2 2 -4 -3
BITMAP
90
20
ENDCHAR
STARTCHAR uni0317
ENCODING 791
SWIDTH 0 0
DWIDTH 0 0
BBX 2 2 -3 -3
BITMAP
90
80
ENDCHAR
STARTCHAR uni0318
ENCODING 792
SWIDTH 0 0
DWIDTH 0 0
BBX 2 2 -4 -3
BITMAP
60
10
ENDCHAR
STARTCHAR uni0319
ENCODING 793
SWIDTH 0 0
DWIDTH 0 0
BBX 2 2 -4 -3
BITMAP
90
40
ENDCHAR
STARTCHAR uni031A
ENCODING 794
SWIDTH 0 0
DWIDTH 0 0
BBX 3 3 -4 6
BITMAP
A4
08
04
ENDCHAR
STARTCHAR uni031B
ENCODING 795
SWIDTH 0 0
DWIDTH 0 0
BBX 2 3 -2 5
BITMAP
10
20
50
ENDCHAR
STARTCHAR uni031C
ENCODING 796
SWIDTH 0 0
DWIDTH 0 0
BBX 2 3 -4 -3
BITMAP
50
80
50
ENDCHAR
STARTCHAR uni031D
ENCODING 797
SWIDTH 0 0
DWIDTH 0 0
BBX 3 2 -4 -3
BITMAP
10
64
ENDCHAR
STARTCHAR uni031E
ENCODING 798
SWIDTH 0 0
DWIDTH 0 0
BBX 3 2 -4 -2
BITMAP
64
10
ENDCHAR
STARTCHAR uni031F
ENCODING 799
SWIDTH 0 0
DWIDTH 0 0
BBX 3 2 -4 -3
BITMAP
64
10
ENDCHAR
STARTCHAR uni0320
ENCODING 800
SWIDTH 0 0
DWIDTH 0 0
BBX 3 1 -4 -2
BITMAP
54
ENDCHAR
STARTCHAR uni0321
ENCODING 801
SWIDTH 0 0
DWIDTH 0 0
BBX 3 4 -5 -3
BITMAP
08
08
88
A4
ENDCHAR
STARTCHAR uni0322
ENCODING 802
SWIDTH 0 0
DWIDTH 0 0
BBX 4 4 -3 -3
BITMAP
80
90
95
19
ENDCHAR
STARTCHAR uni0323
ENCODING 803
SWIDTH 0 0
DWIDTH 0 0
BBX 2 1 -4 -2
BITMAP
60
ENDCHAR
STARTCHAR uni0324
ENCODING 804
SWIDTH 0 0
DWIDTH 0 0
BBX 4 1 -5 -2
BITMAP
93
ENDCHAR
STARTCHAR uni0325
ENCODING 805
SWIDTH 0 0
DWIDTH 0 0
BBX 3 3 -4 -3
BITMAP
60
84
60
ENDCHAR
STARTCHAR uni0326
ENCODING 806
SWIDTH 0 0
DWIDTH 0 0
BBX 2 3 -4 -4
BITMAP
70
20
50
ENDCHAR
STARTCHAR uni0327
ENCODING 807
SWIDTH 0 0
DWIDTH 0 0
BBX 3 3 -4 -3
BITMAP
60
14
60
ENDCHAR
STARTCHAR uni0328
ENCODING 808
SWIDTH 0 0
DWIDTH 0 0
BBX 3 3 -4 -3
BITMAP
10
80
A4
ENDCHAR
STARTCHAR uni0329
ENCODING 809
SWIDTH 0 0
DWIDTH 0 0
BBX 1 2 -3 -3
BITMAP
80
80
ENDCHAR
STARTCHAR uni032A
ENCODING 810
SWIDTH 0 0
DWIDTH 0 0
BBX 4 2 -5 -2
BITMAP
65
51
ENDCHAR
STARTCHAR uni032B
ENCODING 811
SWIDTH 0 0
DWIDTH 0 0
BBX 4 2 -5 -2
BITMAP
45
6A
ENDCHAR
STARTCHAR uni032C
ENCODING 812
SWIDTH 0 0
DWIDTH 0 0
BBX 3 2 -4 -2
BITMAP
44
60
ENDCHAR
STARTCHAR uni032D
ENCODING 813
SWIDTH 0 0
DWIDTH 0 0
BBX 3 2 -4 -2
BITMAP
70
48
ENDCHAR
STARTCHAR uni032E
ENCODING 814
SWIDTH 0 0
DWIDTH 0 0
BBX 4 2 -5 -3
BITMAP
42
29
ENDCHAR
STARTCHAR uni032F
ENCODING 815
SWIDTH 0 0
DWIDTH 0 0
BBX 4 2 -5 -2
BITMAP
29
41
ENDCHAR
STARTCHAR uni0330
ENCODING 816
SWIDTH 0 0
DWIDTH 0 0
BBX 4 2 -5 -2
BITMAP
65
4A
ENDCHAR
STARTCHAR uni0331
ENCODING 817
SWIDTH 0 0
DWIDTH 0 0
BBX 4 1 -5 -2
BITMAP
6A
ENDCHAR
STARTCHAR uni0332
ENCODING 818
SWIDTH 0 0
DWIDTH 0 0
BBX 7 1 -6 -2
BITMAP
AAA4
ENDCHAR
STARTCHAR uni0333
ENCODING 819
SWIDTH 0 0
DWIDTH 0 0
BBX 7 2 -6 -3
BITMAP
AAA4
AAA4
ENDCHAR
STARTCHAR uni0334
ENCODING 820
SWIDTH 0 0
DWIDTH 0 0
BBX 4 2 -5 2
BITMAP
65
4A
ENDCHAR
STARTCHAR uni0335
ENCODING 821
SWIDTH 0 0
DWIDTH 0 0
BBX 4 1 -5 3
BITMAP
6A
ENDCHAR
STARTCHAR uni0336
ENCODING 822
SWIDTH 0 0
DWIDTH 0 0
BBX 7 1 -6 3
BITMAP
6AA4
ENDCHAR
STARTCHAR uni0337
ENCODING 823
SWIDTH 0 0
DWIDTH 0 0
BBX 3 3 -4 3
BITMAP
04
60
40
ENDCHAR
STARTCHAR uni0338
ENCODING 824
SWIDTH 0 0
DWIDTH 0 0
BBX 5 11 -5 -2
BITMAP
0040
0140
0200
0200
0500
0800
1400
2000
2000
8000
8000
ENDCHAR
STARTCHAR uni0339
ENCODING 825
SWIDTH 0 0
DWIDTH 0 0
BBX 2 3 -4 -3
BITMAP
50
10
50
ENDCHAR
STARTCHAR uni033A
ENCODING 826
SWIDTH 0 0
DWIDTH 0 0
BBX 4 2 -5 -2
BITMAP
51
65
ENDCHAR
STARTCHAR uni033B
ENCODING 827
SWIDTH 0 0
DWIDTH 0 0
BBX 3 3 -4 -3
BITMAP
A4
54
A4
ENDCHAR
STARTCHAR uni033C
ENCODING 828
SWIDTH 0 0
DWIDTH 0 0
BBX 4 2 -5 -2
BITMAP
66
04
ENDCHAR
STARTCHAR uni033D
ENCODING 829
SWIDTH 0 0
DWIDTH 0 0
BBX 3 3 -4 6
BITMAP
54
60
40
ENDCHAR
STARTCHAR uni033E
ENCODING 830
SWIDTH 0 0
DWIDTH 0 0
BBX 2 4 -4 6
BITMAP
50
60
20
50
ENDCHAR
STARTCHAR uni033F
ENCODING 831
SWIDTH 0 0
DWIDTH 0 0
BBX 5 2 -5 6
BITMAP
AA40
AA40
ENDCHAR
STARTCHAR uni0346
ENCODING 838
SWIDTH 0 0
DWIDTH 0 0
BBX 4 2 -5 6
BITMAP
6A
92
ENDCHAR
STARTCHAR uni0347
ENCODING 839
SWIDTH 0 0
DWIDTH 0 0
BBX 4 2 -5 -3
BITMAP
AA
AA
ENDCHAR
STARTCHAR uni034C
ENCODING 844
SWIDTH 0 0
DWIDTH 0 0
BBX 4 3 -5 6
BITMAP
6A
25
4A
ENDCHAR
STARTCHAR uni034D
ENCODING 845
SWIDTH 0 0
DWIDTH 0 0
BBX 6 3 -6 -4
BITMAP
1040
7AB0
1040
ENDCHAR
STARTCHAR uni0359
ENCODING 857
SWIDTH 0 0
DWIDTH 0 0
BBX 4 4 -5 -5
BITMAP
08
6A
5A
08
ENDCHAR
STARTCHAR uni035C
ENCODING 860
SWIDTH 0 0
DWIDTH 0 0
BBX 8 2 -4 -3
BITMAP
9006
2AA8
ENDCHAR
STARTCHAR uni0360
ENCODING 864
SWIDTH 0 0
DWIDTH 0 0
BBX 6 2 -3 6
BITMAP
6910
4690
ENDCHAR
STARTCHAR uni0361
ENCODING 865
SWIDTH 0 0
DWIDTH 0 0
BBX 6 2 -3 7
BITMAP
6A80
8010
ENDCHAR
STARTCHAR uni0362
ENCODING 866
SWIDTH 0 0
DWIDTH 0 0
BBX 10 3 -5 -4
BITMAP
000040
6AAAD0
000040
ENDCHAR
STARTCHAR uni037E
ENCODING 894
SWIDTH 261 0
DWIDTH 3 0
BBX 2 8 1 -2
BITMAP
C0
00
00
00
00
D0
50
40
ENDCHAR
STARTCHAR tonos
ENCODING 900
SWIDTH 165 0
DWIDTH 2 0
BBX 2 2 0 7
BITMAP
90
80
ENDCHAR
STARTCHAR dieresistonos
ENCODING 901
SWIDTH 426 0
DWIDTH 5 0
BBX 5 2 0 7
BITMAP
5D80
0800
ENDCHAR
STARTCHAR Alphatonos
ENCODING 902
SWIDTH 718 0
DWIDTH 9 0
BBX 9 9 0 0
BITMAP
600000
518000
02C000
02A000
057000
083400
1AAC00
200D00
B41F40
ENDCHAR
STARTCHAR anoteleia
ENCODING 903
SWIDTH 261 0
DWIDTH 3 0
BBX 1 1 1 5
BITMAP
C0
ENDCHAR
STARTCHAR Epsilontonos
ENCODING 904
SWIDTH 745 0
DWIDTH 9 0
BBX 9 9 0 0
BITMAP
C00000
8BAB40
030100
030500
039900
030500
030040
030140
07AB40
ENDCHAR
STARTCHAR Etatonos
ENCODING 905
SWIDTH 896 0
DWIDTH 11 0
BBX 10 9 0 0
BITMAP
C00000
8B81E0
0300C0
0300C0
0395C0
0300C0
0300C0
0300C0
0781E0
ENDCHAR
STARTCHAR Iotatonos
ENCODING 906
SWIDTH 478 0
DWIDTH 6 0
BBX 5 9 0 0
BITMAP
C000
8780
0300
0300
0300
0300
0300
0300
0780
ENDCHAR
STARTCHAR Omicrontonos
ENCODING 908
SWIDTH 806 0
DWIDTH 10 0
BBX 9 9 0 0
BITMAP
C00000
829900
090340
1C01C0
2801C0
2801C0
1C0180
090240
02A900
ENDCHAR
STARTCHAR Upsilontonos
ENCODING 910
SWIDTH 787 0
DWIDTH 9 0
BBX 11 9 -1 0
BITMAP
600000
52D0A4
00D080
007140
002A00
000D00
000C00
000C00
001E00
ENDCHAR
STARTCHAR Omegatonos
ENCODING 911
SWIDTH 830 0
DWIDTH 10 0
BBX 10 9 0 0
BITMAP
C00000
82FD00
0A4740
1C01C0
1C01C0
1C0180
090240
220550
2F8FD0
ENDCHAR
STARTCHAR iotadieresistonos
ENCODING 912
SWIDTH 259 0
DWIDTH 3 0
BBX 5 9 -1 0
BITMAP
0D00
9980
0000
0C00
1800
1800
1800
1800
0E00
ENDCHAR
STARTCHAR Alpha
ENCODING 913
SWIDTH 718 0
DWIDTH 9 0
BBX 9 8 0 0
BITMAP
018000
02C000
02A000
057000
083400
1AAC00
200D00
B41F40
ENDCHAR
STARTCHAR Beta
ENCODING 914
SWIDTH 618 0
DWIDTH 7 0
BBX 7 8 0 0
BITMAP
6EA0
1828
1824
1EA0
1824
181C
181C
6D64
ENDCHAR
STARTCHAR Gamma
ENCODING 915
SWIDTH 569 0
DWIDTH 7 0
BBX 7 8 0 0
BITMAP
BFF8
2818
1804
1800
1800
1800
2800
BF00
ENDCHAR
STARTCHAR Delta
ENCODING 916
SWIDTH 667 0
DWIDTH 8 0
BBX 8 8 0 0
BITMAP
0140
02C0
05D0
0860
1434
2028
201C
BFFD
ENDCHAR
STARTCHAR Epsilon
ENCODING 917
SWIDTH 626 0
DWIDTH 8 0
BBX 7 8 0 0
BITMAP
6EA8
1804
1810
1DA0
1810
1800
1808
6EAC
ENDCHAR
STARTCHAR Zeta
ENCODING 918
SWIDTH 594 0
DWIDTH 7 0
BBX 7 8 0 0
BITMAP
7AB8
5070
00D0
0280
0700
1D00
2408
BAA8
ENDCHAR
STARTCHAR Eta
ENCODING 919
SWIDTH 777 0
DWIDTH 9 0
BBX 9 8 0 0
BITMAP
6D1B40
180600
180600
1D5A00
180600
180600
180600
6D1B40
ENDCHAR
STARTCHAR Theta
ENCODING 920
SWIDTH 738 0
DWIDTH 9 0
BBX 9 8 0 0
BITMAP
0BF400
2D1D00
340700
73F340
711340
340700
2D1E00
0BF400
ENDCHAR
STARTCHAR Iota
ENCODING 921
SWIDTH 357 0
DWIDTH 4 0
BBX 4 8 0 0
BITMAP
6D
18
18
18
18
18
18
6D
ENDCHAR
STARTCHAR Kappa
ENCODING 922
SWIDTH 702 0
DWIDTH 8 0
BBX 8 8 0 0
BITMAP
6D2D
1820
1880
1A00
1A40
18D0
1834
6D2E
ENDCHAR
STARTCHAR Lambda
ENCODING 923
SWIDTH 710 0
DWIDTH 9 0
BBX 9 8 0 0
BITMAP
018000
02C000
05A000
087000
082800
201C00
600E00
F82F40
ENDCHAR
STARTCHAR Mu
ENCODING 924
SWIDTH 895 0
DWIDTH 11 0
BBX 10 8 0 0
BITMAP
7C01E0
2D02C0
2702C0
2348C0
2288C0
20D4C0
20B0C0
7851E0
ENDCHAR
STARTCHAR Nu
ENCODING 925
SWIDTH 742 0
DWIDTH 9 0
BBX 9 8 0 0
BITMAP
780B40
2E0200
274100
21C100
20A100
202900
200D00
780500
ENDCHAR
STARTCHAR Xi
ENCODING 926
SWIDTH 648 0
DWIDTH 8 0
BBX 7 8 0 0
BITMAP
7FFC
5008
0410
0FF0
0410
0000
5004
7FFC
ENDCHAR
STARTCHAR Omicron
ENCODING 927
SWIDTH 738 0
DWIDTH 9 0
BBX 9 8 0 0
BITMAP
0A6400
280A00
300700
700340
700340
300700
280900
0AA400
ENDCHAR
STARTCHAR Pi
ENCODING 928
SWIDTH 759 0
DWIDTH 9 0
BBX 9 8 0 0
BITMAP
BFFF80
280A00
180A00
180A00
180A00
180A00
280A00
BE2F80
ENDCHAR
STARTCHAR Rho
ENCODING 929
SWIDTH 569 0
DWIDTH 7 0
BBX 7 8 0 0
BITMAP
2EA0
1834
1824
1830
1E90
1800
1800
6D00
ENDCHAR
STARTCHAR Sigma
ENCODING 931
SWIDTH 604 0
DWIDTH 7 0
BBX 7 8 0 0
BITMAP
BFF4
2414
0D04
0700
0200
0804
2408
7FF8
ENDCHAR
STARTCHAR Tau
ENCODING 932
SWIDTH 603 0
DWIDTH 7 0
BBX 7 8 0 0
BITMAP
ABAC
8348
0340
0340
0340
0340
0340
0780
ENDCHAR
STARTCHAR Upsilon
ENCODING 933
SWIDTH 647 0
DWIDTH 8 0
BBX 8 8 0 0
BITMAP
B81D
2814
0D20
0780
0280
0240
0240
0790
ENDCHAR
STARTCHAR Phi
ENCODING 934
SWIDTH 718 0
DWIDTH 9 0
BBX 8 8 0 0
BITMAP
07F0
02D0
25D9
61C3
A1C3
71C6
1AD4
07F0
ENDCHAR
STARTCHAR Chi
ENCODING 935
SWIDTH 664 0
DWIDTH 8 0
BBX 8 8 0 0
BITMAP
7D2D
1D20
0A50
0380
02C0
08A0
1434
743D
ENDCHAR
STARTCHAR Psi
ENCODING 936
SWIDTH 720 0
DWIDTH 9 0
BBX 9 8 0 0
BITMAP
D7F280
71C700
71C600
71C600
35CA00
1FF800
01C000
07F000
ENDCHAR
STARTCHAR Omega
ENCODING 937
SWIDTH 777 0
DWIDTH 9 0
BBX 9 8 0 0
BITMAP
06F800
1D1A00
340340
340340
340340
180600
550880
7F2F80
ENDCHAR
STARTCHAR Iotadieresis
ENCODING 938
SWIDTH 357 0
DWIDTH 4 0
BBX 4 10 0 0
BITMAP
93
01
6D
18
18
18
18
18
18
6D
ENDCHAR
STARTCHAR Upsilondieresis
ENCODING 939
SWIDTH 647 0
DWIDTH 8 0
BBX 8 10 0 0
BITMAP
0930
0010
B81D
2814
0D20
0780
0280
0240
0240
0790
ENDCHAR
STARTCHAR alphatonos
ENCODING 940
SWIDTH 561 0
DWIDTH 7 0
BBX 7 9 0 0
BITMAP
0300
0200
0000
1E30
61A0
8080
8080
5180
2D74
ENDCHAR
STARTCHAR epsilontonos
ENCODING 941
SWIDTH 381 0
DWIDTH 5 0
BBX 5 9 0 0
BITMAP
0600
0500
0000
2F40
6100
2400
5400
5100
2E00
ENDCHAR
STARTCHAR etatonos
ENCODING 942
SWIDTH 510 0
DWIDTH 6 0
BBX 6 12 0 -3
BITMAP
0240
0200
0000
B380
6990
2450
2450
2050
3050
0090
0090
0080
ENDCHAR
STARTCHAR iotatonos
ENCODING 943
SWIDTH 259 0
DWIDTH 3 0
BBX 3 9 0 0
BITMAP
24
20
00
30
60
60
60
60
38
ENDCHAR
STARTCHAR upsilondieresistonos
ENCODING 944
SWIDTH 491 0
DWIDTH 6 0
BBX 6 9 0 0
BITMAP
0900
6980
0000
B140
7080
2050
2090
21C0
1F40
ENDCHAR
STARTCHAR alpha
ENCODING 945
SWIDTH 561 0
DWIDTH 7 0
BBX 7 6 0 0
BITMAP
1E30
61A0
8080
8080
5180
2D74
ENDCHAR
STARTCHAR beta
ENCODING 946
SWIDTH 530 0
DWIDTH 6 0
BBX 6 12 0 -3
BITMAP
07C0
1860
2010
2040
2640
2050
6020
7460
6B90
6000
6000
5000
ENDCHAR
STARTCHAR gamma
ENCODING 947
SWIDTH 466 0
DWIDTH 6 0
BBX 6 9 0 -3
BITMAP
B0D0
5580
0A40
0A00
0900
0800
0C00
1800
1800
ENDCHAR
STARTCHAR delta
ENCODING 948
SWIDTH 479 0
DWIDTH 6 0
BBX 6 9 0 0
BITMAP
1F40
2180
0800
0B40
25C0
4090
8090
51C0
2E40
ENDCHAR
STARTCHAR epsilon
ENCODING 949
SWIDTH 381 0
DWIDTH 5 0
BBX 5 6 0 0
BITMAP
2F40
6100
2400
5400
5100
2E00
ENDCHAR
STARTCHAR zeta
ENCODING 950
SWIDTH 386 0
DWIDTH 5 0
BBX 5 13 0 -4
BITMAP
0400
1580
0A40
1800
2000
5000
4000
8000
7900
1B40
0080
0A00
0400
ENDCHAR
STARTCHAR eta
ENCODING 951
SWIDTH 510 0
DWIDTH 6 0
BBX 6 9 0 -3
BITMAP
B380
6990
2450
2450
2050
3050
0090
0090
0080
ENDCHAR
STARTCHAR theta
ENCODING 952
SWIDTH 514 0
DWIDTH 6 0
BBX 6 9 0 0
BITMAP
0B40
2480
2050
5020
7FE0
5020
5050
2480
1F40
ENDCHAR
STARTCHAR iota
ENCODING 953
SWIDTH 259 0
DWIDTH 3 0
BBX 3 6 0 0
BITMAP
30
60
60
60
60
38
ENDCHAR
STARTCHAR kappa
ENCODING 954
SWIDTH 495 0
DWIDTH 6 0
BBX 6 6 0 0
BITMAP
B090
6680
2900
2900
2600
31D0
ENDCHAR
STARTCHAR lambda
ENCODING 955
SWIDTH 506 0
DWIDTH 6 0
BBX 6 9 0 0
BITMAP
1800
1500
0200
0200
0A00
0A00
2540
3180
A0E0
ENDCHAR
STARTCHAR mu
ENCODING 956
SWIDTH 552 0
DWIDTH 7 0
BBX 7 9 0 -3
BITMAP
3090
2090
2080
20C0
3180
6E74
5000
6000
5000
ENDCHAR
STARTCHAR nu
ENCODING 957
SWIDTH 453 0
DWIDTH 5 0
BBX 5 6 0 0
BITMAP
B080
64C0
14C0
1580
1600
1D00
ENDCHAR
STARTCHAR xi
ENCODING 958
SWIDTH 390 0
DWIDTH 5 0
BBX 5 12 0 -3
BITMAP
2000
2680
2400
2000
1B00
5000
8000
6400
2F40
0180
0040
0E00
ENDCHAR
STARTCHAR omicron
ENCODING 959
SWIDTH 475 0
DWIDTH 6 0
BBX 6 6 0 0
BITMAP
1F40
6080
8050
8050
6180
2E40
ENDCHAR
STARTCHAR pi
ENCODING 960
SWIDTH 591 0
DWIDTH 7 0
BBX 7 6 0 0
BITMAP
6FF8
4450
0880
0880
2490
3074
ENDCHAR
STARTCHAR rho
ENCODING 961
SWIDTH 515 0
DWIDTH 6 0
BBX 6 9 0 -3
BITMAP
0B80
2460
2020
2020
7490
6B80
6000
6000
1000
ENDCHAR
STARTCHAR uni03C2
ENCODING 962
SWIDTH 377 0
DWIDTH 5 0
BBX 5 9 0 -3
BITMAP
1F40
6000
4000
8000
7400
1F00
0140
0140
0D00
ENDCHAR
STARTCHAR sigma
ENCODING 963
SWIDTH 545 0
DWIDTH 7 0
BBX 7 6 0 0
BITMAP
1FF4
6480
4050
8050
6190
2F40
ENDCHAR
STARTCHAR tau
ENCODING 964
SWIDTH 392 0
DWIDTH 5 0
BBX 5 6 0 0
BITMAP
7F80
4800
0800
0800
1800
0E00
ENDCHAR
STARTCHAR upsilon
ENCODING 965
SWIDTH 491 0
DWIDTH 6 0
BBX 6 6 0 0
BITMAP
B140
7080
2050
2090
21C0
1F40
ENDCHAR
STARTCHAR phi
ENCODING 966
SWIDTH 603 0
DWIDTH 7 0
BBX 7 9 0 -3
BITMAP
2CB0
6258
4208
4208
6224
1F90
0300
0300
0100
ENDCHAR
STARTCHAR chi
ENCODING 967
SWIDTH 462 0
DWIDTH 6 0
BBX 7 9 -1 -3
BITMAP
2828
0530
0290
0280
0240
0640
0C80
2480
7074
ENDCHAR
STARTCHAR psi
ENCODING 968
SWIDTH 620 0
DWIDTH 7 0
BBX 7 12 0 -3
BITMAP
0240
0240
0140
B254
7248
2248
2208
2664
1FD0
0200
0240
0100
ENDCHAR
STARTCHAR omega
ENCODING 969
SWIDTH 660 0
DWIDTH 8 0
BBX 8 6 0 0
BITMAP
1814
6148
4285
8245
5249
2DB8
ENDCHAR
STARTCHAR iotadieresis
ENCODING 970
SWIDTH 259 0
DWIDTH 3 0
BBX 5 8 -1 0
BITMAP
6240
0000
0C00
1800
1800
1800
1800
0E00
ENDCHAR
STARTCHAR upsilondieresis
ENCODING 971
SWIDTH 491 0
DWIDTH 6 0
BBX 6 8 0 0
BITMAP
3180
0000
B140
7080
2050
2090
21C0
1F40
ENDCHAR
STARTCHAR omicrontonos
ENCODING 972
SWIDTH 475 0
DWIDTH 6 0
BBX 6 9 0 0
BITMAP
0300
0200
0000
1F40
6080
8050
8050
6180
2E40
ENDCHAR
STARTCHAR upsilontonos
ENCODING 973
SWIDTH 491 0
DWIDTH 6 0
BBX 6 9 0 0
BITMAP
0600
0500
0000
B140
7080
2050
2090
21C0
1F40
ENDCHAR
STARTCHAR omegatonos
ENCODING 974
SWIDTH 660 0
DWIDTH 8 0
BBX 8 9 0 0
BITMAP
0180
0140
0000
1814
6148
4285
8245
5249
2DB8
ENDCHAR
STARTCHAR uni03D0
ENCODING 976
SWIDTH 438 0
DWIDTH 5 0
BBX 5 9 0 0
BITMAP
0780
1480
2440
2B40
6A40
6580
6040
3480
1F40
ENDCHAR
STARTCHAR uni03D1
ENCODING 977
SWIDTH 541 0
DWIDTH 6 0
BBX 6 9 0 0
BITMAP
0B40
1480
1050
1420
07F0
7420
6410
1490
0B80
ENDCHAR
STARTCHAR uni03D2
ENCODING 978
SWIDTH 616 0
DWIDTH 7 0
BBX 8 8 0 0
BITMAP
782D
0A99
0680
0340
0340
0340
0340
0FD0
ENDCHAR
STARTCHAR uni03D5
ENCODING 981
SWIDTH 575 0
DWIDTH 7 0
BBX 7 12 0 -3
BITMAP
0140
0240
0200
0B90
3770
5214
8204
5224
2BE0
0600
0600
0600
ENDCHAR
STARTCHAR uni03D6
ENCODING 982
SWIDTH 821 0
DWIDTH 10 0
BBX 10 6 0 0
BITMAP
7FFFE0
480140
146180
146080
085240
0B5E00
ENDCHAR
STARTCHAR uni03D8
ENCODING 984
SWIDTH 627 0
DWIDTH 8 0
BBX 7 8 0 0
BITMAP
1BE0
7468
A01C
A01C
7018
1960
0240
0790
ENDCHAR
STARTCHAR uni03D9
ENCODING 985
SWIDTH 475 0
DWIDTH 6 0
BBX 6 9 0 -3
BITMAP
1F40
6080
8050
8050
6080
2F40
0800
0900
0800
ENDCHAR
STARTCHAR uni03DA
ENCODING 986
SWIDTH 578 0
DWIDTH 7 0
BBX 7 8 0 0
BITMAP
1BF4
3424
6014
A000
7400
1FC0
01C0
02D0
ENDCHAR
STARTCHAR uni03DB
ENCODING 987
SWIDTH 490 0
DWIDTH 6 0
BBX 6 9 0 -3
BITMAP
1BF0
2400
4000
8000
7400
2E00
0240
0100
1D00
ENDCHAR
STARTCHAR uni03DC
ENCODING 988
SWIDTH 588 0
DWIDTH 7 0
BBX 7 8 0 0
BITMAP
6EA8
1804
1810
1DA0
1810
1800
1800
6D00
ENDCHAR
STARTCHAR uni03DD
ENCODING 989
SWIDTH 386 0
DWIDTH 5 0
BBX 6 9 -1 -3
BITMAP
0FD0
0800
0800
0E80
0800
0800
0400
2000
E000
ENDCHAR
STARTCHAR uni03DE
ENCODING 990
SWIDTH 525 0
DWIDTH 6 0
BBX 6 8 0 0
BITMAP
2F00
0800
1000
7FE0
0050
0080
0240
0BC0
ENDCHAR
STARTCHAR uni03DF
ENCODING 991
SWIDTH 434 0
DWIDTH 5 0
BBX 5 8 0 0
BITMAP
A000
2000
2000
1640
7A00
0200
0200
0380
ENDCHAR
STARTCHAR uni03E0
ENCODING 992
SWIDTH 697 0
DWIDTH 8 0
BBX 9 8 0 0
BITMAP
034000
028000
02D000
05A000
08B400
155C00
220E00
552F40
ENDCHAR
STARTCHAR uni03E1
ENCODING 993
SWIDTH 458 0
DWIDTH 6 0
BBX 5 11 0 -3
BITMAP
D000
7800
0900
0700
7940
0080
1A80
0480
0080
0080
0040
ENDCHAR
STARTCHAR uni03F0
ENCODING 1008
SWIDTH 504 0
DWIDTH 6 0
BBX 6 6 0 0
BITMAP
B0A0
65C0
1640
1A00
2940
70A0
ENDCHAR
STARTCHAR uni03F1
ENCODING 1009
SWIDTH 467 0
DWIDTH 6 0
BBX 5 9 0 -3
BITMAP
1F40
2080
5040
6080
6F40
2000
1D00
0200
1D00
ENDCHAR
STARTCHAR uni03F4
ENCODING 1012
SWIDTH 737 0
DWIDTH 9 0
BBX 9 8 0 0
BITMAP
0BF400
291A00
300700
7FFF40
700740
340700
291D00
0BF400
ENDCHAR
STARTCHAR uni03F5
ENCODING 1013
SWIDTH 380 0
DWIDTH 5 0
BBX 4 6 0 0
BITMAP
1F
50
BD
90
61
2E
ENDCHAR
STARTCHAR uni03F6
ENCODING 1014
SWIDTH 382 0
DWIDTH 5 0
BBX 4 6 0 0
BITMAP
7D
02
3F
02
46
7D
ENDCHAR
STARTCHAR uni0400
ENCODING 1024
SWIDTH 626 0
DWIDTH 8 0
BBX 7 11 0 0
BITMAP
0500
0180
0000
6EA8
1804
1810
1DA0
1810
1800
1808
6EAC
ENDCHAR
STARTCHAR uni0401
ENCODING 1025
SWIDTH 626 0
DWIDTH 8 0
BBX 7 10 0 0
BITMAP
0C60
0400
6EA8
1804
1810
1DA0
1810
1800
1808
6EAC
ENDCHAR
STARTCHAR uni0402
ENCODING 1026
SWIDTH 731 0
DWIDTH 9 0
BBX 9 8 0 0
BITMAP
ABAC00
830500
030000
03A900
034340
030240
035240
077600
ENDCHAR
STARTCHAR uni0403
ENCODING 1027
SWIDTH 548 0
DWIDTH 7 0
BBX 7 11 0 0
BITMAP
0140
0200
0000
6EB4
1814
1800
1800
1800
1800
1800
6D00
ENDCHAR
STARTCHAR uni0404
ENCODING 1028
SWIDTH 668 0
DWIDTH 8 0
BBX 8 8 0 0
BITMAP
0AAD
2409
7005
7A90
7000
7000
2805
0AA4
ENDCHAR
STARTCHAR uni0405
ENCODING 1029
SWIDTH 504 0
DWIDTH 6 0
BBX 6 8 0 0
BITMAP
2AD0
6050
7400
2E00
06C0
40A0
90A0
7A80
ENDCHAR
STARTCHAR uni0406
ENCODING 1030
SWIDTH 357 0
DWIDTH 4 0
BBX 4 8 0 0
BITMAP
6D
18
18
18
18
18
18
6D
ENDCHAR
STARTCHAR uni0407
ENCODING 1031
SWIDTH 357 0
DWIDTH 4 0
BBX 4 10 0 0
BITMAP
93
01
6D
18
18
18
18
18
18
6D
ENDCHAR
STARTCHAR uni0408
ENCODING 1032
SWIDTH 396 0
DWIDTH 5 0
BBX 5 8 0 0
BITMAP
1E40
0900
0900
0900
0900
0900
4900
A800
ENDCHAR
STARTCHAR uni0409
ENCODING 1033
SWIDTH 924 0
DWIDTH 11 0
BBX 11 8 0 0
BITMAP
0AA900
052800
052800
052A90
082834
082828
542824
E07AA0
ENDCHAR
STARTCHAR uni040A
ENCODING 1034
SWIDTH 1013 0
DWIDTH 12 0
BBX 12 8 0 0
BITMAP
6D1B40
180A00
180A00
1EAAA4
180A0A
180A06
180A0A
6D1EA8
ENDCHAR
STARTCHAR uni040B
ENCODING 1035
SWIDTH 761 0
DWIDTH 9 0
BBX 9 8 0 0
BITMAP
ABAC00
830500
030000
03A900
034700
030300
030300
078B40
ENDCHAR
STARTCHAR uni040C
ENCODING 1036
SWIDTH 658 0
DWIDTH 8 0
BBX 8 11 0 0
BITMAP
0050
0180
0000
6D1E
1821
1850
1E80
1890
1870
1828
6D1D
ENDCHAR
STARTCHAR uni040D
ENCODING 1037
SWIDTH 780 0
DWIDTH 9 0
BBX 9 11 0 0
BITMAP
050000
018000
000000
6D1B40
180A00
181A00
185600
188600
1A0600
1C0600
6D1B40
ENDCHAR
STARTCHAR uni040E
ENCODING 1038
SWIDTH 625 0
DWIDTH 8 0
BBX 8 11 0 0
BITMAP
0830
0550
0000
B81D
2414
0C20
0A10
0380
0240
1200
2D00
ENDCHAR
STARTCHAR uni040F
ENCODING 1039
SWIDTH 759 0
DWIDTH 9 0
BBX 9 11 0 -3
BITMAP
6D1E40
180A00
180A00
180A00
180A00
180A00
180A00
6EAA40
008000
00C000
00C000
ENDCHAR
STARTCHAR uni0410
ENCODING 1040
SWIDTH 718 0
DWIDTH 9 0
BBX 9 8 0 0
BITMAP
018000
02C000
02A000
057000
083400
1AAC00
200D00
B41F40
ENDCHAR
STARTCHAR uni0411
ENCODING 1041
SWIDTH 617 0
DWIDTH 7 0
BBX 7 8 0 0
BITMAP
6EB4
1804
1800
1E90
1828
181C
1828
6EA0
ENDCHAR
STARTCHAR uni0412
ENCODING 1042
SWIDTH 618 0
DWIDTH 7 0
BBX 7 8 0 0
BITMAP
6EA0
1828
1824
1EA0
1824
181C
181C
6D64
ENDCHAR
STARTCHAR uni0413
ENCODING 1043
SWIDTH 548 0
DWIDTH 7 0
BBX 7 8 0 0
BITMAP
6EB4
1814
1800
1800
1800
1800
1800
6D00
ENDCHAR
STARTCHAR uni0414
ENCODING 1044
SWIDTH 663 0
DWIDTH 8 0
BBX 8 10 0 -2
BITMAP
1AB9
0824
0824
0824
0824
1424
2024
A579
C009
8001
ENDCHAR
STARTCHAR uni0415
ENCODING 1045
SWIDTH 626 0
DWIDTH 8 0
BBX 7 8 0 0
BITMAP
6EA8
1804
1810
1DA0
1810
1800
1808
6EAC
ENDCHAR
STARTCHAR uni0416
ENCODING 1046
SWIDTH 937 0
DWIDTH 11 0
BBX 11 8 0 0
BITMAP
B4782C
583054
043080
03BA40
0A3180
0C30D0
283060
747838
ENDCHAR
STARTCHAR uni0417
ENCODING 1047
SWIDTH 545 0
DWIDTH 7 0
BBX 6 8 0 0
BITMAP
6990
6060
40A0
0780
00A0
0030
5070
1A90
ENDCHAR
STARTCHAR uni0418
ENCODING 1048
SWIDTH 780 0
DWIDTH 9 0
BBX 9 8 0 0
BITMAP
6D1B40
180A00
181A00
185600
188600
1A0600
1C0600
6D1B40
ENDCHAR
STARTCHAR uni0419
ENCODING 1049
SWIDTH 780 0
DWIDTH 9 0
BBX 9 11 0 0
BITMAP
021800
061800
015000
6D1B40
180A00
181A00
185600
188600
1A0600
1C0600
6D1B40
ENDCHAR
STARTCHAR uni041A
ENCODING 1050
SWIDTH 658 0
DWIDTH 8 0
BBX 8 8 0 0
BITMAP
6D1E
1821
1850
1E80
1890
1870
1828
6D1D
ENDCHAR
STARTCHAR uni041B
ENCODING 1051
SWIDTH 684 0
DWIDTH 8 0
BBX 8 8 0 0
BITMAP
0AAD
0528
0528
0528
0828
0828
5428
E06D
ENDCHAR
STARTCHAR uni041C
ENCODING 1052
SWIDTH 895 0
DWIDTH 11 0
BBX 10 8 0 0
BITMAP
7C01E0
2D02C0
2702C0
2348C0
2288C0
20D4C0
20B0C0
7851E0
ENDCHAR
STARTCHAR uni041D
ENCODING 1053
SWIDTH 777 0
DWIDTH 9 0
BBX 9 8 0 0
BITMAP
6D1B40
180600
180600
1D5A00
180600
180600
180600
6D1B40
ENDCHAR
STARTCHAR uni041E
ENCODING 1054
SWIDTH 738 0
DWIDTH 9 0
BBX 9 8 0 0
BITMAP
0A6400
280A00
300700
700340
700340
300700
280900
0AA400
ENDCHAR
STARTCHAR uni041F
ENCODING 1055
SWIDTH 759 0
DWIDTH 9 0
BBX 9 8 0 0
BITMAP
BFFF80
280A00
180A00
180A00
180A00
180A00
280A00
BE2F80
ENDCHAR
STARTCHAR uni0420
ENCODING 1056
SWIDTH 569 0
DWIDTH 7 0
BBX 7 8 0 0
BITMAP
2EA0
1834
1824
1830
1E90
1800
1800
6D00
ENDCHAR
STARTCHAR uni0421
ENCODING 1057
SWIDTH 670 0
DWIDTH 8 0
BBX 8 8 0 0
BITMAP
06AD
2809
3005
7000
7000
7000
2805
0BA4
ENDCHAR
STARTCHAR uni0422
ENCODING 1058
SWIDTH 603 0
DWIDTH 7 0
BBX 7 8 0 0
BITMAP
ABAC
8348
0340
0340
0340
0340
0340
0780
ENDCHAR
STARTCHAR uni0423
ENCODING 1059
SWIDTH 625 0
DWIDTH 8 0
BBX 8 8 0 0
BITMAP
B81D
2414
0C20
0A10
0380
0240
1200
2D00
ENDCHAR
STARTCHAR uni0424
ENCODING 1060
SWIDTH 725 0
DWIDTH 9 0
BBX 9 8 0 0
BITMAP
02D000
1AE800
71C700
61C340
61C300
35C600
0AD400
02D000
ENDCHAR
STARTCHAR uni0425
ENCODING 1061
SWIDTH 664 0
DWIDTH 8 0
BBX 8 8 0 0
BITMAP
7D2D
1D20
0A50
0380
02C0
08A0
1434
743D
ENDCHAR
STARTCHAR uni0426
ENCODING 1062
SWIDTH 756 0
DWIDTH 9 0
BBX 9 10 0 -2
BITMAP
6D1E40
180900
180900
180900
180900
180900
180900
6D5A40
000180
000080
ENDCHAR
STARTCHAR uni0427
ENCODING 1063
SWIDTH 650 0
DWIDTH 8 0
BBX 7 8 0 0
BITMAP
7878
3034
3034
3434
1A74
0034
0034
0078
ENDCHAR
STARTCHAR uni0428
ENCODING 1064
SWIDTH 1053 0
DWIDTH 13 0
BBX 12 8 0 0
BITMAP
6D2D2E
181C0C
181C0C
181C0C
181C0C
181C0C
181C0C
6EAEAE
ENDCHAR
STARTCHAR uni0429
ENCODING 1065
SWIDTH 1044 0
DWIDTH 13 0
BBX 12 10 0 -2
BITMAP
6D2D2D
18181C
18181C
18181C
18181C
18181C
18181C
6EAEAE
000003
000002
ENDCHAR
STARTCHAR uni042A
ENCODING 1066
SWIDTH 723 0
DWIDTH 9 0
BBX 9 8 0 0
BITMAP
AB8000
434000
034000
03A900
034700
034340
034300
07A900
ENDCHAR
STARTCHAR uni042B
ENCODING 1067
SWIDTH 887 0
DWIDTH 11 0
BBX 10 8 0 0
BITMAP
6D02E0
1800C0
1800C0
1E90C0
1834C0
1828C0
1824C0
6EA2E0
ENDCHAR
STARTCHAR uni042C
ENCODING 1068
SWIDTH 606 0
DWIDTH 7 0
BBX 7 8 0 0
BITMAP
6D00
1800
1800
1E90
1828
181C
1828
6EA0
ENDCHAR
STARTCHAR uni042D
ENCODING 1069
SWIDTH 667 0
DWIDTH 8 0
BBX 8 8 0 0
BITMAP
7AA0
6018
500D
06AD
000D
000C
5028
1AA0
ENDCHAR
STARTCHAR uni042E
ENCODING 1070
SWIDTH 1042 0
DWIDTH 13 0
BBX 12 8 0 0
BITMAP
7D0AA4
18340D
18700A
1DA007
186007
187006
182409
6D0964
ENDCHAR
STARTCHAR uni042F
ENCODING 1071
SWIDTH 654 0
DWIDTH 8 0
BBX 7 8 0 0
BITMAP
0A78
2834
2434
1834
07B4
0934
1834
7478
ENDCHAR
STARTCHAR uni0430
ENCODING 1072
SWIDTH 480 0
DWIDTH 6 0
BBX 6 6 0 0
BITMAP
2640
6180
0680
2580
6180
79D0
ENDCHAR
STARTCHAR uni0431
ENCODING 1073
SWIDTH 520 0
DWIDTH 6 0
BBX 6 9 0 0
BITMAP
0150
1B80
2400
5A80
A0A0
A060
6060
3090
1A80
ENDCHAR
STARTCHAR uni0432
ENCODING 1074
SWIDTH 505 0
DWIDTH 6 0
BBX 6 6 0 0
BITMAP
7A80
2490
2490
2A80
24A0
7990
ENDCHAR
STARTCHAR uni0433
ENCODING 1075
SWIDTH 429 0
DWIDTH 5 0
BBX 5 6 0 0
BITMAP
7AC0
2480
2400
2400
2400
7800
ENDCHAR
STARTCHAR uni0434
ENCODING 1076
SWIDTH 530 0
DWIDTH 6 0
BBX 6 8 0 -2
BITMAP
19D0
04C0
04C0
10C0
20C0
A5E0
C020
8020
ENDCHAR
STARTCHAR uni0435
ENCODING 1077
SWIDTH 464 0
DWIDTH 6 0
BBX 5 6 0 0
BITMAP
1A40
60C0
A580
9000
7040
1F40
ENDCHAR
STARTCHAR uni0436
ENCODING 1078
SWIDTH 754 0
DWIDTH 9 0
BBX 9 6 0 0
BITMAP
A1D280
14C500
04C400
0AD800
18C900
71D340
ENDCHAR
STARTCHAR uni0437
ENCODING 1079
SWIDTH 435 0
DWIDTH 5 0
BBX 5 6 0 0
BITMAP
6600
4240
0A00
0240
4180
6A40
ENDCHAR
STARTCHAR uni0438
ENCODING 1080
SWIDTH 609 0
DWIDTH 7 0
BBX 7 6 0 0
BITMAP
7874
2470
2570
2530
2830
7874
ENDCHAR
STARTCHAR uni0439
ENCODING 1081
SWIDTH 609 0
DWIDTH 7 0
BBX 7 9 0 0
BITMAP
0450
1860
0540
7874
2470
2570
2530
2830
7874
ENDCHAR
STARTCHAR uni043A
ENCODING 1082
SWIDTH 521 0
DWIDTH 6 0
BBX 6 6 0 0
BITMAP
78B0
2440
2500
2A00
2580
78A0
ENDCHAR
STARTCHAR uni043B
ENCODING 1083
SWIDTH 553 0
DWIDTH 7 0
BBX 6 6 0 0
BITMAP
19A0
0890
0890
0490
1490
E0A0
ENDCHAR
STARTCHAR uni043C
ENCODING 1084
SWIDTH 697 0
DWIDTH 8 0
BBX 8 6 0 0
BITMAP
781E
2C2C
291C
264C
238C
655E
ENDCHAR
STARTCHAR uni043D
ENCODING 1085
SWIDTH 605 0
DWIDTH 7 0
BBX 7 6 0 0
BITMAP
7874
2430
2970
2430
2430
7874
ENDCHAR
STARTCHAR uni043E
ENCODING 1086
SWIDTH 514 0
DWIDTH 6 0
BBX 6 6 0 0
BITMAP
1A80
6090
A060
A060
6090
1A80
ENDCHAR
STARTCHAR uni043F
ENCODING 1087
SWIDTH 591 0
DWIDTH 7 0
BBX 7 6 0 0
BITMAP
79B4
2430
2430
2430
2430
7874
ENDCHAR
STARTCHAR uni0440
ENCODING 1088
SWIDTH 537 0
DWIDTH 6 0
BBX 6 9 0 -3
BITMAP
76D0
3460
3030
3030
3460
3980
3000
3000
7800
ENDCHAR
STARTCHAR uni0441
ENCODING 1089
SWIDTH 446 0
DWIDTH 5 0
BBX 5 6 0 0
BITMAP
1640
6080
9000
9000
7040
2E40
ENDCHAR
STARTCHAR uni0442
ENCODING 1090
SWIDTH 456 0
DWIDTH 5 0
BBX 6 6 0 0
BITMAP
AE90
4910
0900
0900
0900
1E00
ENDCHAR
STARTCHAR uni0443
ENCODING 1091
SWIDTH 483 0
DWIDTH 6 0
BBX 6 9 0 -3
BITMAP
B0A0
3080
2480
1940
0A00
0500
0400
0800
A000
ENDCHAR
STARTCHAR uni0444
ENCODING 1092
SWIDTH 710 0
DWIDTH 9 0
BBX 8 12 0 -3
BITMAP
0040
0280
0180
2AD9
6186
A183
6183
6186
2AD9
0180
0180
02D0
ENDCHAR
STARTCHAR uni0445
ENCODING 1093
SWIDTH 479 0
DWIDTH 6 0
BBX 6 6 0 0
BITMAP
74D0
2940
0D00
0A00
2280
A1D0
ENDCHAR
STARTCHAR uni0446
ENCODING 1094
SWIDTH 590 0
DWIDTH 7 0
BBX 7 8 0 -2
BITMAP
78B4
2460
2460
2460
2460
79B4
0008
0008
ENDCHAR
STARTCHAR uni0447
ENCODING 1095
SWIDTH 535 0
DWIDTH 6 0
BBX 6 6 0 0
BITMAP
B5E0
6090
3090
19D0
0090
01E0
ENDCHAR
STARTCHAR uni0448
ENCODING 1096
SWIDTH 812 0
DWIDTH 10 0
BBX 9 6 0 0
BITMAP
78E280
249180
249180
249180
249180
79E680
ENDCHAR
STARTCHAR uni0449
ENCODING 1097
SWIDTH 814 0
DWIDTH 10 0
BBX 10 8 0 -2
BITMAP
78A280
249140
249140
249140
249140
79E690
000050
000010
ENDCHAR
STARTCHAR uni044A
ENCODING 1098
SWIDTH 568 0
DWIDTH 7 0
BBX 7 6 0 0
BITMAP
AE00
4900
0A90
0924
0924
1EA0
ENDCHAR
STARTCHAR uni044B
ENCODING 1099
SWIDTH 728 0
DWIDTH 9 0
BBX 8 6 0 0
BITMAP
780A
2406
2A46
24D6
2496
7A8A
ENDCHAR
STARTCHAR uni044C
ENCODING 1100
SWIDTH 489 0
DWIDTH 6 0
BBX 6 6 0 0
BITMAP
7800
2400
2A40
2490
2490
7A80
ENDCHAR
STARTCHAR uni044D
ENCODING 1101
SWIDTH 467 0
DWIDTH 6 0
BBX 5 6 0 0
BITMAP
6640
40C0
0AC0
00C0
41C0
2A40
ENDCHAR
STARTCHAR uni044E
ENCODING 1102
SWIDTH 774 0
DWIDTH 9 0
BBX 9 6 0 0
BITMAP
786600
24C280
2A8180
258180
248180
786600
ENDCHAR
STARTCHAR uni044F
ENCODING 1103
SWIDTH 518 0
DWIDTH 6 0
BBX 6 6 0 0
BITMAP
25D0
70C0
30C0
1EC0
18C0
71D0
ENDCHAR
STARTCHAR uni0450
ENCODING 1104
SWIDTH 464 0
DWIDTH 6 0
BBX 5 8 0 0
BITMAP
1C00
0500
1A40
60C0
A580
9000
7040
1F40
ENDCHAR
STARTCHAR uni0451
ENCODING 1105
SWIDTH 464 0
DWIDTH 6 0
BBX 5 8 0 0
BITMAP
3180
0000
1A40
60C0
A580
9000
7040
1F40
ENDCHAR
STARTCHAR uni0452
ENCODING 1106
SWIDTH 563 0
DWIDTH 7 0
BBX 6 12 0 -3
BITMAP
1000
7400
7A00
26D0
2460
2470
2430
2430
7820
0060
0450
0A40
ENDCHAR
STARTCHAR uni0453
ENCODING 1107
SWIDTH 429 0
DWIDTH 5 0
BBX 5 8 0 0
BITMAP
0600
0800
7AC0
2480
2400
2400
2400
7800
ENDCHAR
STARTCHAR uni0454
ENCODING 1108
SWIDTH 460 0
DWIDTH 6 0
BBX 5 6 0 0
BITMAP
1680
6040
A900
A000
7040
2A40
ENDCHAR
STARTCHAR uni0455
ENCODING 1109
SWIDTH 394 0
DWIDTH 5 0
BBX 5 6 0 0
BITMAP
2600
5100
7800
0B00
4240
6600
ENDCHAR
STARTCHAR uni0456
ENCODING 1110
SWIDTH 285 0
DWIDTH 3 0
BBX 3 8 0 0
BITMAP
24
10
74
24
24
24
24
78
ENDCHAR
STARTCHAR uni0457
ENCODING 1111
SWIDTH 285 0
DWIDTH 3 0
BBX 5 8 -1 0
BITMAP
7240
1100
1D00
0900
0900
0900
0900
1E00
ENDCHAR
STARTCHAR uni0458
ENCODING 1112
SWIDTH 263 0
DWIDTH 3 0
BBX 4 11 -1 -3
BITMAP
0D
04
1D
09
09
09
09
09
08
48
A4
ENDCHAR
STARTCHAR uni0459
ENCODING 1113
SWIDTH 742 0
DWIDTH 9 0
BBX 9 6 0 0
BITMAP
19A000
089000
08A900
049240
149280
E1EA00
ENDCHAR
STARTCHAR uni045A
ENCODING 1114
SWIDTH 790 0
DWIDTH 9 0
BBX 10 6 0 0
BITMAP
787400
243000
297640
2430C0
2430D0
787680
ENDCHAR
STARTCHAR uni045B
ENCODING 1115
SWIDTH 579 0
DWIDTH 7 0
BBX 7 9 0 0
BITMAP
7400
3400
7A00
26D0
2460
2460
2460
2460
78B4
ENDCHAR
STARTCHAR uni045C
ENCODING 1116
SWIDTH 521 0
DWIDTH 6 0
BBX 6 8 0 0
BITMAP
0340
0500
78B0
2440
2500
2A00
2580
78A0
ENDCHAR
STARTCHAR uni045D
ENCODING 1117
SWIDTH 609 0
DWIDTH 7 0
BBX 7 8 0 0
BITMAP
0900
0200
7874
2470
2570
2530
2830
7874
ENDCHAR
STARTCHAR uni045E
ENCODING 1118
SWIDTH 483 0
DWIDTH 6 0
BBX 6 12 0 -3
BITMAP
1040
34C0
1540
B0A0
3080
2480
1940
0E00
0600
0500
0800
A400
ENDCHAR
STARTCHAR uni045F
ENCODING 1119
SWIDTH 587 0
DWIDTH 7 0
BBX 7 9 0 -3
BITMAP
78B4
2460
2460
2460
2460
79B4
0200
0300
0100
ENDCHAR
STARTCHAR uni0462
ENCODING 1122
SWIDTH 727 0
DWIDTH 9 0
BBX 9 9 0 0
BITMAP
064000
ABA900
830200
030000
036800
030700
030340
030700
0BA900
ENDCHAR
STARTCHAR uni0463
ENCODING 1123
SWIDTH 561 0
DWIDTH 7 0
BBX 7 9 0 0
BITMAP
1400
0C00
0800
9E90
4810
0A90
0824
0824
1EA0
ENDCHAR
STARTCHAR uni046A
ENCODING 1130
SWIDTH 881 0
DWIDTH 11 0
BBX 11 8 0 0
BITMAP
0EAA40
070200
028800
00D400
02B900
0D6240
2861C0
74B4A4
ENDCHAR
STARTCHAR uni046B
ENCODING 1131
SWIDTH 667 0
DWIDTH 8 0
BBX 8 6 0 0
BITMAP
2D64
0920
0380
1AA4
2558
B28E
ENDCHAR
STARTCHAR uni0472
ENCODING 1138
SWIDTH 737 0
DWIDTH 9 0
BBX 9 8 0 0
BITMAP
0AA400
280A00
300700
778340
70B740
300700
240900
0A6400
ENDCHAR
STARTCHAR uni0473
ENCODING 1139
SWIDTH 514 0
DWIDTH 6 0
BBX 6 6 0 0
BITMAP
1A80
6090
A960
A2A0
6090
1980
ENDCHAR
STARTCHAR uni0474
ENCODING 1140
SWIDTH 705 0
DWIDTH 8 0
BBX 9 8 0 0
BITMAP
B80780
340940
1C1400
0D2000
0A2000
035000
02C000
018000
ENDCHAR
STARTCHAR uni0475
ENCODING 1141
SWIDTH 520 0
DWIDTH 6 0
BBX 7 6 0 0
BITMAP
B474
3080
2440
1900
0E00
0900
ENDCHAR
STARTCHAR uni0490
ENCODING 1168
SWIDTH 525 0
DWIDTH 6 0
BBX 7 10 0 0
BITMAP
0014
0024
6EA0
1800
1800
1800
1800
1800
1800
6D00
ENDCHAR
STARTCHAR uni0491
ENCODING 1169
SWIDTH 404 0
DWIDTH 5 0
BBX 5 8 0 0
BITMAP
0040
0080
7940
2400
2400
2400
2400
7800
ENDCHAR
STARTCHAR uni1D00
ENCODING 7424
SWIDTH 511 0
DWIDTH 6 0
BBX 6 6 0 0
BITMAP
0600
0700
1240
1680
10D0
90E0
ENDCHAR
STARTCHAR uni1D07
ENCODING 7431
SWIDTH 495 0
DWIDTH 6 0
BBX 6 6 0 0
BITMAP
7990
2400
2440
2A40
2410
7990
ENDCHAR
STARTCHAR uni1D1C
ENCODING 7452
SWIDTH 584 0
DWIDTH 7 0
BBX 7 6 0 0
BITMAP
7424
3020
3020
3020
2420
1A90
ENDCHAR
STARTCHAR uni1D81
ENCODING 7553
SWIDTH 539 0
DWIDTH 6 0
BBX 6 12 0 -3
BITMAP
0190
0090
0090
1AD0
6090
9090
A090
6090
2EA0
0010
0010
0190
ENDCHAR
STARTCHAR uni1D84
ENCODING 7556
SWIDTH 542 0
DWIDTH 7 0
BBX 7 12 0 -3
BITMAP
7400
2400
2400
25D0
2600
2900
2700
2580
78E4
0004
0004
00A0
ENDCHAR
STARTCHAR uni1D85
ENCODING 7557
SWIDTH 283 0
DWIDTH 3 0
BBX 3 12 0 -3
BITMAP
74
24
24
24
24
24
24
24
78
04
04
64
ENDCHAR
STARTCHAR uni1D8A
ENCODING 7562
SWIDTH 395 0
DWIDTH 5 0
BBX 5 9 0 -3
BITMAP
2600
5100
7800
0B00
4240
6600
0100
0100
1900
ENDCHAR
STARTCHAR uni1D8D
ENCODING 7565
SWIDTH 479 0
DWIDTH 6 0
BBX 6 9 0 -3
BITMAP
74D0
2940
0D00
0A00
2280
A1D0
0020
0010
0290
ENDCHAR
STARTCHAR uni1D8E
ENCODING 7566
SWIDTH 458 0
DWIDTH 6 0
BBX 5 9 0 -3
BITMAP
6AC0
4340
0A00
1C00
3440
7AC0
0080
0040
0640
ENDCHAR
STARTCHAR uni1D98
ENCODING 7576
SWIDTH 368 0
DWIDTH 4 0
BBX 6 12 0 -3
BITMAP
0290
0510
0900
0900
0900
0900
0900
4900
A800
8000
8000
6400
ENDCHAR
STARTCHAR uni1D9B
ENCODING 7579
SWIDTH 462 0
DWIDTH 6 0
BBX 5 5 0 3
BITMAP
6B40
20C0
2080
2080
2640
ENDCHAR
STARTCHAR uni1DA3
ENCODING 7587
SWIDTH 488 0
DWIDTH 6 0
BBX 6 7 0 1
BITMAP
75D0
30C0
30C0
30C0
29C0
00C0
00D0
ENDCHAR
STARTCHAR uni1E00
ENCODING 7680
SWIDTH 718 0
DWIDTH 9 0
BBX 9 11 0 -3
BITMAP
018000
02C000
02A000
057000
083400
1AAC00
200D00
B41F40
014000
015000
014000
ENDCHAR
STARTCHAR uni1E01
ENCODING 7681
SWIDTH 480 0
DWIDTH 6 0
BBX 6 9 0 -3
BITMAP
2640
6180
0680
2580
6180
79D0
0900
1200
0900
ENDCHAR
STARTCHAR uni1E02
ENCODING 7682
SWIDTH 618 0
DWIDTH 7 0
BBX 7 10 0 0
BITMAP
0300
0100
6EA0
1828
1824
1EA0
1824
181C
181C
6D64
ENDCHAR
STARTCHAR uni1E03
ENCODING 7683
SWIDTH 522 0
DWIDTH 6 0
BBX 6 10 0 0
BITMAP
0A00
7000
3000
3000
3680
34A0
3060
3060
3090
2980
ENDCHAR
STARTCHAR uni1E04
ENCODING 7684
SWIDTH 618 0
DWIDTH 7 0
BBX 7 10 0 -2
BITMAP
6EA0
1828
1824
1EA0
1824
181C
181C
6D64
0000
0300
ENDCHAR
STARTCHAR uni1E05
ENCODING 7685
SWIDTH 522 0
DWIDTH 6 0
BBX 6 11 0 -2
BITMAP
7000
3000
3000
3680
34A0
3060
3060
3090
2980
0000
0600
ENDCHAR
STARTCHAR uni1E06
ENCODING 7686
SWIDTH 618 0
DWIDTH 7 0
BBX 7 10 0 -2
BITMAP
6EA0
1828
1824
1EA0
1824
181C
181C
6D64
0000
0A90
ENDCHAR
STARTCHAR uni1E07
ENCODING 7687
SWIDTH 522 0
DWIDTH 6 0
BBX 6 11 0 -2
BITMAP
7000
3000
3000
3680
34A0
3060
3060
3090
2980
0000
2A80
ENDCHAR
STARTCHAR uni1E08
ENCODING 7688
SWIDTH 670 0
DWIDTH 8 0
BBX 8 14 0 -3
BITMAP
0050
0180
0000
06AD
2809
3005
7000
7000
7000
2805
0BE4
0180
0050
0180
ENDCHAR
STARTCHAR uni1E09
ENCODING 7689
SWIDTH 446 0
DWIDTH 5 0
BBX 5 11 0 -3
BITMAP
0300
0900
1640
6080
9000
9000
7040
2E40
0400
0600
0600
ENDCHAR
STARTCHAR uni1E0A
ENCODING 7690
SWIDTH 730 0
DWIDTH 9 0
BBX 8 10 0 0
BITMAP
0180
0000
6EA4
180D
1807
1807
1803
1807
1809
6DA4
ENDCHAR
STARTCHAR uni1E0B
ENCODING 7691
SWIDTH 539 0
DWIDTH 6 0
BBX 6 10 0 0
BITMAP
0600
0190
0090
0090
1AD0
6090
9090
A090
6090
2EA0
ENDCHAR
STARTCHAR uni1E0C
ENCODING 7692
SWIDTH 730 0
DWIDTH 9 0
BBX 8 10 0 -2
BITMAP
6EA4
180D
1807
1807
1803
1807
1809
6DA4
0000
0240
ENDCHAR
STARTCHAR uni1E0D
ENCODING 7693
SWIDTH 539 0
DWIDTH 6 0
BBX 6 11 0 -2
BITMAP
0190
0090
0090
1AD0
6090
9090
A090
6090
2EA0
0000
0600
ENDCHAR
STARTCHAR uni1E0E
ENCODING 7694
SWIDTH 730 0
DWIDTH 9 0
BBX 8 10 0 -2
BITMAP
6EA4
180D
1807
1807
1803
1807
1809
6DA4
0000
0A90
ENDCHAR
STARTCHAR uni1E0F
ENCODING 7695
SWIDTH 539 0
DWIDTH 6 0
BBX 6 11 0 -2
BITMAP
0190
0090
0090
1AD0
6090
9090
A090
6090
2EA0
0000
1A80
ENDCHAR
STARTCHAR uni1E10
ENCODING 7696
SWIDTH 730 0
DWIDTH 9 0
BBX 8 12 0 -4
BITMAP
6EA4
180D
1807
1807
1803
1807
1809
6DA4
0000
0240
0080
0100
ENDCHAR
STARTCHAR uni1E11
ENCODING 7697
SWIDTH 539 0
DWIDTH 6 0
BBX 6 13 0 -4
BITMAP
0190
0090
0090
1AD0
6090
9090
A090
6090
2EA0
0000
0600
0200
0500
ENDCHAR
STARTCHAR uni1E12
ENCODING 7698
SWIDTH 730 0
DWIDTH 9 0
BBX 8 10 0 -2
BITMAP
6EA4
180D
1807
1807
1803
1807
1809
6DA4
0280
0550
ENDCHAR
STARTCHAR uni1E13
ENCODING 7699
SWIDTH 539 0
DWIDTH 6 0
BBX 6 11 0 -2
BITMAP
0190
0090
0090
1AD0
6090
9090
A090
6090
2EA0
0600
1440
ENDCHAR
STARTCHAR uni1E14
ENCODING 7700
SWIDTH 626 0
DWIDTH 8 0
BBX 7 12 0 0
BITMAP
0500
0180
0A90
0000
6EA8
1804
1810
1DA0
1810
1800
1808
6EAC
ENDCHAR
STARTCHAR uni1E15
ENCODING 7701
SWIDTH 464 0
DWIDTH 6 0
BBX 5 10 0 0
BITMAP
1C00
0500
2A40
0000
1A40
60C0
A580
9000
7040
1F40
ENDCHAR
STARTCHAR uni1E16
ENCODING 7702
SWIDTH 626 0
DWIDTH 8 0
BBX 7 12 0 0
BITMAP
0040
0240
0A90
0000
6EA8
1804
1810
1DA0
1810
1800
1808
6EAC
ENDCHAR
STARTCHAR uni1E17
ENCODING 7703
SWIDTH 464 0
DWIDTH 6 0
BBX 5 10 0 0
BITMAP
0300
0500
2A40
0000
1A40
60C0
A580
9000
7040
1F40
ENDCHAR
STARTCHAR uni1E18
ENCODING 7704
SWIDTH 626 0
DWIDTH 8 0
BBX 7 10 0 -2
BITMAP
6EA8
1804
1810
1DA0
1810
1800
1808
6EAC
0280
0550
ENDCHAR
STARTCHAR uni1E19
ENCODING 7705
SWIDTH 464 0
DWIDTH 6 0
BBX 5 8 0 -2
BITMAP
1A40
60C0
A580
9000
7040
1F40
0A00
1540
ENDCHAR
STARTCHAR uni1E1A
ENCODING 7706
SWIDTH 626 0
DWIDTH 8 0
BBX 7 10 0 -2
BITMAP
6EA8
1804
1810
1DA0
1810
1800
1808
6EAC
0A50
0590
ENDCHAR
STARTCHAR uni1E1B
ENCODING 7707
SWIDTH 464 0
DWIDTH 6 0
BBX 5 8 0 -2
BITMAP
1A40
60C0
A580
9000
7040
1F40
1940
1640
ENDCHAR
STARTCHAR uni1E1C
ENCODING 7708
SWIDTH 626 0
DWIDTH 8 0
BBX 7 14 0 -3
BITMAP
0810
0680
0000
6EA8
1804
1810
1DA0
1810
1800
1808
6EAC
0180
0080
0140
ENDCHAR
STARTCHAR uni1E1D
ENCODING 7709
SWIDTH 464 0
DWIDTH 6 0
BBX 5 11 0 -3
BITMAP
2040
1A00
1A40
60C0
A580
9000
7040
1F40
0600
0200
0500
ENDCHAR
STARTCHAR uni1E1E
ENCODING 7710
SWIDTH 588 0
DWIDTH 7 0
BBX 7 10 0 0
BITMAP
0240
0000
6EA8
1804
1810
1DA0
1810
1800
1800
6D00
ENDCHAR
STARTCHAR uni1E1F
ENCODING 7711
SWIDTH 307 0
DWIDTH 4 0
BBX 5 10 0 0
BITMAP
2400
1A40
2400
2400
7900
2400
2400
2400
2400
7800
ENDCHAR
STARTCHAR uni1E20
ENCODING 7712
SWIDTH 720 0
DWIDTH 9 0
BBX 8 10 0 0
BITMAP
06A4
0000
06AD
2809
3005
7000
701A
7009
2809
0AA8
ENDCHAR
STARTCHAR uni1E21
ENCODING 7713
SWIDTH 484 0
DWIDTH 6 0
BBX 6 11 0 -3
BITMAP
2A40
0000
26D0
60C0
6180
2600
6000
7F90
5060
9050
7A40
ENDCHAR
STARTCHAR uni1E22
ENCODING 7714
SWIDTH 777 0
DWIDTH 9 0
BBX 9 10 0 0
BITMAP
00D000
000000
6D1B40
180600
180600
1D5A00
180600
180600
180600
6D1B40
ENDCHAR
STARTCHAR uni1E23
ENCODING 7715
SWIDTH 577 0
DWIDTH 7 0
BBX 7 10 0 0
BITMAP
0300
7500
2400
2400
26D0
2460
2460
2460
2460
78B4
ENDCHAR
STARTCHAR uni1E24
ENCODING 7716
SWIDTH 777 0
DWIDTH 9 0
BBX 9 10 0 -2
BITMAP
6D1B40
180600
180600
1D5A00
180600
180600
180600
6D1B40
000000
009000
ENDCHAR
STARTCHAR uni1E25
ENCODING 7717
SWIDTH 577 0
DWIDTH 7 0
BBX 7 11 0 -2
BITMAP
7400
2400
2400
26D0
2460
2460
2460
2460
78B4
0000
0300
ENDCHAR
STARTCHAR uni1E26
ENCODING 7718
SWIDTH 777 0
DWIDTH 9 0
BBX 9 10 0 0
BITMAP
072800
000000
6D1B40
180600
180600
1D5A00
180600
180600
180600
6D1B40
ENDCHAR
STARTCHAR uni1E27
ENCODING 7719
SWIDTH 577 0
DWIDTH 7 0
BBX 7 10 0 0
BITMAP
1890
7400
2400
2400
26D0
2460
2460
2460
2460
78B4
ENDCHAR
STARTCHAR uni1E28
ENCODING 7720
SWIDTH 777 0
DWIDTH 9 0
BBX 9 11 0 -3
BITMAP
6D1B40
180600
180600
1D5A00
180600
180600
180600
7D1B40
180000
050000
180000
ENDCHAR
STARTCHAR uni1E29
ENCODING 7721
SWIDTH 577 0
DWIDTH 7 0
BBX 7 12 0 -3
BITMAP
7400
2400
2400
26D0
2460
2460
2460
2460
78B4
2400
0800
2400
ENDCHAR
STARTCHAR uni1E2A
ENCODING 7722
SWIDTH 777 0
DWIDTH 9 0
BBX 9 11 0 -3
BITMAP
6D1B40
180600
180600
1D5A00
180600
180600
180600
6D1B40
000000
011400
01A000
ENDCHAR
STARTCHAR uni1E2B
ENCODING 7723
SWIDTH 577 0
DWIDTH 7 0
BBX 7 12 0 -3
BITMAP
7400
2400
2400
26D0
2460
2460
2460
2460
78B4
0000
0440
0A80
ENDCHAR
STARTCHAR uni1E2C
ENCODING 7724
SWIDTH 357 0
DWIDTH 4 0
BBX 4 10 0 -2
BITMAP
6D
18
18
18
18
18
18
6D
65
49
ENDCHAR
STARTCHAR uni1E2D
ENCODING 7725
SWIDTH 285 0
DWIDTH 3 0
BBX 4 10 0 -2
BITMAP
24
10
74
24
24
24
24
78
A5
58
ENDCHAR
STARTCHAR uni1E2E
ENCODING 7726
SWIDTH 357 0
DWIDTH 4 0
BBX 4 13 0 0
BITMAP
05
24
00
93
01
6D
18
18
18
18
18
18
6D
ENDCHAR
STARTCHAR uni1E2F
ENCODING 7727
SWIDTH 285 0
DWIDTH 3 0
BBX 5 10 -1 0
BITMAP
0A00
0800
7240
1100
1D00
0900
0900
0900
0900
1E00
ENDCHAR
STARTCHAR uni1E30
ENCODING 7728
SWIDTH 702 0
DWIDTH 8 0
BBX 8 11 0 0
BITMAP
0050
0140
0000
6D2D
1820
1880
1A00
1A40
18D0
1834
6D2E
ENDCHAR
STARTCHAR uni1E31
ENCODING 7729
SWIDTH 542 0
DWIDTH 7 0
BBX 7 11 0 0
BITMAP
0140
0500
7400
2400
2400
25D0
2600
2900
2700
2580
78E4
ENDCHAR
STARTCHAR uni1E32
ENCODING 7730
SWIDTH 702 0
DWIDTH 8 0
BBX 8 10 0 -2
BITMAP
6D2D
1820
1880
1A00
1A40
18D0
1834
6D2E
0000
0180
ENDCHAR
STARTCHAR uni1E33
ENCODING 7731
SWIDTH 542 0
DWIDTH 7 0
BBX 7 11 0 -2
BITMAP
7400
2400
2400
25D0
2600
2900
2700
2580
78E4
0000
0600
ENDCHAR
STARTCHAR uni1E34
ENCODING 7732
SWIDTH 702 0
DWIDTH 8 0
BBX 8 10 0 -2
BITMAP
6D2D
1820
1880
1A00
1A40
18D0
1834
6D2E
0000
06A0
ENDCHAR
STARTCHAR uni1E35
ENCODING 7733
SWIDTH 542 0
DWIDTH 7 0
BBX 7 11 0 -2
BITMAP
7400
2400
2400
25D0
2600
2900
2700
2580
78E4
0000
1A80
ENDCHAR
STARTCHAR uni1E36
ENCODING 7734
SWIDTH 585 0
DWIDTH 7 0
BBX 7 10 0 -2
BITMAP
6D00
1800
1800
1800
1800
1800
1808
6EA8
0000
0300
ENDCHAR
STARTCHAR uni1E37
ENCODING 7735
SWIDTH 283 0
DWIDTH 3 0
BBX 3 11 0 -2
BITMAP
74
24
24
24
24
24
24
24
78
00
24
ENDCHAR
STARTCHAR uni1E38
ENCODING 7736
SWIDTH 585 0
DWIDTH 7 0
BBX 7 12 0 -2
BITMAP
6A00
0000
6D00
1800
1800
1800
1800
1800
1808
6EA8
0000
0300
ENDCHAR
STARTCHAR uni1E39
ENCODING 7737
SWIDTH 283 0
DWIDTH 3 0
BBX 4 12 0 -2
BITMAP
A9
74
24
24
24
24
24
24
24
78
00
24
ENDCHAR
STARTCHAR uni1E3A
ENCODING 7738
SWIDTH 585 0
DWIDTH 7 0
BBX 7 10 0 -2
BITMAP
6D00
1800
1800
1800
1800
1800
1808
6EA8
0000
1A90
ENDCHAR
STARTCHAR uni1E3B
ENCODING 7739
SWIDTH 283 0
DWIDTH 3 0
BBX 4 11 0 -2
BITMAP
74
24
24
24
24
24
24
24
78
00
A9
ENDCHAR
STARTCHAR uni1E3C
ENCODING 7740
SWIDTH 585 0
DWIDTH 7 0
BBX 7 10 0 -2
BITMAP
6D00
1800
1800
1800
1800
1800
1808
6EA8
0740
0880
ENDCHAR
STARTCHAR uni1E3D
ENCODING 7741
SWIDTH 283 0
DWIDTH 3 0
BBX 3 11 0 -2
BITMAP
74
24
24
24
24
24
24
24
78
34
88
ENDCHAR
STARTCHAR uni1E3E
ENCODING 7742
SWIDTH 895 0
DWIDTH 11 0
BBX 10 11 0 0
BITMAP
001400
005000
000000
7C01E0
2D02C0
2702C0
2348C0
2288C0
20D4C0
20B0C0
7851E0
ENDCHAR
STARTCHAR uni1E3F
ENCODING 7743
SWIDTH 852 0
DWIDTH 10 0
BBX 10 8 0 0
BITMAP
002400
005000
76DA80
2460C0
2460C0
2460C0
2460C0
78B5D0
ENDCHAR
STARTCHAR uni1E40
ENCODING 7744
SWIDTH 895 0
DWIDTH 11 0
BBX 10 10 0 0
BITMAP
006000
000000
7C01E0
2D02C0
2702C0
2348C0
2288C0
20D4C0
20B0C0
7851E0
ENDCHAR
STARTCHAR uni1E41
ENCODING 7745
SWIDTH 852 0
DWIDTH 10 0
BBX 10 8 0 0
BITMAP
006000
000000
76DA80
2460C0
2460C0
2460C0
2460C0
78B5D0
ENDCHAR
STARTCHAR uni1E42
ENCODING 7746
SWIDTH 895 0
DWIDTH 11 0
BBX 10 10 0 -2
BITMAP
7C01E0
2D02C0
2702C0
2348C0
2288C0
20D4C0
20B0C0
7851E0
000000
006000
ENDCHAR
STARTCHAR uni1E43
ENCODING 7747
SWIDTH 852 0
DWIDTH 10 0
BBX 10 8 0 -2
BITMAP
76DA80
2460C0
2460C0
2460C0
2460C0
78B5D0
000000
006000
ENDCHAR
STARTCHAR uni1E44
ENCODING 7748
SWIDTH 742 0
DWIDTH 9 0
BBX 9 10 0 0
BITMAP
00C000
004000
780B40
2E0200
274100
21C100
20A100
202900
200D00
780500
ENDCHAR
STARTCHAR uni1E45
ENCODING 7749
SWIDTH 576 0
DWIDTH 7 0
BBX 7 8 0 0
BITMAP
0300
0000
76D0
2460
2460
2460
2460
78B4
ENDCHAR
STARTCHAR uni1E46
ENCODING 7750
SWIDTH 742 0
DWIDTH 9 0
BBX 9 10 0 -2
BITMAP
780B40
2E0200
274100
21C100
20A100
202900
200D00
780500
000000
018000
ENDCHAR
STARTCHAR uni1E47
ENCODING 7751
SWIDTH 576 0
DWIDTH 7 0
BBX 7 8 0 -2
BITMAP
76D0
2460
2460
2460
2460
78B4
0000
0300
ENDCHAR
STARTCHAR uni1E48
ENCODING 7752
SWIDTH 742 0
DWIDTH 9 0
BBX 9 10 0 -2
BITMAP
780B40
2E0200
274100
21C100
20A100
202900
200D00
780500
000000
06A000
ENDCHAR
STARTCHAR uni1E49
ENCODING 7753
SWIDTH 576 0
DWIDTH 7 0
BBX 7 8 0 -2
BITMAP
76D0
2460
2460
2460
2460
78B4
0000
1A90
ENDCHAR
STARTCHAR uni1E4A
ENCODING 7754
SWIDTH 742 0
DWIDTH 9 0
BBX 9 10 0 -2
BITMAP
780B40
2E0200
274100
21C100
20A100
202900
200D00
780500
01C000
022000
ENDCHAR
STARTCHAR uni1E4B
ENCODING 7755
SWIDTH 576 0
DWIDTH 7 0
BBX 7 8 0 -2
BITMAP
76D0
2460
2460
2460
2460
78B4
0740
0880
ENDCHAR
STARTCHAR uni1E4C
ENCODING 7756
SWIDTH 738 0
DWIDTH 9 0
BBX 9 13 0 0
BITMAP
005000
018000
029400
04A000
000000
0A6400
280A00
300700
700340
700340
300700
280900
0AA400
ENDCHAR
STARTCHAR uni1E4D
ENCODING 7757
SWIDTH 514 0
DWIDTH 6 0
BBX 6 10 0 0
BITMAP
0340
1E40
1280
0000
1A80
6090
A060
A060
6090
1A80
ENDCHAR
STARTCHAR uni1E4E
ENCODING 7758
SWIDTH 738 0
DWIDTH 9 0
BBX 9 11 0 0
BITMAP
0BB800
04B000
000000
0A6400
280A00
300700
700340
700340
300700
280900
0AA400
ENDCHAR
STARTCHAR uni1E4F
ENCODING 7759
SWIDTH 514 0
DWIDTH 6 0
BBX 6 10 0 0
BITMAP
24C0
1940
1280
0000
1A80
6090
A060
A060
6090
1A80
ENDCHAR
STARTCHAR uni1E50
ENCODING 7760
SWIDTH 738 0
DWIDTH 9 0
BBX 9 12 0 0
BITMAP
014000
009000
06A000
000000
0A6400
280A00
300700
700340
700340
300700
280900
0AA400
ENDCHAR
STARTCHAR uni1E51
ENCODING 7761
SWIDTH 514 0
DWIDTH 6 0
BBX 6 10 0 0
BITMAP
0C00
0600
1A80
0000
1A80
6090
A060
A060
6090
1A80
ENDCHAR
STARTCHAR uni1E52
ENCODING 7762
SWIDTH 738 0
DWIDTH 9 0
BBX 9 12 0 0
BITMAP
005000
018000
06A000
000000
0A6400
280A00
300700
700340
700340
300700
280900
0AA400
ENDCHAR
STARTCHAR uni1E53
ENCODING 7763
SWIDTH 514 0
DWIDTH 6 0
BBX 6 10 0 0
BITMAP
0340
0500
1A80
0000
1A80
6090
A060
A060
6090
1A80
ENDCHAR
STARTCHAR uni1E54
ENCODING 7764
SWIDTH 569 0
DWIDTH 7 0
BBX 7 11 0 0
BITMAP
0140
0600
0000
2EA0
1834
1824
1830
1E90
1800
1800
6D00
ENDCHAR
STARTCHAR uni1E55
ENCODING 7765
SWIDTH 537 0
DWIDTH 6 0
BBX 6 11 0 -3
BITMAP
0240
0500
76D0
3460
3030
3030
3460
3980
3000
3000
7800
ENDCHAR
STARTCHAR uni1E56
ENCODING 7766
SWIDTH 569 0
DWIDTH 7 0
BBX 7 10 0 0
BITMAP
0300
0100
2EA0
1834
1824
1830
1E90
1800
1800
6D00
ENDCHAR
STARTCHAR uni1E57
ENCODING 7767
SWIDTH 537 0
DWIDTH 6 0
BBX 6 11 0 -3
BITMAP
0600
0000
76D0
3460
3030
3030
3460
3980
3000
3000
7800
ENDCHAR
STARTCHAR uni1E58
ENCODING 7768
SWIDTH 659 0
DWIDTH 8 0
BBX 8 10 0 0
BITMAP
0240
0000
6DA0
1824
1828
1830
1E80
1890
1834
6D1D
ENDCHAR
STARTCHAR uni1E59
ENCODING 7769
SWIDTH 380 0
DWIDTH 5 0
BBX 5 8 0 0
BITMAP
1800
0000
7740
2900
2400
2400
2400
7800
ENDCHAR
STARTCHAR uni1E5A
ENCODING 7770
SWIDTH 659 0
DWIDTH 8 0
BBX 8 10 0 -2
BITMAP
6DA0
1824
1828
1830
1E80
1890
1834
6D1D
0000
0280
ENDCHAR
STARTCHAR uni1E5B
ENCODING 7771
SWIDTH 380 0
DWIDTH 5 0
BBX 5 8 0 -2
BITMAP
7740
2900
2400
2400
2400
7800
0000
2400
ENDCHAR
STARTCHAR uni1E5C
ENCODING 7772
SWIDTH 659 0
DWIDTH 8 0
BBX 8 12 0 -2
BITMAP
0A90
0000
6DA0
1824
1828
1830
1E80
1890
1834
6D1D
0000
0280
ENDCHAR
STARTCHAR uni1E5D
ENCODING 7773
SWIDTH 380 0
DWIDTH 5 0
BBX 5 10 0 -2
BITMAP
6A00
0000
7740
2900
2400
2400
2400
7800
0000
2400
ENDCHAR
STARTCHAR uni1E5E
ENCODING 7774
SWIDTH 659 0
DWIDTH 8 0
BBX 8 10 0 -2
BITMAP
6DA0
1824
1828
1830
1E80
1890
1834
6D1D
0000
0AA0
ENDCHAR
STARTCHAR uni1E5F
ENCODING 7775
SWIDTH 380 0
DWIDTH 5 0
BBX 5 8 0 -2
BITMAP
7740
2900
2400
2400
2400
7800
0000
A900
ENDCHAR
STARTCHAR uni1E60
ENCODING 7776
SWIDTH 504 0
DWIDTH 6 0
BBX 6 10 0 0
BITMAP
0A00
0000
2AD0
6050
7400
2E00
06C0
40A0
90A0
7A80
ENDCHAR
STARTCHAR uni1E61
ENCODING 7777
SWIDTH 394 0
DWIDTH 5 0
BBX 5 8 0 0
BITMAP
1C00
0000
2600
5100
7800
0B00
4240
6600
ENDCHAR
STARTCHAR uni1E62
ENCODING 7778
SWIDTH 504 0
DWIDTH 6 0
BBX 6 10 0 -2
BITMAP
2AD0
6050
7400
2E00
06C0
40A0
90A0
7A80
0000
0900
ENDCHAR
STARTCHAR uni1E63
ENCODING 7779
SWIDTH 394 0
DWIDTH 5 0
BBX 5 8 0 -2
BITMAP
2600
5100
7800
0B00
4240
6600
0000
1800
ENDCHAR
STARTCHAR uni1E64
ENCODING 7780
SWIDTH 504 0
DWIDTH 6 0
BBX 6 11 0 0
BITMAP
1940
0600
0000
2AD0
6050
7400
2E00
06C0
40A0
90A0
7A80
ENDCHAR
STARTCHAR uni1E65
ENCODING 7781
SWIDTH 394 0
DWIDTH 5 0
BBX 5 9 0 0
BITMAP
2000
1600
0800
2600
5100
7800
0B00
4240
6600
ENDCHAR
STARTCHAR uni1E66
ENCODING 7782
SWIDTH 504 0
DWIDTH 6 0
BBX 6 12 0 0
BITMAP
0100
1640
0A00
0000
2AD0
6050
7400
2E00
06C0
40A0
90A0
7A80
ENDCHAR
STARTCHAR uni1E67
ENCODING 7783
SWIDTH 394 0
DWIDTH 5 0
BBX 5 10 0 0
BITMAP
0800
2600
1C00
0000
2600
5100
7800
0B00
4240
6600
ENDCHAR
STARTCHAR uni1E68
ENCODING 7784
SWIDTH 504 0
DWIDTH 6 0
BBX 6 12 0 -2
BITMAP
0A00
0000
2AD0
6050
7400
2E00
06C0
40A0
90A0
7A80
0000
0900
ENDCHAR
STARTCHAR uni1E69
ENCODING 7785
SWIDTH 394 0
DWIDTH 5 0
BBX 5 10 0 -2
BITMAP
1C00
0000
2600
5100
7800
0B00
4240
6600
0000
1800
ENDCHAR
STARTCHAR uni1E6A
ENCODING 7786
SWIDTH 603 0
DWIDTH 7 0
BBX 7 10 0 0
BITMAP
0340
0000
ABAC
8348
0340
0340
0340
0340
0340
0780
ENDCHAR
STARTCHAR uni1E6B
ENCODING 7787
SWIDTH 315 0
DWIDTH 4 0
BBX 4 9 0 0
BITMAP
24
10
20
79
30
30
30
30
29
ENDCHAR
STARTCHAR uni1E6C
ENCODING 7788
SWIDTH 603 0
DWIDTH 7 0
BBX 7 10 0 -2
BITMAP
ABAC
8348
0340
0340
0340
0340
0340
0780
0000
0340
ENDCHAR
STARTCHAR uni1E6D
ENCODING 7789
SWIDTH 315 0
DWIDTH 4 0
BBX 4 10 0 -2
BITMAP
10
20
79
30
30
30
30
29
00
18
ENDCHAR
STARTCHAR uni1E6E
ENCODING 7790
SWIDTH 603 0
DWIDTH 7 0
BBX 7 10 0 -2
BITMAP
ABAC
8348
0340
0340
0340
0340
0340
0780
0000
0A90
ENDCHAR
STARTCHAR uni1E6F
ENCODING 7791
SWIDTH 315 0
DWIDTH 4 0
BBX 4 10 0 -2
BITMAP
10
20
79
30
30
30
30
29
00
6A
ENDCHAR
STARTCHAR uni1E70
ENCODING 7792
SWIDTH 603 0
DWIDTH 7 0
BBX 7 10 0 -2
BITMAP
ABAC
8348
0340
0340
0340
0340
0340
0780
0340
0880
ENDCHAR
STARTCHAR uni1E71
ENCODING 7793
SWIDTH 315 0
DWIDTH 4 0
BBX 4 10 0 -2
BITMAP
10
20
79
30
30
30
30
29
18
51
ENDCHAR
STARTCHAR uni1E72
ENCODING 7794
SWIDTH 752 0
DWIDTH 9 0
BBX 9 10 0 -2
BITMAP
7D0B40
280200
280200
280200
280200
280200
1C0500
06A400
000000
062400
ENDCHAR
STARTCHAR uni1E73
ENCODING 7795
SWIDTH 570 0
DWIDTH 7 0
BBX 7 8 0 -2
BITMAP
70A0
3060
3060
3060
3460
1EA4
0000
28C0
ENDCHAR
STARTCHAR uni1E74
ENCODING 7796
SWIDTH 752 0
DWIDTH 9 0
BBX 9 10 0 -2
BITMAP
7D0B40
280200
280200
280200
280200
280200
1C0500
06A400
029400
04A000
ENDCHAR
STARTCHAR uni1E75
ENCODING 7797
SWIDTH 570 0
DWIDTH 7 0
BBX 7 8 0 -2
BITMAP
70A0
3060
3060
3060
3460
1EA4
1940
1280
ENDCHAR
STARTCHAR uni1E76
ENCODING 7798
SWIDTH 752 0
DWIDTH 9 0
BBX 9 10 0 -2
BITMAP
7D0B40
280200
280200
280200
280200
280200
1C0500
06A400
01D000
022000
ENDCHAR
STARTCHAR uni1E77
ENCODING 7799
SWIDTH 570 0
DWIDTH 7 0
BBX 7 8 0 -2
BITMAP
70A0
3060
3060
3060
3460
1EA4
0700
0880
ENDCHAR
STARTCHAR uni1E78
ENCODING 7800
SWIDTH 752 0
DWIDTH 9 0
BBX 9 13 0 0
BITMAP
001000
009000
019400
016400
000000
7D0B40
280200
280200
280200
280200
280200
1C0500
06A400
ENDCHAR
STARTCHAR uni1E79
ENCODING 7801
SWIDTH 570 0
DWIDTH 7 0
BBX 7 10 0 0
BITMAP
0240
0F40
1280
0000
70A0
3060
3060
3060
3460
1EA4
ENDCHAR
STARTCHAR uni1E7A
ENCODING 7802
SWIDTH 752 0
DWIDTH 9 0
BBX 9 11 0 0
BITMAP
031800
02A400
000000
7D0B40
280200
280200
280200
280200
280200
1C0500
06A400
ENDCHAR
STARTCHAR uni1E7B
ENCODING 7803
SWIDTH 570 0
DWIDTH 7 0
BBX 7 9 0 0
BITMAP
28C0
1AC0
0000
70A0
3060
3060
3060
3460
1EA4
ENDCHAR
STARTCHAR uni1E7C
ENCODING 7804
SWIDTH 680 0
DWIDTH 8 0
BBX 8 11 0 0
BITMAP
0650
04A0
0000
B80A
3408
1C08
0D14
0A20
0350
02C0
0180
ENDCHAR
STARTCHAR uni1E7D
ENCODING 7805
SWIDTH 481 0
DWIDTH 6 0
BBX 6 9 0 0
BITMAP
1940
1240
0000
B0A0
3080
2480
1900
0E00
0900
ENDCHAR
STARTCHAR uni1E7E
ENCODING 7806
SWIDTH 680 0
DWIDTH 8 0
BBX 8 10 0 -2
BITMAP
B80A
3408
1C08
0D14
0A20
0350
02C0
0180
0000
0180
ENDCHAR
STARTCHAR uni1E7F
ENCODING 7807
SWIDTH 481 0
DWIDTH 6 0
BBX 6 8 0 -2
BITMAP
B0A0
3080
2480
1900
0E00
0900
0000
0900
ENDCHAR
STARTCHAR Wgrave
ENCODING 7808
SWIDTH 944 0
DWIDTH 11 0
BBX 11 11 0 0
BITMAP
005000
002400
000000
B8B828
342414
182820
0C2C20
0A5A50
078780
038340
014200
ENDCHAR
STARTCHAR wgrave
ENCODING 7809
SWIDTH 749 0
DWIDTH 9 0
BBX 9 8 0 0
BITMAP
028000
008000
B1D280
309100
24A200
197500
0E2800
091800
ENDCHAR
STARTCHAR Wacute
ENCODING 7810
SWIDTH 944 0
DWIDTH 11 0
BBX 11 11 0 0
BITMAP
001400
006000
000000
B8B828
342414
182820
0C2C20
0A5A50
078780
038340
014200
ENDCHAR
STARTCHAR wacute
ENCODING 7811
SWIDTH 749 0
DWIDTH 9 0
BBX 9 8 0 0
BITMAP
00A000
008000
B1D280
309100
24A200
197500
0E2800
091800
ENDCHAR
STARTCHAR Wdieresis
ENCODING 7812
SWIDTH 944 0
DWIDTH 11 0
BBX 11 10 0 0
BITMAP
018900
000000
B8B828
342414
182820
0C2C20
0A5A50
078780
038340
014200
ENDCHAR
STARTCHAR wdieresis
ENCODING 7813
SWIDTH 749 0
DWIDTH 9 0
BBX 9 8 0 0
BITMAP
062400
000000
B1D280
309100
24A200
197500
0E2800
091800
ENDCHAR
STARTCHAR uni1E86
ENCODING 7814
SWIDTH 944 0
DWIDTH 11 0
BBX 11 10 0 0
BITMAP
003000
001000
B8B828
342414
182820
0C2C20
0A5A50
078780
038340
014200
ENDCHAR
STARTCHAR uni1E87
ENCODING 7815
SWIDTH 749 0
DWIDTH 9 0
BBX 9 8 0 0
BITMAP
00C000
000000
B1D280
309100
24A200
197500
0E2800
091800
ENDCHAR
STARTCHAR uni1E88
ENCODING 7816
SWIDTH 944 0
DWIDTH 11 0
BBX 11 10 0 -2
BITMAP
B8B828
342414
182820
0C2C20
0A5A50
078780
038340
014200
000000
002400
ENDCHAR
STARTCHAR uni1E89
ENCODING 7817
SWIDTH 749 0
DWIDTH 9 0
BBX 9 8 0 -2
BITMAP
B1D280
309100
24A200
197500
0E2800
091800
000000
00C000
ENDCHAR
STARTCHAR uni1E8A
ENCODING 7818
SWIDTH 664 0
DWIDTH 8 0
BBX 8 10 0 0
BITMAP
0180
0000
7D2D
1D20
0A50
0380
02C0
08A0
1434
743D
ENDCHAR
STARTCHAR uni1E8B
ENCODING 7819
SWIDTH 479 0
DWIDTH 6 0
BBX 6 8 0 0
BITMAP
0900
0000
74D0
2940
0D00
0A00
2280
A1D0
ENDCHAR
STARTCHAR uni1E8C
ENCODING 7820
SWIDTH 664 0
DWIDTH 8 0
BBX 8 10 0 0
BITMAP
0930
0010
7D2D
1D20
0A50
0380
02C0
08A0
1434
743D
ENDCHAR
STARTCHAR uni1E8D
ENCODING 7821
SWIDTH 479 0
DWIDTH 6 0
BBX 6 8 0 0
BITMAP
3180
0000
74D0
2940
0D00
0A00
2280
A1D0
ENDCHAR
STARTCHAR uni1E8E
ENCODING 7822
SWIDTH 647 0
DWIDTH 8 0
BBX 8 10 0 0
BITMAP
0180
0000
B81D
2814
0D20
0780
0280
0240
0240
0790
ENDCHAR
STARTCHAR uni1E8F
ENCODING 7823
SWIDTH 483 0
DWIDTH 6 0
BBX 6 11 0 -3
BITMAP
0600
0000
B0A0
3080
2480
1940
0A00
0500
0400
0800
A000
ENDCHAR
STARTCHAR uni1E90
ENCODING 7824
SWIDTH 594 0
DWIDTH 7 0
BBX 7 11 0 0
BITMAP
0140
0580
0000
7AB8
5070
00D0
0280
0700
1D00
2408
BAA8
ENDCHAR
STARTCHAR uni1E91
ENCODING 7825
SWIDTH 458 0
DWIDTH 6 0
BBX 5 8 0 0
BITMAP
0A00
1540
6AC0
4340
0A00
1C00
3440
7AC0
ENDCHAR
STARTCHAR uni1E92
ENCODING 7826
SWIDTH 594 0
DWIDTH 7 0
BBX 7 10 0 -2
BITMAP
7AB8
5070
00D0
0280
0700
1D00
2408
BAA8
0000
0300
ENDCHAR
STARTCHAR uni1E93
ENCODING 7827
SWIDTH 458 0
DWIDTH 6 0
BBX 5 8 0 -2
BITMAP
6AC0
4340
0A00
1C00
3440
7AC0
0000
0900
ENDCHAR
STARTCHAR uni1E94
ENCODING 7828
SWIDTH 594 0
DWIDTH 7 0
BBX 7 10 0 -2
BITMAP
7AB8
5070
00D0
0280
0700
1D00
2408
BAA8
0000
1A80
ENDCHAR
STARTCHAR uni1E95
ENCODING 7829
SWIDTH 458 0
DWIDTH 6 0
BBX 5 8 0 -2
BITMAP
6AC0
4340
0A00
1C00
3440
7AC0
0000
2A40
ENDCHAR
STARTCHAR uni1E96
ENCODING 7830
SWIDTH 577 0
DWIDTH 7 0
BBX 7 11 0 -2
BITMAP
7400
2400
2400
26D0
2460
2460
2460
2460
78B4
0000
0A90
ENDCHAR
STARTCHAR uni1E97
ENCODING 7831
SWIDTH 315 0
DWIDTH 4 0
BBX 4 9 0 0
BITMAP
C6
10
20
79
30
30
30
30
29
ENDCHAR
STARTCHAR uni1E98
ENCODING 7832
SWIDTH 749 0
DWIDTH 9 0
BBX 9 9 0 0
BITMAP
019000
022000
019000
B1D280
309100
24A200
197500
0E2800
091800
ENDCHAR
STARTCHAR uni1E99
ENCODING 7833
SWIDTH 483 0
DWIDTH 6 0
BBX 6 12 0 -3
BITMAP
0600
0540
0600
B0A0
3080
2480
1940
0A00
0500
0400
0800
A000
ENDCHAR
STARTCHAR uni1E9A
ENCODING 7834
SWIDTH 480 0
DWIDTH 6 0
BBX 6 9 0 0
BITMAP
0500
0200
0500
2640
6180
0680
2580
6180
79D0
ENDCHAR
STARTCHAR uni1E9B
ENCODING 7835
SWIDTH 285 0
DWIDTH 3 0
BBX 5 10 0 0
BITMAP
2400
1A40
2400
2400
7400
2400
2400
2400
2400
7800
ENDCHAR
STARTCHAR uni1E9C
ENCODING 7836
SWIDTH 300 0
DWIDTH 4 0
BBX 5 9 0 0
BITMAP
0A40
1440
2400
7400
2800
7400
2400
2400
7900
ENDCHAR
STARTCHAR uni1E9D
ENCODING 7837
SWIDTH 285 0
DWIDTH 3 0
BBX 5 9 0 0
BITMAP
0B40
1540
7900
7400
2400
2400
2400
2400
7800
ENDCHAR
STARTCHAR uni1E9E
ENCODING 7838
SWIDTH 684 0
DWIDTH 8 0
BBX 8 8 0 0
BITMAP
06A8
1C18
1830
28A0
281D
280A
290A
7A98
ENDCHAR
STARTCHAR uni1E9F
ENCODING 7839
SWIDTH 517 0
DWIDTH 6 0
BBX 6 9 0 0
BITMAP
0A80
2480
1800
0B40
25D0
60A0
A060
6090
2980
ENDCHAR
STARTCHAR uni1EA0
ENCODING 7840
SWIDTH 718 0
DWIDTH 9 0
BBX 9 10 0 -2
BITMAP
018000
02C000
02A000
057000
083400
1AAC00
200D00
B41F40
000000
018000
ENDCHAR
STARTCHAR uni1EA1
ENCODING 7841
SWIDTH 480 0
DWIDTH 6 0
BBX 6 8 0 -2
BITMAP
2640
6180
0680
2580
6180
79D0
0000
0900
ENDCHAR
STARTCHAR uni1EA2
ENCODING 7842
SWIDTH 718 0
DWIDTH 9 0
BBX 9 11 0 0
BITMAP
014000
005000
004000
018000
02C000
02A000
057000
083400
1AAC00
200D00
B41F40
ENDCHAR
STARTCHAR uni1EA3
ENCODING 7843
SWIDTH 480 0
DWIDTH 6 0
BBX 6 9 0 0
BITMAP
0500
0200
0400
2640
6180
0680
2580
6180
79D0
ENDCHAR
STARTCHAR uni1EA4
ENCODING 7844
SWIDTH 718 0
DWIDTH 9 0
BBX 9 12 0 0
BITMAP
000500
015800
015000
000000
018000
02C000
02A000
057000
083400
1AAC00
200D00
B41F40
ENDCHAR
STARTCHAR uni1EA5
ENCODING 7845
SWIDTH 480 0
DWIDTH 6 0
BBX 6 9 0 0
BITMAP
0090
0A40
1100
2640
6180
0680
2580
6180
79D0
ENDCHAR
STARTCHAR uni1EA6
ENCODING 7846
SWIDTH 718 0
DWIDTH 9 0
BBX 9 12 0 0
BITMAP
001000
019400
025000
000000
018000
02C000
02A000
057000
083400
1AAC00
200D00
B41F40
ENDCHAR
STARTCHAR uni1EA7
ENCODING 7847
SWIDTH 480 0
DWIDTH 6 0
BBX 6 9 0 0
BITMAP
0240
0A40
1100
2640
6180
0680
2580
6180
79D0
ENDCHAR
STARTCHAR uni1EA8
ENCODING 7848
SWIDTH 718 0
DWIDTH 9 0
BBX 9 12 0 0
BITMAP
001400
000800
029000
011000
018000
02C000
02A000
057000
083400
1AAC00
200D00
B41F40
ENDCHAR
STARTCHAR uni1EA9
ENCODING 7849
SWIDTH 480 0
DWIDTH 6 0
BBX 6 10 0 0
BITMAP
0140
0050
0A40
1100
2640
6180
0680
2580
6180
79D0
ENDCHAR
STARTCHAR uni1EAA
ENCODING 7850
SWIDTH 718 0
DWIDTH 9 0
BBX 9 12 0 0
BITMAP
06A000
018000
066000
000000
018000
02C000
02A000
057000
083400
1AAC00
200D00
B41F40
ENDCHAR
STARTCHAR uni1EAB
ENCODING 7851
SWIDTH 480 0
DWIDTH 6 0
BBX 6 10 0 0
BITMAP
1400
1640
0D00
1140
2640
6180
0680
2580
6180
79D0
ENDCHAR
STARTCHAR uni1EAC
ENCODING 7852
SWIDTH 718 0
DWIDTH 9 0
BBX 9 13 0 -2
BITMAP
014000
025000
000000
018000
02C000
02A000
057000
083400
1AAC00
200D00
B41F40
000000
018000
ENDCHAR
STARTCHAR uni1EAD
ENCODING 7853
SWIDTH 480 0
DWIDTH 6 0
BBX 6 10 0 -2
BITMAP
0900
1140
2640
6180
0680
2580
6180
79D0
0000
0900
ENDCHAR
STARTCHAR uni1EAE
ENCODING 7854
SWIDTH 718 0
DWIDTH 9 0
BBX 9 12 0 0
BITMAP
005000
056000
029000
000000
018000
02C000
02A000
057000
083400
1AAC00
200D00
B41F40
ENDCHAR
STARTCHAR uni1EAF
ENCODING 7855
SWIDTH 480 0
DWIDTH 6 0
BBX 6 9 0 0
BITMAP
0600
2440
1A00
2640
6180
0680
2580
6180
79D0
ENDCHAR
STARTCHAR uni1EB0
ENCODING 7856
SWIDTH 718 0
DWIDTH 9 0
BBX 9 12 0 0
BITMAP
020000
056000
029000
000000
018000
02C000
02A000
057000
083400
1AAC00
200D00
B41F40
ENDCHAR
STARTCHAR uni1EB1
ENCODING 7857
SWIDTH 480 0
DWIDTH 6 0
BBX 6 9 0 0
BITMAP
1800
2540
1A00
2640
6180
0680
2580
6180
79D0
ENDCHAR
STARTCHAR uni1EB2
ENCODING 7858
SWIDTH 718 0
DWIDTH 9 0
BBX 9 13 0 0
BITMAP
014000
005000
056000
029000
000000
018000
02C000
02A000
057000
083400
1AAC00
200D00
B41F40
ENDCHAR
STARTCHAR uni1EB3
ENCODING 7859
SWIDTH 480 0
DWIDTH 6 0
BBX 6 10 0 0
BITMAP
0500
0200
2440
1A00
2640
6180
0680
2580
6180
79D0
ENDCHAR
STARTCHAR uni1EB4
ENCODING 7860
SWIDTH 718 0
DWIDTH 9 0
BBX 9 12 0 0
BITMAP
06A000
041000
029000
000000
018000
02C000
02A000
057000
083400
1AAC00
200D00
B41F40
ENDCHAR
STARTCHAR uni1EB5
ENCODING 7861
SWIDTH 480 0
DWIDTH 6 0
BBX 6 10 0 0
BITMAP
1840
1640
2040
1A00
2640
6180
0680
2580
6180
79D0
ENDCHAR
STARTCHAR uni1EB6
ENCODING 7862
SWIDTH 718 0
DWIDTH 9 0
BBX 9 13 0 -2
BITMAP
042000
029000
000000
018000
02C000
02A000
057000
083400
1AAC00
200D00
B41F40
000000
018000
ENDCHAR
STARTCHAR uni1EB7
ENCODING 7863
SWIDTH 480 0
DWIDTH 6 0
BBX 6 10 0 -2
BITMAP
2040
1A00
2640
6180
0680
2580
6180
79D0
0000
0900
ENDCHAR
STARTCHAR uni1EB8
ENCODING 7864
SWIDTH 626 0
DWIDTH 8 0
BBX 7 10 0 -2
BITMAP
6EA8
1804
1810
1DA0
1810
1800
1808
6EAC
0000
0240
ENDCHAR
STARTCHAR uni1EB9
ENCODING 7865
SWIDTH 464 0
DWIDTH 6 0
BBX 5 8 0 -2
BITMAP
1A40
60C0
A580
9000
7040
1F40
0000
0900
ENDCHAR
STARTCHAR uni1EBA
ENCODING 7866
SWIDTH 626 0
DWIDTH 8 0
BBX 7 11 0 0
BITMAP
0140
0080
0140
6EA8
1804
1810
1DA0
1810
1800
1808
6EAC
ENDCHAR
STARTCHAR uni1EBB
ENCODING 7867
SWIDTH 464 0
DWIDTH 6 0
BBX 5 9 0 0
BITMAP
0500
0200
0500
1A40
60C0
A580
9000
7040
1F40
ENDCHAR
STARTCHAR uni1EBC
ENCODING 7868
SWIDTH 626 0
DWIDTH 8 0
BBX 7 11 0 0
BITMAP
0650
0590
0000
6EA8
1804
1810
1DA0
1810
1800
1808
6EAC
ENDCHAR
STARTCHAR uni1EBD
ENCODING 7869
SWIDTH 464 0
DWIDTH 6 0
BBX 5 9 0 0
BITMAP
1940
1640
0000
1A40
60C0
A580
9000
7040
1F40
ENDCHAR
STARTCHAR uni1EBE
ENCODING 7870
SWIDTH 626 0
DWIDTH 8 0
BBX 7 12 0 0
BITMAP
0004
0164
0550
0000
6EA8
1804
1810
1DA0
1810
1800
1808
6EAC
ENDCHAR
STARTCHAR uni1EBF
ENCODING 7871
SWIDTH 464 0
DWIDTH 6 0
BBX 6 9 0 0
BITMAP
0050
0A40
1540
1A40
60C0
A580
9000
7040
1F40
ENDCHAR
STARTCHAR uni1EC0
ENCODING 7872
SWIDTH 626 0
DWIDTH 8 0
BBX 7 12 0 0
BITMAP
0050
0260
0550
0000
6EA8
1804
1810
1DA0
1810
1800
1808
6EAC
ENDCHAR
STARTCHAR uni1EC1
ENCODING 7873
SWIDTH 464 0
DWIDTH 6 0
BBX 5 9 0 0
BITMAP
0140
0A40
1540
1A40
60C0
A580
9000
7040
1F40
ENDCHAR
STARTCHAR uni1EC2
ENCODING 7874
SWIDTH 626 0
DWIDTH 8 0
BBX 7 12 0 0
BITMAP
0054
0014
0290
0450
6EA8
1804
1810
1DA0
1810
1800
1808
6EAC
ENDCHAR
STARTCHAR uni1EC3
ENCODING 7875
SWIDTH 464 0
DWIDTH 6 0
BBX 6 10 0 0
BITMAP
0150
0050
0A40
1140
1A40
60C0
A580
9000
7040
1F40
ENDCHAR
STARTCHAR uni1EC4
ENCODING 7876
SWIDTH 626 0
DWIDTH 8 0
BBX 7 12 0 0
BITMAP
0690
0240
0550
0000
6EA8
1804
1810
1DA0
1810
1800
1808
6EAC
ENDCHAR
STARTCHAR uni1EC5
ENCODING 7877
SWIDTH 464 0
DWIDTH 6 0
BBX 5 10 0 0
BITMAP
0400
1640
0A00
1540
1A40
60C0
A580
9000
7040
1F40
ENDCHAR
STARTCHAR uni1EC6
ENCODING 7878
SWIDTH 626 0
DWIDTH 8 0
BBX 7 13 0 -2
BITMAP
0140
0590
0000
6EA8
1804
1810
1DA0
1810
1800
1808
6EAC
0000
0240
ENDCHAR
STARTCHAR uni1EC7
ENCODING 7879
SWIDTH 464 0
DWIDTH 6 0
BBX 5 10 0 -2
BITMAP
0A00
1540
1A40
60C0
A580
9000
7040
1F40
0000
0900
ENDCHAR
STARTCHAR uni1EC8
ENCODING 7880
SWIDTH 357 0
DWIDTH 4 0
BBX 4 11 0 0
BITMAP
14
05
04
6D
18
18
18
18
18
18
6D
ENDCHAR
STARTCHAR uni1EC9
ENCODING 7881
SWIDTH 285 0
DWIDTH 3 0
BBX 3 9 0 0
BITMAP
54
08
10
74
24
24
24
24
78
ENDCHAR
STARTCHAR uni1ECA
ENCODING 7882
SWIDTH 357 0
DWIDTH 4 0
BBX 4 10 0 -2
BITMAP
6D
18
18
18
18
18
18
6D
00
18
ENDCHAR
STARTCHAR uni1ECB
ENCODING 7883
SWIDTH 285 0
DWIDTH 3 0
BBX 3 10 0 -2
BITMAP
24
10
74
24
24
24
24
78
00
24
ENDCHAR
STARTCHAR uni1ECC
ENCODING 7884
SWIDTH 738 0
DWIDTH 9 0
BBX 9 10 0 -2
BITMAP
0A6400
280A00
300700
700340
700340
300700
280900
0AA400
000000
00C000
ENDCHAR
STARTCHAR uni1ECD
ENCODING 7885
SWIDTH 514 0
DWIDTH 6 0
BBX 6 8 0 -2
BITMAP
1A80
6090
A060
A060
6090
1A80
0000
0600
ENDCHAR
STARTCHAR uni1ECE
ENCODING 7886
SWIDTH 738 0
DWIDTH 9 0
BBX 9 11 0 0
BITMAP
015000
002000
004000
0A6400
280A00
300700
700340
700340
300700
280900
0AA400
ENDCHAR
STARTCHAR uni1ECF
ENCODING 7887
SWIDTH 514 0
DWIDTH 6 0
BBX 6 9 0 0
BITMAP
0500
0140
0100
1A80
6090
A060
A060
6090
1A80
ENDCHAR
STARTCHAR uni1ED0
ENCODING 7888
SWIDTH 738 0
DWIDTH 9 0
BBX 9 12 0 0
BITMAP
000500
004800
022000
000000
0A6400
280A00
300700
700340
700340
300700
280900
0AA400
ENDCHAR
STARTCHAR uni1ED1
ENCODING 7889
SWIDTH 514 0
DWIDTH 6 0
BBX 6 9 0 0
BITMAP
0060
0A40
1540
1A80
6090
A060
A060
6090
1A80
ENDCHAR
STARTCHAR uni1ED2
ENCODING 7890
SWIDTH 738 0
DWIDTH 9 0
BBX 9 12 0 0
BITMAP
001000
019800
026000
000000
0A6400
280A00
300700
700340
700340
300700
280900
0AA400
ENDCHAR
STARTCHAR uni1ED3
ENCODING 7891
SWIDTH 514 0
DWIDTH 6 0
BBX 6 9 0 0
BITMAP
0180
0A40
1440
1A80
6090
A060
A060
6090
1A80
ENDCHAR
STARTCHAR uni1ED4
ENCODING 7892
SWIDTH 738 0
DWIDTH 9 0
BBX 9 12 0 0
BITMAP
001400
000800
019400
011000
0A6400
280A00
300700
700340
700340
300700
280900
0AA400
ENDCHAR
STARTCHAR uni1ED5
ENCODING 7893
SWIDTH 514 0
DWIDTH 6 0
BBX 6 10 0 0
BITMAP
0050
0020
0A40
1440
1A80
6090
A060
A060
6090
1A80
ENDCHAR
STARTCHAR uni1ED6
ENCODING 7894
SWIDTH 738 0
DWIDTH 9 0
BBX 9 12 0 0
BITMAP
02A000
018000
026000
000000
0A6400
280A00
300700
700340
700340
300700
280900
0AA400
ENDCHAR
STARTCHAR uni1ED7
ENCODING 7895
SWIDTH 514 0
DWIDTH 6 0
BBX 6 10 0 0
BITMAP
0400
1640
0A00
1540
1A80
6090
A060
A060
6090
1A80
ENDCHAR
STARTCHAR uni1ED8
ENCODING 7896
SWIDTH 738 0
DWIDTH 9 0
BBX 9 13 0 -2
BITMAP
004000
026000
000000
0A6400
280A00
300700
700340
700340
300700
280900
0AA400
000000
00C000
ENDCHAR
STARTCHAR uni1ED9
ENCODING 7897
SWIDTH 514 0
DWIDTH 6 0
BBX 6 10 0 -2
BITMAP
0A00
1540
1A80
6090
A060
A060
6090
1A80
0000
0600
ENDCHAR
STARTCHAR uni1EDA
ENCODING 7898
SWIDTH 737 0
DWIDTH 9 0
BBX 9 11 0 0
BITMAP
005000
018240
000140
0AAD00
280A00
300700
700340
700340
300700
280900
0AA400
ENDCHAR
STARTCHAR uni1EDB
ENCODING 7899
SWIDTH 516 0
DWIDTH 6 0
BBX 6 8 0 0
BITMAP
0360
0520
1AD0
6090
A060
A060
6090
1A80
ENDCHAR
STARTCHAR uni1EDC
ENCODING 7900
SWIDTH 737 0
DWIDTH 9 0
BBX 9 11 0 0
BITMAP
014000
009240
000140
0AAD00
280A00
300700
700340
700340
300700
280900
0AA400
ENDCHAR
STARTCHAR uni1EDD
ENCODING 7901
SWIDTH 516 0
DWIDTH 6 0
BBX 6 8 0 0
BITMAP
0C20
0620
1AD0
6090
A060
A060
6090
1A80
ENDCHAR
STARTCHAR uni1EDE
ENCODING 7902
SWIDTH 737 0
DWIDTH 9 0
BBX 9 11 0 0
BITMAP
015000
006240
004140
0AAD00
280A00
300700
700340
700340
300700
280900
0AA400
ENDCHAR
STARTCHAR uni1EDF
ENCODING 7903
SWIDTH 516 0
DWIDTH 6 0
BBX 6 9 0 0
BITMAP
0500
0160
0120
1AD0
6090
A060
A060
6090
1A80
ENDCHAR
STARTCHAR uni1EE0
ENCODING 7904
SWIDTH 737 0
DWIDTH 9 0
BBX 9 11 0 0
BITMAP
029400
04A240
000140
0AAD00
280A00
300700
700340
700340
300700
280900
0AA400
ENDCHAR
STARTCHAR uni1EE1
ENCODING 7905
SWIDTH 516 0
DWIDTH 6 0
BBX 6 8 0 0
BITMAP
1AA0
0020
1AD0
6090
A060
A060
6090
1A80
ENDCHAR
STARTCHAR uni1EE2
ENCODING 7906
SWIDTH 737 0
DWIDTH 9 0
BBX 9 12 0 -2
BITMAP
000240
000140
0AAD00
280A00
300700
700340
700340
300700
280900
0AA400
000000
00C000
ENDCHAR
STARTCHAR uni1EE3
ENCODING 7907
SWIDTH 516 0
DWIDTH 6 0
BBX 6 10 0 -2
BITMAP
0020
0020
1AD0
6090
A060
A060
6090
1A80
0000
0600
ENDCHAR
STARTCHAR uni1EE4
ENCODING 7908
SWIDTH 752 0
DWIDTH 9 0
BBX 9 10 0 -2
BITMAP
7D0B40
280200
280200
280200
280200
280200
1C0500
06A400
000000
00C000
ENDCHAR
STARTCHAR uni1EE5
ENCODING 7909
SWIDTH 570 0
DWIDTH 7 0
BBX 7 8 0 -2
BITMAP
70A0
3060
3060
3060
3460
1EA4
0000
0600
ENDCHAR
STARTCHAR uni1EE6
ENCODING 7910
SWIDTH 752 0
DWIDTH 9 0
BBX 9 11 0 0
BITMAP
005000
002000
004000
7D0B40
280200
280200
280200
280200
280200
1C0500
06A400
ENDCHAR
STARTCHAR uni1EE7
ENCODING 7911
SWIDTH 570 0
DWIDTH 7 0
BBX 7 9 0 0
BITMAP
0540
0140
0200
70A0
3060
3060
3060
3460
1EA4
ENDCHAR
STARTCHAR uni1EE8
ENCODING 7912
SWIDTH 762 0
DWIDTH 9 0
BBX 10 11 0 0
BITMAP
001010
009060
000010
7D0B00
280200
280200
280200
280200
280200
1C0500
06A400
ENDCHAR
STARTCHAR uni1EE9
ENCODING 7913
SWIDTH 574 0
DWIDTH 7 0
BBX 7 8 0 0
BITMAP
0248
0508
70A0
3060
3060
3060
3460
1EA4
ENDCHAR
STARTCHAR uni1EEA
ENCODING 7914
SWIDTH 762 0
DWIDTH 9 0
BBX 10 11 0 0
BITMAP
014010
005060
000010
7D0B00
280200
280200
280200
280200
280200
1C0500
06A400
ENDCHAR
STARTCHAR uni1EEB
ENCODING 7915
SWIDTH 574 0
DWIDTH 7 0
BBX 7 8 0 0
BITMAP
0908
0208
70A0
3060
3060
3060
3460
1EA4
ENDCHAR
STARTCHAR uni1EEC
ENCODING 7916
SWIDTH 762 0
DWIDTH 9 0
BBX 10 11 0 0
BITMAP
005010
002060
004010
7D0B00
280200
280200
280200
280200
280200
1C0500
06A400
ENDCHAR
STARTCHAR uni1EED
ENCODING 7917
SWIDTH 574 0
DWIDTH 7 0
BBX 7 9 0 0
BITMAP
0500
0148
0208
70A0
3060
3060
3060
3460
1EA4
ENDCHAR
STARTCHAR uni1EEE
ENCODING 7918
SWIDTH 762 0
DWIDTH 9 0
BBX 10 11 0 0
BITMAP
019410
016460
000010
7D0B00
280200
280200
280200
280200
280200
1C0500
06A400
ENDCHAR
STARTCHAR uni1EEF
ENCODING 7919
SWIDTH 574 0
DWIDTH 7 0
BBX 7 9 0 0
BITMAP
0940
1288
0008
70A0
3060
3060
3060
3460
1EA4
ENDCHAR
STARTCHAR uni1EF0
ENCODING 7920
SWIDTH 762 0
DWIDTH 9 0
BBX 10 13 0 -2
BITMAP
000010
000060
000010
7D0B00
280200
280200
280200
280200
280200
1C0500
06A400
000000
00C000
ENDCHAR
STARTCHAR uni1EF1
ENCODING 7921
SWIDTH 574 0
DWIDTH 7 0
BBX 7 10 0 -2
BITMAP
0008
0008
70A0
3060
3060
3060
3460
1EA4
0000
0600
ENDCHAR
STARTCHAR Ygrave
ENCODING 7922
SWIDTH 647 0
DWIDTH 8 0
BBX 8 11 0 0
BITMAP
0100
0180
0000
B81D
2814
0D20
0780
0280
0240
0240
0790
ENDCHAR
STARTCHAR ygrave
ENCODING 7923
SWIDTH 483 0
DWIDTH 6 0
BBX 6 11 0 -3
BITMAP
0C00
0600
B0A0
3080
2480
1940
0A00
0500
0400
0800
A000
ENDCHAR
STARTCHAR uni1EF4
ENCODING 7924
SWIDTH 647 0
DWIDTH 8 0
BBX 8 10 0 -2
BITMAP
B81D
2814
0D20
0780
0280
0240
0240
0790
0000
0240
ENDCHAR
STARTCHAR uni1EF5
ENCODING 7925
SWIDTH 483 0
DWIDTH 6 0
BBX 6 9 0 -3
BITMAP
B0A0
3080
2480
1940
0A00
0500
0400
0980
A000
ENDCHAR
STARTCHAR uni1EF6
ENCODING 7926
SWIDTH 647 0
DWIDTH 8 0
BBX 8 11 0 0
BITMAP
0140
0050
0040
B81D
2814
0D20
0780
0280
0240
0240
0790
ENDCHAR
STARTCHAR uni1EF7
ENCODING 7927
SWIDTH 483 0
DWIDTH 6 0
BBX 6 12 0 -3
BITMAP
0500
0140
0100
B0A0
3080
2480
1940
0A00
0500
0400
0800
A000
ENDCHAR
STARTCHAR uni1EF8
ENCODING 7928
SWIDTH 647 0
DWIDTH 8 0
BBX 8 11 0 0
BITMAP
0650
0490
0000
B81D
2814
0D20
0780
0280
0240
0240
0790
ENDCHAR
STARTCHAR uni1EF9
ENCODING 7929
SWIDTH 483 0
DWIDTH 6 0
BBX 6 12 0 -3
BITMAP
1940
1240
0000
B0A0
3080
2480
1940
0A00
0500
0400
0800
A000
ENDCHAR
STARTCHAR uni2000
ENCODING 8192
SWIDTH 500 0
DWIDTH 6 0
BBX 1 1 0 0
BITMAP
00
ENDCHAR
STARTCHAR uni2001
ENCODING 8193
SWIDTH 1000 0
DWIDTH 12 0
BBX 1 1 0 0
BITMAP
00
ENDCHAR
STARTCHAR uni2002
ENCODING 8194
SWIDTH 500 0
DWIDTH 6 0
BBX 1 1 0 0
BITMAP
00
ENDCHAR
STARTCHAR uni2003
ENCODING 8195
SWIDTH 1000 0
DWIDTH 12 0
BBX 1 1 0 0
BITMAP
00
ENDCHAR
STARTCHAR uni2004
ENCODING 8196
SWIDTH 334 0
DWIDTH 4 0
BBX 1 1 0 0
BITMAP
00
ENDCHAR
STARTCHAR uni2005
ENCODING 8197
SWIDTH 250 0
DWIDTH 3 0
BBX 1 1 0 0
BITMAP
00
ENDCHAR
STARTCHAR uni2006
ENCODING 8198
SWIDTH 167 0
DWIDTH 2 0
BBX 1 1 0 0
BITMAP
00
ENDCHAR
STARTCHAR uni2007
ENCODING 8199
SWIDTH 560 0
DWIDTH 7 0
BBX 1 1 0 0
BITMAP
00
ENDCHAR
STARTCHAR uni2008
ENCODING 8200
SWIDTH 297 0
DWIDTH 4 0
BBX 1 1 0 0
BITMAP
00
ENDCHAR
STARTCHAR uni2009
ENCODING 8201
SWIDTH 125 0
DWIDTH 2 0
BBX 1 1 0 0
BITMAP
00
ENDCHAR
STARTCHAR uni200A
ENCODING 8202
SWIDTH 63 0
DWIDTH 1 0
BBX 1 1 0 0
BITMAP
00
ENDCHAR
STARTCHAR uni200B
ENCODING 8203
SWIDTH 0 0
DWIDTH 0 0
BBX 1 1 0 0
BITMAP
00
ENDCHAR
STARTCHAR uni200C
ENCODING 8204
SWIDTH 0 0
DWIDTH 0 0
BBX 1 1 0 -3
BITMAP
00
ENDCHAR
STARTCHAR uni200D
ENCODING 8205
SWIDTH 0 0
DWIDTH 0 0
BBX 2 3 -1 8
BITMAP
50
50
50
ENDCHAR
STARTCHAR uni2010
ENCODING 8208
SWIDTH 315 0
DWIDTH 4 0
BBX 4 1 0 3
BITMAP
69
ENDCHAR
STARTCHAR uni2011
ENCODING 8209
SWIDTH 315 0
DWIDTH 4 0
BBX 4 1 0 3
BITMAP
69
ENDCHAR
STARTCHAR figuredash
ENCODING 8210
SWIDTH 495 0
DWIDTH 6 0
BBX 6 1 0 3
BITMAP
6A90
ENDCHAR
STARTCHAR endash
ENCODING 8211
SWIDTH 500 0
DWIDTH 6 0
BBX 6 1 0 3
BITMAP
6A90
ENDCHAR
STARTCHAR emdash
ENCODING 8212
SWIDTH 1000 0
DWIDTH 12 0
BBX 12 1 0 3
BITMAP
6AAAA9
ENDCHAR
STARTCHAR uni2015
ENCODING 8213
SWIDTH 940 0
DWIDTH 11 0
BBX 12 1 0 3
BITMAP
AAAAA9
ENDCHAR
STARTCHAR uni2016
ENCODING 8214
SWIDTH 427 0
DWIDTH 5 0
BBX 3 12 1 -3
BITMAP
88
88
88
88
88
88
88
88
88
88
88
88
ENDCHAR
STARTCHAR underscoredbl
ENCODING 8215
SWIDTH 512 0
DWIDTH 6 0
BBX 6 2 0 -3
BITMAP
AAA0
AAA0
ENDCHAR
STARTCHAR quoteleft
ENCODING 8216
SWIDTH 245 0
DWIDTH 3 0
BBX 3 4 0 5
BITMAP
10
10
74
10
ENDCHAR
STARTCHAR quoteright
ENCODING 8217
SWIDTH 245 0
DWIDTH 3 0
BBX 2 3 0 6
BITMAP
70
20
10
ENDCHAR
STARTCHAR quotesinglbase
ENCODING 8218
SWIDTH 243 0
DWIDTH 3 0
BBX 2 4 0 -2
BITMAP
10
70
20
10
ENDCHAR
STARTCHAR quotereversed
ENCODING 8219
SWIDTH 243 0
DWIDTH 3 0
BBX 3 3 0 6
BITMAP
34
60
10
ENDCHAR
STARTCHAR quotedblleft
ENCODING 8220
SWIDTH 435 0
DWIDTH 5 0
BBX 5 4 0 5
BITMAP
1040
1200
7780
1000
ENDCHAR
STARTCHAR quotedblright
ENCODING 8221
SWIDTH 434 0
DWIDTH 5 0
BBX 5 3 0 6
BITMAP
7340
2140
1100
ENDCHAR
STARTCHAR quotedblbase
ENCODING 8222
SWIDTH 433 0
DWIDTH 5 0
BBX 5 4 0 -2
BITMAP
1100
7740
2140
1100
ENDCHAR
STARTCHAR uni201F
ENCODING 8223
SWIDTH 434 0
DWIDTH 5 0
BBX 5 3 0 6
BITMAP
3640
6200
1140
ENDCHAR
STARTCHAR dagger
ENCODING 8224
SWIDTH 512 0
DWIDTH 6 0
BBX 6 11 0 -2
BITMAP
0600
0500
0100
7AD0
0100
0500
0600
0500
0100
0100
0100
ENDCHAR
STARTCHAR daggerdbl
ENCODING 8225
SWIDTH 512 0
DWIDTH 6 0
BBX 6 11 0 -2
BITMAP
0600
0500
0100
7AD0
0500
0600
0500
7A90
0100
0600
0100
ENDCHAR
STARTCHAR bullet
ENCODING 8226
SWIDTH 457 0
DWIDTH 5 0
BBX 3 3 1 2
BITMAP
78
BC
78
ENDCHAR
STARTCHAR twodotenleader
ENCODING 8229
SWIDTH 500 0
DWIDTH 6 0
BBX 6 2 0 0
BITMAP
1040
6090
ENDCHAR
STARTCHAR ellipsis
ENCODING 8230
SWIDTH 887 0
DWIDTH 11 0
BBX 9 2 1 0
BITMAP
504100
91C340
ENDCHAR
STARTCHAR uni202F
ENCODING 8239
SWIDTH 125 0
DWIDTH 2 0
BBX 1 1 0 0
BITMAP
00
ENDCHAR
STARTCHAR perthousand
ENCODING 8240
SWIDTH 1017 0
DWIDTH 12 0
BBX 12 8 0 0
BITMAP
265800
612000
516000
248000
015514
026151
085191
046464
ENDCHAR
STARTCHAR uni2031
ENCODING 8241
SWIDTH 1342 0
DWIDTH 16 0
BBX 16 8 0 0
BITMAP
26580000
61200000
51600000
24800000
01551414
02615151
08519181
04646464
ENDCHAR
STARTCHAR minute
ENCODING 8242
SWIDTH 296 0
DWIDTH 4 0
BBX 2 4 1 5
BITMAP
60
90
80
40
ENDCHAR
STARTCHAR second
ENCODING 8243
SWIDTH 436 0
DWIDTH 5 0
BBX 4 4 1 5
BITMAP
69
9C
98
50
ENDCHAR
STARTCHAR uni2034
ENCODING 8244
SWIDTH 576 0
DWIDTH 7 0
BBX 5 4 1 5
BITMAP
69C0
9D80
9A40
5100
ENDCHAR
STARTCHAR uni2035
ENCODING 8245
SWIDTH 296 0
DWIDTH 4 0
BBX 2 4 1 5
BITMAP
80
80
50
10
ENDCHAR
STARTCHAR uni2036
ENCODING 8246
SWIDTH 436 0
DWIDTH 5 0
BBX 4 4 1 5
BITMAP
94
98
58
11
ENDCHAR
STARTCHAR uni2037
ENCODING 8247
SWIDTH 576 0
DWIDTH 7 0
BBX 5 4 1 5
BITMAP
9640
9980
5880
1140
ENDCHAR
STARTCHAR uni2038
ENCODING 8248
SWIDTH 523 0
DWIDTH 6 0
BBX 5 3 1 -2
BITMAP
1800
1500
8140
ENDCHAR
STARTCHAR guilsinglleft
ENCODING 8249
SWIDTH 307 0
DWIDTH 4 0
BBX 3 5 0 0
BITMAP
08
60
60
14
04
ENDCHAR
STARTCHAR guilsinglright
ENCODING 8250
SWIDTH 307 0
DWIDTH 4 0
BBX 2 4 1 1
BITMAP
80
60
20
80
ENDCHAR
STARTCHAR uni203B
ENCODING 8251
SWIDTH 701 0
DWIDTH 8 0
BBX 7 7 1 0
BITMAP
8624
2150
1980
DB34
5990
6160
8614
ENDCHAR
STARTCHAR exclamdbl
ENCODING 8252
SWIDTH 565 0
DWIDTH 7 0
BBX 5 8 1 0
BITMAP
9180
D280
9180
8180
8140
4040
4040
D180
ENDCHAR
STARTCHAR uni203E
ENCODING 8254
SWIDTH 512 0
DWIDTH 6 0
BBX 6 1 0 10
BITMAP
AAA0
ENDCHAR
STARTCHAR uni2040
ENCODING 8256
SWIDTH 810 0
DWIDTH 10 0
BBX 8 3 1 6
BITMAP
1BA4
5019
4001
ENDCHAR
STARTCHAR uni2043
ENCODING 8259
SWIDTH 352 0
DWIDTH 4 0
BBX 4 2 0 2
BITMAP
7E
7E
ENDCHAR
STARTCHAR fraction
ENCODING 8260
SWIDTH 205 0
DWIDTH 2 0
BBX 6 9 -2 0
BITMAP
0020
0050
0080
0100
0200
0800
1400
2000
5000
ENDCHAR
STARTCHAR uni2047
ENCODING 8263
SWIDTH 822 0
DWIDTH 10 0
BBX 10 8 0 0
BITMAP
261980
92A490
425090
020080
090200
040100
040100
0C0700
ENDCHAR
STARTCHAR uni204B
ENCODING 8267
SWIDTH 605 0
DWIDTH 7 0
BBX 6 10 1 -2
BITMAP
AA80
6890
6860
6890
6980
6800
6800
6800
6800
AA00
ENDCHAR
STARTCHAR uni204C
ENCODING 8268
SWIDTH 479 0
DWIDTH 6 0
BBX 4 4 1 1
BITMAP
65
F4
F4
65
ENDCHAR
STARTCHAR uni204D
ENCODING 8269
SWIDTH 479 0
DWIDTH 6 0
BBX 4 4 1 1
BITMAP
58
5E
5E
58
ENDCHAR
STARTCHAR uni204E
ENCODING 8270
SWIDTH 410 0
DWIDTH 5 0
BBX 5 5 0 -2
BITMAP
0400
5940
1900
6A40
0800
ENDCHAR
STARTCHAR uni204F
ENCODING 8271
SWIDTH 245 0
DWIDTH 3 0
BBX 3 8 0 -2
BITMAP
30
10
00
00
10
74
50
10
ENDCHAR
STARTCHAR uni2050
ENCODING 8272
SWIDTH 809 0
DWIDTH 10 0
BBX 8 9 1 0
BITMAP
1AA4
9009
8002
0000
0000
0000
8002
9009
1AA4
ENDCHAR
STARTCHAR uni2051
ENCODING 8273
SWIDTH 410 0
DWIDTH 5 0
BBX 5 10 0 -1
BITMAP
0800
6A40
1900
5940
0400
0400
5940
1900
6A40
0800
ENDCHAR
STARTCHAR uni2052
ENCODING 8274
SWIDTH 482 0
DWIDTH 6 0
BBX 5 12 0 -3
BITMAP
3080
1080
0140
0200
0200
0500
0900
0800
1800
2400
21C0
6000
ENDCHAR
STARTCHAR uni2057
ENCODING 8279
SWIDTH 727 0
DWIDTH 9 0
BBX 7 4 1 5
BITMAP
69D8
9D98
9A60
5110
ENDCHAR
STARTCHAR uni205F
ENCODING 8287
SWIDTH 222 0
DWIDTH 3 0
BBX 1 1 0 0
BITMAP
00
ENDCHAR
STARTCHAR uni2061
ENCODING 8289
SWIDTH 0 0
DWIDTH 0 0
BBX 1 1 0 0
BITMAP
00
ENDCHAR
STARTCHAR uni2062
ENCODING 8290
SWIDTH 0 0
DWIDTH 0 0
BBX 1 1 0 0
BITMAP
00
ENDCHAR
STARTCHAR uni2063
ENCODING 8291
SWIDTH 0 0
DWIDTH 0 0
BBX 1 1 0 0
BITMAP
00
ENDCHAR
STARTCHAR uni2064
ENCODING 8292
SWIDTH 0 0
DWIDTH 0 0
BBX 1 1 0 0
BITMAP
00
ENDCHAR
STARTCHAR zerosuperior
ENCODING 8304
SWIDTH 412 0
DWIDTH 5 0
BBX 5 6 0 3
BITMAP
2600
5140
9180
9180
5240
2600
ENDCHAR
STARTCHAR uni2071
ENCODING 8305
SWIDTH 245 0
DWIDTH 3 0
BBX 3 7 0 3
BITMAP
30
00
70
30
30
30
74
ENDCHAR
STARTCHAR foursuperior
ENCODING 8308
SWIDTH 403 0
DWIDTH 5 0
BBX 5 6 0 3
BITMAP
0600
0A00
1600
5600
AB80
0600
ENDCHAR
STARTCHAR fivesuperior
ENCODING 8309
SWIDTH 358 0
DWIDTH 4 0
BBX 4 6 0 3
BITMAP
3A
10
79
06
02
A5
ENDCHAR
STARTCHAR sixsuperior
ENCODING 8310
SWIDTH 390 0
DWIDTH 5 0
BBX 5 6 0 3
BITMAP
1900
2000
6A00
9240
5240
2600
ENDCHAR
STARTCHAR sevensuperior
ENCODING 8311
SWIDTH 364 0
DWIDTH 4 0
BBX 4 6 0 3
BITMAP
6B
42
05
08
08
14
ENDCHAR
STARTCHAR eightsuperior
ENCODING 8312
SWIDTH 374 0
DWIDTH 4 0
BBX 4 6 0 3
BITMAP
65
92
29
2A
82
56
ENDCHAR
STARTCHAR ninesuperior
ENCODING 8313
SWIDTH 390 0
DWIDTH 5 0
BBX 5 6 0 3
BITMAP
2500
9200
9240
2B40
0600
1800
ENDCHAR
STARTCHAR uni207A
ENCODING 8314
SWIDTH 536 0
DWIDTH 6 0
BBX 6 6 0 3
BITMAP
0100
0200
0200
6BA0
0200
0200
ENDCHAR
STARTCHAR uni207B
ENCODING 8315
SWIDTH 536 0
DWIDTH 6 0
BBX 6 1 0 5
BITMAP
6AA0
ENDCHAR
STARTCHAR uni207C
ENCODING 8316
SWIDTH 534 0
DWIDTH 6 0
BBX 6 3 0 4
BITMAP
6AA0
0000
6AA0
ENDCHAR
STARTCHAR parenleftsuperior
ENCODING 8317
SWIDTH 268 0
DWIDTH 3 0
BBX 3 8 0 2
BITMAP
04
20
50
90
80
90
20
14
ENDCHAR
STARTCHAR parenrightsuperior
ENCODING 8318
SWIDTH 268 0
DWIDTH 3 0
BBX 3 8 0 2
BITMAP
50
20
08
08
08
08
14
50
ENDCHAR
STARTCHAR nsuperior
ENCODING 8319
SWIDTH 491 0
DWIDTH 6 0
BBX 6 5 0 3
BITMAP
7640
3080
30C0
30C0
75D0
ENDCHAR
STARTCHAR zeroinferior
ENCODING 8320
SWIDTH 412 0
DWIDTH 5 0
BBX 5 6 0 -3
BITMAP
2600
5140
9180
9180
5240
2600
ENDCHAR
STARTCHAR oneinferior
ENCODING 8321
SWIDTH 333 0
DWIDTH 4 0
BBX 4 6 0 -3
BITMAP
68
18
18
18
18
29
ENDCHAR
STARTCHAR twoinferior
ENCODING 8322
SWIDTH 373 0
DWIDTH 4 0
BBX 4 6 0 -3
BITMAP
69
43
02
08
20
BB
ENDCHAR
STARTCHAR threeinferior
ENCODING 8323
SWIDTH 374 0
DWIDTH 4 0
BBX 4 6 0 -3
BITMAP
69
05
19
03
02
65
ENDCHAR
STARTCHAR fourinferior
ENCODING 8324
SWIDTH 403 0
DWIDTH 5 0
BBX 5 6 0 -3
BITMAP
0600
0A00
1600
5600
AB80
0600
ENDCHAR
STARTCHAR fiveinferior
ENCODING 8325
SWIDTH 358 0
DWIDTH 4 0
BBX 4 6 0 -3
BITMAP
3A
10
79
06
02
A5
ENDCHAR
STARTCHAR sixinferior
ENCODING 8326
SWIDTH 390 0
DWIDTH 5 0
BBX 5 6 0 -3
BITMAP
1900
2000
6A00
9240
5240
2600
ENDCHAR
STARTCHAR seveninferior
ENCODING 8327
SWIDTH 364 0
DWIDTH 4 0
BBX 4 6 0 -3
BITMAP
6B
42
05
08
08
14
ENDCHAR
STARTCHAR eightinferior
ENCODING 8328
SWIDTH 374 0
DWIDTH 4 0
BBX 4 6 0 -3
BITMAP
65
92
29
2A
82
56
ENDCHAR
STARTCHAR nineinferior
ENCODING 8329
SWIDTH 390 0
DWIDTH 5 0
BBX 5 6 0 -3
BITMAP
2500
9200
9240
2B40
0600
1800
ENDCHAR
STARTCHAR uni208A
ENCODING 8330
SWIDTH 536 0
DWIDTH 6 0
BBX 6 6 0 -3
BITMAP
0100
0200
0200
6BA0
0200
0200
ENDCHAR
STARTCHAR uni208B
ENCODING 8331
SWIDTH 536 0
DWIDTH 6 0
BBX 6 1 0 -1
BITMAP
6AA0
ENDCHAR
STARTCHAR uni208C
ENCODING 8332
SWIDTH 534 0
DWIDTH 6 0
BBX 6 3 0 -2
BITMAP
6AA0
0000
6AA0
ENDCHAR
STARTCHAR parenleftinferior
ENCODING 8333
SWIDTH 268 0
DWIDTH 3 0
BBX 3 8 0 -4
BITMAP
04
20
50
90
80
90
20
14
ENDCHAR
STARTCHAR parenrightinferior
ENCODING 8334
SWIDTH 268 0
DWIDTH 3 0
BBX 3 8 0 -4
BITMAP
50
20
08
08
08
08
14
50
ENDCHAR
STARTCHAR uni20A3
ENCODING 8355
SWIDTH 495 0
DWIDTH 6 0
BBX 6 8 0 0
BITMAP
6A90
2420
2400
7A40
7A40
2400
2400
7900
ENDCHAR
STARTCHAR uni20A4
ENCODING 8356
SWIDTH 495 0
DWIDTH 6 0
BBX 6 8 0 0
BITMAP
06D0
0850
1800
6E40
6E40
0C00
6810
9B80
ENDCHAR
STARTCHAR uni20A7
ENCODING 8359
SWIDTH 1193 0
DWIDTH 14 0
BBX 14 8 0 0
BITMAP
29900000
18314000
183796A0
18324910
1A824740
180241E0
18024430
6D019950
ENDCHAR
STARTCHAR uni20AB
ENCODING 8363
SWIDTH 495 0
DWIDTH 6 0
BBX 6 8 0 0
BITMAP
0280
06D0
2680
6180
5180
6180
2A90
2A80
ENDCHAR
STARTCHAR Euro
ENCODING 8364
SWIDTH 495 0
DWIDTH 6 0
BBX 6 8 0 0
BITMAP
09A0
2420
3010
BA00
BA00
3000
2810
0B80
ENDCHAR
STARTCHAR uni20B9
ENCODING 8377
SWIDTH 495 0
DWIDTH 6 0
BBX 6 8 0 0
BITMAP
7FD0
0240
7FD0
0340
7D00
0A00
0380
01F0
ENDCHAR
STARTCHAR uni20BA
ENCODING 8378
SWIDTH 495 0
DWIDTH 6 0
BBX 6 8 0 0
BITMAP
6900
2400
2500
7900
6900
6460
24A0
7A80
ENDCHAR
STARTCHAR uni20BD
ENCODING 8381
SWIDTH 495 0
DWIDTH 6 0
BBX 6 8 0 0
BITMAP
6A40
2490
24A0
2490
7A40
7A40
2400
7900
ENDCHAR
STARTCHAR uni20D0
ENCODING 8400
SWIDTH 0 0
DWIDTH 0 0
BBX 6 2 -6 8
BITMAP
1000
7FE0
ENDCHAR
STARTCHAR uni20D1
ENCODING 8401
SWIDTH 0 0
DWIDTH 0 0
BBX 6 2 -6 8
BITMAP
0040
7FE0
ENDCHAR
STARTCHAR uni20D2
ENCODING 8402
SWIDTH 0 0
DWIDTH 0 0
BBX 1 11 -3 -2
BITMAP
80
80
80
80
80
80
80
80
80
80
40
ENDCHAR
STARTCHAR uni20D3
ENCODING 8403
SWIDTH 0 0
DWIDTH 0 0
BBX 1 8 -3 -2
BITMAP
80
80
80
80
80
80
80
80
ENDCHAR
STARTCHAR uni20D4
ENCODING 8404
SWIDTH 0 0
DWIDTH 0 0
BBX 6 4 -6 6
BITMAP
1B80
2450
9020
9000
ENDCHAR
STARTCHAR uni20D5
ENCODING 8405
SWIDTH 0 0
DWIDTH 0 0
BBX 7 4 -6 6
BITMAP
1F80
2050
5024
0064
ENDCHAR
STARTCHAR uni20D6
ENCODING 8406
SWIDTH 0 0
DWIDTH 0 0
BBX 6 3 -6 7
BITMAP
1000
7FE0
1000
ENDCHAR
STARTCHAR uni20D7
ENCODING 8407
SWIDTH 0 0
DWIDTH 0 0
BBX 6 3 -6 7
BITMAP
0040
7FE0
0040
ENDCHAR
STARTCHAR uni20D8
ENCODING 8408
SWIDTH 0 0
DWIDTH 0 0
BBX 4 4 -5 1
BITMAP
2D
52
52
2D
ENDCHAR
STARTCHAR uni20D9
ENCODING 8409
SWIDTH 0 0
DWIDTH 0 0
BBX 5 4 -5 1
BITMAP
2D00
5740
5200
2D00
ENDCHAR
STARTCHAR uni20DA
ENCODING 8410
SWIDTH 0 0
DWIDTH 0 0
BBX 5 4 -5 1
BITMAP
2D00
5200
5740
2D00
ENDCHAR
STARTCHAR uni20DB
ENCODING 8411
SWIDTH 0 0
DWIDTH 0 0
BBX 6 1 -6 7
BITMAP
9620
ENDCHAR
STARTCHAR uni20DC
ENCODING 8412
SWIDTH 0 0
DWIDTH 0 0
BBX 9 1 -7 7
BITMAP
852240
ENDCHAR
STARTCHAR uni20DD
ENCODING 8413
SWIDTH 0 0
DWIDTH 0 0
BBX 12 12 -9 -3
BITMAP
01BE40
0A41B0
18001C
300005
500002
900002
900002
500002
300005
180018
0A41B0
01BF40
ENDCHAR
STARTCHAR uni20DE
ENCODING 8414
SWIDTH 0 0
DWIDTH 0 0
BBX 12 12 -9 -2
BITMAP
BFFFFF
800002
800002
800002
800002
800002
800002
800002
800002
800002
800002
BFFFFF
ENDCHAR
STARTCHAR uni20DF
ENCODING 8415
SWIDTH 0 0
DWIDTH 0 0
BBX 15 14 -10 -4
BITMAP
000B4000
00289000
00A02400
02800900
0A000240
28000090
A0000024
60000060
18000180
06000600
01801800
00606000
00198000
00070000
ENDCHAR
STARTCHAR uni20E1
ENCODING 8417
SWIDTH 0 0
DWIDTH 0 0
BBX 6 3 -6 7
BITMAP
1050
BFF0
1050
ENDCHAR
STARTCHAR uni20E4
ENCODING 8420
SWIDTH 0 0
DWIDTH 0 0
BBX 18 14 -12 -2
BITMAP
0000A00000
0000E40000
00024C0000
0006060000
000C024000
002801C000
007000A000
0090003400
0180001800
0300000900
0900000300
1800000180
3400000090
7FFFFFFFE0
ENDCHAR
STARTCHAR uni20E5
ENCODING 8421
SWIDTH 0 0
DWIDTH 0 0
BBX 5 10 -5 -2
BITMAP
8000
8000
2000
2000
1400
0800
0500
0200
0200
0140
ENDCHAR
STARTCHAR uni20E6
ENCODING 8422
SWIDTH 0 0
DWIDTH 0 0
BBX 4 10 -5 -2
BITMAP
52
52
52
52
52
52
52
52
52
52
ENDCHAR
STARTCHAR uni20E7
ENCODING 8423
SWIDTH 0 0
DWIDTH 0 0
BBX 11 12 -8 -3
BITMAP
7FFFF4
000018
000018
000018
000018
000018
000018
000018
000018
000018
000018
000004
ENDCHAR
STARTCHAR uni20E8
ENCODING 8424
SWIDTH 0 0
DWIDTH 0 0
BBX 6 1 -6 -3
BITMAP
9620
ENDCHAR
STARTCHAR uni20E9
ENCODING 8425
SWIDTH 0 0
DWIDTH 0 0
BBX 7 2 -6 7
BITMAP
FFF4
8008
ENDCHAR
STARTCHAR uni20EA
ENCODING 8426
SWIDTH 0 0
DWIDTH 0 0
BBX 10 5 -8 1
BITMAP
040000
140000
BFFFE0
140000
040000
ENDCHAR
STARTCHAR uni20EB
ENCODING 8427
SWIDTH 0 0
DWIDTH 0 0
BBX 8 12 -7 -3
BITMAP
0022
0052
0088
0148
0214
0220
0550
0880
1480
2140
2200
5500
ENDCHAR
STARTCHAR uni20EC
ENCODING 8428
SWIDTH 0 0
DWIDTH 0 0
BBX 6 2 -6 -3
BITMAP
7FE0
0040
ENDCHAR
STARTCHAR uni20ED
ENCODING 8429
SWIDTH 0 0
DWIDTH 0 0
BBX 6 2 -6 -3
BITMAP
7FE0
1000
ENDCHAR
STARTCHAR uni20EE
ENCODING 8430
SWIDTH 0 0
DWIDTH 0 0
BBX 6 3 -6 -3
BITMAP
1000
7FE0
1000
ENDCHAR
STARTCHAR uni20EF
ENCODING 8431
SWIDTH 0 0
DWIDTH 0 0
BBX 6 3 -6 -3
BITMAP
0040
7FE0
0040
ENDCHAR
STARTCHAR uni20F0
ENCODING 8432
SWIDTH 0 0
DWIDTH 0 0
BBX 4 4 -5 6
BITMAP
04
5A
29
09
ENDCHAR
STARTCHAR uni2100
ENCODING 8448
SWIDTH 939 0
DWIDTH 11 0
BBX 11 9 0 0
BITMAP
000040
2E0040
630200
170500
6308B4
7A9244
001200
008244
0141F4
ENDCHAR
STARTCHAR uni2101
ENCODING 8449
SWIDTH 936 0
DWIDTH 11 0
BBX 11 9 0 0
BITMAP
000040
2E0040
630200
170500
6309E4
7A9144
001050
008118
0141B4
ENDCHAR
STARTCHAR uni2102
ENCODING 8450
SWIDTH 695 0
DWIDTH 8 0
BBX 8 8 0 0
BITMAP
07F4
2809
6800
5800
5800
6800
2809
07E4
ENDCHAR
STARTCHAR uni2103
ENCODING 8451
SWIDTH 1028 0
DWIDTH 12 0
BBX 12 9 0 0
BITMAP
190000
5206AE
525806
193401
003400
003400
003400
001C01
0006A8
ENDCHAR
STARTCHAR uni2104
ENCODING 8452
SWIDTH 646 0
DWIDTH 8 0
BBX 8 9 0 0
BITMAP
1A40
0A00
1E80
6980
9900
A900
3E41
0905
1AA8
ENDCHAR
STARTCHAR uni2105
ENCODING 8453
SWIDTH 953 0
DWIDTH 11 0
BBX 11 9 0 0
BITMAP
000040
2E0200
620500
900800
6012F4
2E5618
00850C
014618
0202F4
ENDCHAR
STARTCHAR uni2106
ENCODING 8454
SWIDTH 1072 0
DWIDTH 13 0
BBX 13 9 0 0
BITMAP
00004000
2E014000
62020000
50080000
61158600
2E20C200
0040C200
0080C600
0200B740
ENDCHAR
STARTCHAR uni2107
ENCODING 8455
SWIDTH 612 0
DWIDTH 7 0
BBX 7 9 0 0
BITMAP
1A84
3968
7004
3400
1F80
7400
A004
7428
1BE0
ENDCHAR
STARTCHAR uni2108
ENCODING 8456
SWIDTH 669 0
DWIDTH 8 0
BBX 8 8 0 0
BITMAP
5BE0
6028
510D
03FD
020D
001C
6078
1BE0
ENDCHAR
STARTCHAR uni2109
ENCODING 8457
SWIDTH 949 0
DWIDTH 11 0
BBX 11 9 0 0
BITMAP
190000
526EAC
524C04
190C10
000EB0
000C10
000C00
000C00
002E00
ENDCHAR
STARTCHAR uni210A
ENCODING 8458
SWIDTH 657 0
DWIDTH 8 0
BBX 9 9 -1 -3
BITMAP
007D00
008600
024900
070800
1A1E40
532C00
079800
187400
1F9000
ENDCHAR
STARTCHAR uni210B
ENCODING 8459
SWIDTH 951 0
DWIDTH 11 0
BBX 12 8 0 0
BITMAP
05B01E
146051
249080
00A680
008240
014200
420250
640190
ENDCHAR
STARTCHAR uni210C
ENCODING 8460
SWIDTH 728 0
DWIDTH 9 0
BBX 7 11 1 -3
BITMAP
0510
1B80
2000
71F4
382C
1C1C
490C
F418
1020
1E90
1200
ENDCHAR
STARTCHAR uni210D
ENCODING 8461
SWIDTH 715 0
DWIDTH 9 0
BBX 7 8 1 0
BITMAP
E078
6058
6058
6058
6FD8
6058
6058
E078
ENDCHAR
STARTCHAR uni210E
ENCODING 8462
SWIDTH 569 0
DWIDTH 7 0
BBX 7 9 0 0
BITMAP
1400
0C00
0C00
18B0
1630
2860
3450
3094
60A0
ENDCHAR
STARTCHAR uni210F
ENCODING 8463
SWIDTH 569 0
DWIDTH 7 0
BBX 7 9 0 0
BITMAP
1400
0C40
1D40
18B0
2630
2860
3450
3094
60A0
ENDCHAR
STARTCHAR uni2110
ENCODING 8464
SWIDTH 496 0
DWIDTH 6 0
BBX 6 8 0 0
BITMAP
06E0
2890
3090
00C0
0180
0240
5600
B800
ENDCHAR
STARTCHAR uni2111
ENCODING 8465
SWIDTH 673 0
DWIDTH 8 0
BBX 7 8 1 -1
BITMAP
7E44
82E0
80B0
74C0
0090
B070
3870
1F90
ENDCHAR
STARTCHAR uni2112
ENCODING 8466
SWIDTH 699 0
DWIDTH 8 0
BBX 8 8 0 0
BITMAP
01B8
035C
0600
0A00
0C00
1401
6A08
41F4
ENDCHAR
STARTCHAR uni2113
ENCODING 8467
SWIDTH 529 0
DWIDTH 6 0
BBX 6 8 0 0
BITMAP
01F0
0360
0910
0800
6400
2040
3200
2D00
ENDCHAR
STARTCHAR uni2114
ENCODING 8468
SWIDTH 787 0
DWIDTH 9 0
BBX 9 9 0 0
BITMAP
514000
24C000
BFFD00
24DF40
24D280
24C0C0
24C0C0
24D280
BC7E00
ENDCHAR
STARTCHAR uni2115
ENCODING 8469
SWIDTH 692 0
DWIDTH 8 0
BBX 7 8 1 0
BITMAP
E004
9804
9904
6644
4884
4224
4194
4074
ENDCHAR
STARTCHAR uni2116
ENCODING 8470
SWIDTH 1070 0
DWIDTH 13 0
BBX 13 9 0 0
BITMAP
0000A000
0A022000
0A420000
08D22E00
08722240
082A2240
080E2E00
880A0000
A4012A00
ENDCHAR
STARTCHAR uni2117
ENCODING 8471
SWIDTH 781 0
DWIDTH 9 0
BBX 9 9 0 0
BITMAP
06F800
190600
27F540
525880
425840
52E080
27C140
190600
06F800
ENDCHAR
STARTCHAR uni2118
ENCODING 8472
SWIDTH 846 0
DWIDTH 10 0
BBX 10 10 0 -3
BITMAP
07D000
2D1BD0
3074A0
61D060
6340A0
1E14D0
1E7280
259E00
364000
2E0000
ENDCHAR
STARTCHAR uni2119
ENCODING 8473
SWIDTH 665 0
DWIDTH 8 0
BBX 7 8 1 0
BITMAP
FF90
60A4
6084
60A4
6F90
6000
6000
E000
ENDCHAR
STARTCHAR uni211A
ENCODING 8474
SWIDTH 751 0
DWIDTH 9 0
BBX 9 9 0 -1
BITMAP
07F400
291A00
680A00
580940
480840
580940
180A00
01E500
000B40
ENDCHAR
STARTCHAR uni211B
ENCODING 8475
SWIDTH 789 0
DWIDTH 9 0
BBX 9 10 0 0
BITMAP
001000
02FE00
099740
289240
14C200
00D900
01A400
025800
820D40
A40600
ENDCHAR
STARTCHAR uni211C
ENCODING 8476
SWIDTH 778 0
DWIDTH 9 0
BBX 9 9 0 -1
BITMAP
2E2D00
638A00
728600
2A8800
16AC00
124D00
120D00
3D0B40
040100
ENDCHAR
STARTCHAR uni211D
ENCODING 8477
SWIDTH 729 0
DWIDTH 9 0
BBX 7 8 1 0
BITMAP
FF90
60A4
6084
60A4
6FD0
6260
6094
E07C
ENDCHAR
STARTCHAR uni211E
ENCODING 8478
SWIDTH 725 0
DWIDTH 9 0
BBX 8 9 0 -1
BITMAP
6EA0
2828
2828
2874
2FC0
28A1
2828
BE5F
0040
ENDCHAR
STARTCHAR uni211F
ENCODING 8479
SWIDTH 659 0
DWIDTH 8 0
BBX 8 13 0 -3
BITMAP
0180
0110
6EA0
18B4
18A8
1974
1FC0
1DA0
2C38
7E1F
1000
1100
0600
ENDCHAR
STARTCHAR uni2120
ENCODING 8480
SWIDTH 937 0
DWIDTH 11 0
BBX 11 5 0 3
BITMAP
7DB438
513870
141DA0
421760
6EB678
ENDCHAR
STARTCHAR uni2121
ENCODING 8481
SWIDTH 1200 0
DWIDTH 14 0
BBX 14 5 0 3
BITMAP
BFBFDF00
08184500
081F4500
0C185520
2E2FDFF0
ENDCHAR
STARTCHAR trademark
ENCODING 8482
SWIDTH 881 0
DWIDTH 11 0
BBX 11 4 0 3
BITMAP
AA7470
082CA0
081B60
2D76B4
ENDCHAR
STARTCHAR uni2123
ENCODING 8483
SWIDTH 680 0
DWIDTH 8 0
BBX 9 13 0 -3
BITMAP
018000
011000
FC6F40
744900
288800
1D5400
0A2000
072000
0B8000
058000
100000
120000
060000
ENDCHAR
STARTCHAR uni2124
ENCODING 8484
SWIDTH 648 0
DWIDTH 8 0
BBX 8 8 0 0
BITMAP
7FFE
0059
0154
0250
0880
1200
5800
BFFD
ENDCHAR
STARTCHAR uni2125
ENCODING 8485
SWIDTH 434 0
DWIDTH 5 0
BBX 5 11 0 -3
BITMAP
7F40
4500
3F80
0600
1C00
0640
0180
0180
0280
5340
7D00
ENDCHAR
STARTCHAR uni2126
ENCODING 8486
SWIDTH 763 0
DWIDTH 9 0
BBX 9 8 0 0
BITMAP
07F800
2D1A00
340340
700340
340340
280A00
462440
BF2F80
ENDCHAR
STARTCHAR uni2127
ENCODING 8487
SWIDTH 763 0
DWIDTH 9 0
BBX 9 8 0 0
BITMAP
BE2F80
462440
180A00
340340
700340
740340
2D1A00
0BF800
ENDCHAR
STARTCHAR uni2128
ENCODING 8488
SWIDTH 641 0
DWIDTH 8 0
BBX 6 11 1 -3
BITMAP
1F80
61E0
4070
0060
14D0
0B80
10A0
0070
B070
38A0
1F80
ENDCHAR
STARTCHAR uni2129
ENCODING 8489
SWIDTH 368 0
DWIDTH 4 0
BBX 4 6 0 0
BITMAP
3C
5D
0D
0D
0D
0D
ENDCHAR
STARTCHAR uni212A
ENCODING 8490
SWIDTH 702 0
DWIDTH 8 0
BBX 8 8 0 0
BITMAP
6D2D
1820
1880
1A00
1A40
18D0
1834
6D2E
ENDCHAR
STARTCHAR uni212B
ENCODING 8491
SWIDTH 722 0
DWIDTH 9 0
BBX 9 10 0 0
BITMAP
02D000
025000
018000
01C000
02A000
057000
083800
1FFC00
200E00
F82F80
ENDCHAR
STARTCHAR uni212C
ENCODING 8492
SWIDTH 754 0
DWIDTH 9 0
BBX 9 9 0 0
BITMAP
001000
06FE40
299240
20C500
01FE00
014740
020300
050500
7FE400
ENDCHAR
STARTCHAR uni212D
ENCODING 8493
SWIDTH 639 0
DWIDTH 8 0
BBX 7 8 0 0
BITMAP
1A64
3564
7240
61C0
70A0
74A0
2ED4
0BD0
ENDCHAR
STARTCHAR estimated
ENCODING 8494
SWIDTH 863 0
DWIDTH 10 0
BBX 10 9 0 -1
BITMAP
06F900
1D0680
3400D0
7400A0
BFFFF0
740000
340000
190680
02F900
ENDCHAR
STARTCHAR uni212F
ENCODING 8495
SWIDTH 527 0
DWIDTH 6 0
BBX 6 6 0 0
BITMAP
06D0
0D90
2840
3400
7490
1F40
ENDCHAR
STARTCHAR uni2130
ENCODING 8496
SWIDTH 572 0
DWIDTH 7 0
BBX 7 8 0 0
BITMAP
06F4
0D18
0900
07C0
3400
A000
7060
2F80
ENDCHAR
STARTCHAR uni2131
ENCODING 8497
SWIDTH 713 0
DWIDTH 9 0
BBX 9 9 0 0
BITMAP
001400
06FF80
197000
146000
01A400
00C000
018000
420000
640000
ENDCHAR
STARTCHAR uni2132
ENCODING 8498
SWIDTH 588 0
DWIDTH 7 0
BBX 7 9 0 0
BITMAP
01A4
0090
0090
1090
2FD0
2090
4090
8090
AAA4
ENDCHAR
STARTCHAR uni2133
ENCODING 8499
SWIDTH 1038 0
DWIDTH 12 0
BBX 13 8 0 0
BITMAP
0B800B80
11D07C40
01B0A800
02326400
02363000
022C3000
88287100
B4203800
ENDCHAR
STARTCHAR uni2134
ENCODING 8500
SWIDTH 691 0
DWIDTH 8 0
BBX 10 6 -1 0
BITMAP
007C00
018A50
074B80
1F0600
635D00
02F400
ENDCHAR
STARTCHAR uni2135
ENCODING 8501
SWIDTH 698 0
DWIDTH 8 0
BBX 8 9 0 0
BITMAP
0010
6018
380D
1E0A
2B95
71F4
3438
1C0A
7802
ENDCHAR
STARTCHAR uni2136
ENCODING 8502
SWIDTH 654 0
DWIDTH 8 0
BBX 6 9 1 -1
BITMAP
8000
BF80
0590
0060
0060
0050
0050
BFE0
5500
ENDCHAR
STARTCHAR uni2137
ENCODING 8503
SWIDTH 517 0
DWIDTH 6 0
BBX 5 8 1 0
BITMAP
6000
3D00
0600
0100
0100
0600
0B80
B180
ENDCHAR
STARTCHAR uni2138
ENCODING 8504
SWIDTH 613 0
DWIDTH 7 0
BBX 6 9 0 -1
BITMAP
1000
7FE0
0160
0050
0090
00A0
00A0
00A0
0040
ENDCHAR
STARTCHAR uni2139
ENCODING 8505
SWIDTH 361 0
DWIDTH 4 0
BBX 4 8 0 0
BITMAP
3D
2C
68
3D
3D
3D
3D
BF
ENDCHAR
STARTCHAR uni213A
ENCODING 8506
SWIDTH 907 0
DWIDTH 11 0
BBX 11 8 0 0
BITMAP
07F804
280608
6001B4
5000E0
500080
600140
280600
07F800
ENDCHAR
STARTCHAR uni213B
ENCODING 8507
SWIDTH 1216 0
DWIDTH 15 0
BBX 15 5 0 3
BITMAP
BF891E74
211A0A90
3E234280
207F85A0
B8E2FCB4
ENDCHAR
STARTCHAR uni213C
ENCODING 8508
SWIDTH 689 0
DWIDTH 8 0
BBX 8 6 0 0
BITMAP
BFFE
25A0
25A0
25A0
25A1
2D6D
ENDCHAR
STARTCHAR uni213D
ENCODING 8509
SWIDTH 552 0
DWIDTH 7 0
BBX 7 9 0 -3
BITMAP
6014
9820
2590
0980
0580
0280
0580
0980
0780
ENDCHAR
STARTCHAR uni213E
ENCODING 8510
SWIDTH 550 0
DWIDTH 7 0
BBX 6 8 1 0
BITMAP
FFD0
6000
6000
6000
6000
6000
6000
E000
ENDCHAR
STARTCHAR uni213F
ENCODING 8511
SWIDTH 714 0
DWIDTH 9 0
BBX 7 8 1 0
BITMAP
FFF8
6058
6058
6058
6058
6058
6058
E078
ENDCHAR
STARTCHAR uni2140
ENCODING 8512
SWIDTH 945 0
DWIDTH 11 0
BBX 11 13 0 -3
BITMAP
7FFFD0
214000
188000
092000
021400
014800
008500
014800
022400
092000
188000
214000
7FFFF8
ENDCHAR
STARTCHAR uni2141
ENCODING 8513
SWIDTH 711 0
DWIDTH 9 0
BBX 9 9 0 0
BITMAP
1FE400
742D00
700A00
700300
7C0340
000300
100600
341D00
0BE400
ENDCHAR
STARTCHAR uni2142
ENCODING 8514
SWIDTH 572 0
DWIDTH 7 0
BBX 6 8 0 0
BITMAP
BFF0
0030
0030
0030
0030
0030
0030
0030
ENDCHAR
STARTCHAR uni2143
ENCODING 8515
SWIDTH 572 0
DWIDTH 7 0
BBX 6 8 0 0
BITMAP
0030
0030
0030
0030
0030
0030
0030
BFF0
ENDCHAR
STARTCHAR uni2144
ENCODING 8516
SWIDTH 645 0
DWIDTH 8 0
BBX 7 8 0 0
BITMAP
0240
0240
0240
0240
06C0
0C60
2424
600C
ENDCHAR
STARTCHAR uni2145
ENCODING 8517
SWIDTH 717 0
DWIDTH 9 0
BBX 8 8 0 0
BITMAP
1FF8
160A
250A
2409
1809
5815
5428
BFA0
ENDCHAR
STARTCHAR uni2146
ENCODING 8518
SWIDTH 607 0
DWIDTH 7 0
BBX 8 9 0 0
BITMAP
001E
0025
0024
1F68
6898
9458
9494
61A0
2EF0
ENDCHAR
STARTCHAR uni2147
ENCODING 8519
SWIDTH 520 0
DWIDTH 6 0
BBX 6 6 0 0
BITMAP
1B80
28A0
9460
9FE0
6040
2F40
ENDCHAR
STARTCHAR uni2148
ENCODING 8520
SWIDTH 285 0
DWIDTH 3 0
BBX 4 9 0 0
BITMAP
1E
15
1D
2C
28
58
54
94
B0
ENDCHAR
STARTCHAR uni2149
ENCODING 8521
SWIDTH 284 0
DWIDTH 3 0
BBX 6 11 -2 -3
BITMAP
01E0
02D0
0000
03C0
0240
0540
0940
0900
0900
1900
B400
ENDCHAR
STARTCHAR uni214A
ENCODING 8522
SWIDTH 680 0
DWIDTH 8 0
BBX 8 9 0 0
BITMAP
0100
0600
7FE4
5609
5605
5609
07F4
0600
07F8
ENDCHAR
STARTCHAR uni214B
ENCODING 8523
SWIDTH 736 0
DWIDTH 9 0
BBX 9 8 0 0
BITMAP
2D6E00
478280
059240
183500
7D7800
018C00
014C00
00F400
ENDCHAR
STARTCHAR uni214C
ENCODING 8524
SWIDTH 794 0
DWIDTH 10 0
BBX 9 8 0 0
BITMAP
7C2F40
8A92C0
5BD1C0
2A5A40
07E500
094100
068000
078000
ENDCHAR
STARTCHAR uni214D
ENCODING 8525
SWIDTH 1010 0
DWIDTH 12 0
BBX 12 9 0 0
BITMAP
000010
090050
1A0080
224200
3F8579
A1D850
001404
002046
0080BD
ENDCHAR
STARTCHAR uni214E
ENCODING 8526
SWIDTH 473 0
DWIDTH 6 0
BBX 5 7 0 0
BITMAP
0140
0280
0280
3F80
0280
0280
7F80
ENDCHAR
STARTCHAR uni214F
ENCODING 8527
SWIDTH 1161 0
DWIDTH 14 0
BBX 14 6 0 0
BITMAP
0B0E1E00
15666200
14A56200
0D5A2600
0B0E1E00
BAFAFAE0
ENDCHAR
STARTCHAR onethird
ENCODING 8531
SWIDTH 899 0
DWIDTH 11 0
BBX 10 9 1 0
BITMAP
000800
901000
502000
508640
5144C0
A20080
050280
080090
140980
ENDCHAR
STARTCHAR twothirds
ENCODING 8532
SWIDTH 948 0
DWIDTH 11 0
BBX 11 9 0 0
BITMAP
000140
6A0200
030500
0508A0
152118
6A5014
008064
01400C
020194
ENDCHAR
STARTCHAR uni2155
ENCODING 8533
SWIDTH 867 0
DWIDTH 10 0
BBX 10 9 0 0
BITMAP
000200
640400
140800
142000
1452A0
288390
014020
020020
050650
ENDCHAR
STARTCHAR uni2156
ENCODING 8534
SWIDTH 916 0
DWIDTH 11 0
BBX 11 9 0 0
BITMAP
000140
2A0200
030500
090800
2521A4
AB51A0
008014
014014
020250
ENDCHAR
STARTCHAR uni2157
ENCODING 8535
SWIDTH 896 0
DWIDTH 11 0
BBX 11 9 0 0
BITMAP
000200
690500
050800
1A1400
0321A0
645290
008024
020010
050250
ENDCHAR
STARTCHAR uni2158
ENCODING 8536
SWIDTH 929 0
DWIDTH 11 0
BBX 11 9 0 0
BITMAP
000140
060200
1A0500
160800
6B50F4
0121A0
008018
014008
020290
ENDCHAR
STARTCHAR uni2159
ENCODING 8537
SWIDTH 871 0
DWIDTH 10 0
BBX 10 9 0 0
BITMAP
000200
640400
140800
142010
145240
148690
014930
020920
050250
ENDCHAR
STARTCHAR uni215A
ENCODING 8538
SWIDTH 871 0
DWIDTH 10 0
BBX 10 9 0 0
BITMAP
000200
390500
790800
022050
421200
548A90
014930
020920
050250
ENDCHAR
STARTCHAR oneeighth
ENCODING 8539
SWIDTH 887 0
DWIDTH 11 0
BBX 9 9 1 0
BITMAP
000800
901000
502000
508540
515480
A20940
050B80
081480
141980
ENDCHAR
STARTCHAR threeeighths
ENCODING 8540
SWIDTH 911 0
DWIDTH 11 0
BBX 11 9 0 0
BITMAP
000200
690500
050800
1A1550
032214
645260
0081E0
020224
050264
ENDCHAR
STARTCHAR fiveeighths
ENCODING 8541
SWIDTH 891 0
DWIDTH 11 0
BBX 11 9 0 0
BITMAP
000200
390500
790800
022150
021620
648250
0142E0
020524
050260
ENDCHAR
STARTCHAR seveneighths
ENCODING 8542
SWIDTH 847 0
DWIDTH 10 0
BBX 10 9 0 0
BITMAP
000400
AA0800
452000
085540
148850
114A80
0206C0
040860
080950
ENDCHAR
STARTCHAR uni2190
ENCODING 8592
SWIDTH 948 0
DWIDTH 11 0
BBX 10 5 1 1
BITMAP
040000
200000
BFFFD0
200000
040000
ENDCHAR
STARTCHAR uni2191
ENCODING 8593
SWIDTH 523 0
DWIDTH 6 0
BBX 4 10 1 -2
BITMAP
14
2D
99
18
18
18
18
18
18
18
ENDCHAR
STARTCHAR uni2192
ENCODING 8594
SWIDTH 948 0
DWIDTH 11 0
BBX 10 5 1 1
BITMAP
000400
000240
FFFFD0
000240
000400
ENDCHAR
STARTCHAR uni2193
ENCODING 8595
SWIDTH 523 0
DWIDTH 6 0
BBX 5 10 1 -2
BITMAP
1800
1800
1800
1800
1800
1800
1800
5940
2D00
1800
ENDCHAR
STARTCHAR uni2194
ENCODING 8596
SWIDTH 948 0
DWIDTH 11 0
BBX 11 5 0 1
BITMAP
010040
180050
7FFFF8
180050
010040
ENDCHAR
STARTCHAR uni2195
ENCODING 8597
SWIDTH 523 0
DWIDTH 6 0
BBX 5 12 1 -3
BITMAP
0400
1800
6A00
5840
1800
1800
1800
1800
1800
9940
2D00
1800
ENDCHAR
STARTCHAR uni2196
ENCODING 8598
SWIDTH 948 0
DWIDTH 11 0
BBX 10 11 1 -2
BITMAP
400000
FE0000
B00000
580000
460000
018000
00A000
002800
000900
000240
000090
ENDCHAR
STARTCHAR uni2197
ENCODING 8599
SWIDTH 948 0
DWIDTH 11 0
BBX 10 11 1 -2
BITMAP
000050
001FD0
0002C0
000640
001840
006000
018000
060000
180000
200000
900000
ENDCHAR
STARTCHAR uni2198
ENCODING 8600
SWIDTH 948 0
DWIDTH 11 0
BBX 10 11 1 -3
BITMAP
800000
600000
180000
060000
014000
005000
001400
000540
000280
001FD0
000050
ENDCHAR
STARTCHAR uni2199
ENCODING 8601
SWIDTH 948 0
DWIDTH 11 0
BBX 10 11 1 -3
BITMAP
000050
000180
000600
001800
002000
008000
420000
480000
A00000
FE0000
400000
ENDCHAR
STARTCHAR uni219A
ENCODING 8602
SWIDTH 948 0
DWIDTH 11 0
BBX 10 5 1 1
BITMAP
040500
200800
FABEA0
206000
048000
ENDCHAR
STARTCHAR uni219B
ENCODING 8603
SWIDTH 948 0
DWIDTH 11 0
BBX 11 5 0 1
BITMAP
002140
005090
6AEAF4
014090
020140
ENDCHAR
STARTCHAR uni219C
ENCODING 8604
SWIDTH 948 0
DWIDTH 11 0
BBX 10 4 1 1
BITMAP
E90000
B42F80
5BE090
500000
ENDCHAR
STARTCHAR uni219D
ENCODING 8605
SWIDTH 948 0
DWIDTH 11 0
BBX 10 4 1 1
BITMAP
0006D0
7E46C0
91B940
000040
ENDCHAR
STARTCHAR uni219E
ENCODING 8606
SWIDTH 948 0
DWIDTH 11 0
BBX 10 5 1 1
BITMAP
045000
218000
BFFFD0
218000
045000
ENDCHAR
STARTCHAR uni219F
ENCODING 8607
SWIDTH 523 0
DWIDTH 6 0
BBX 5 10 1 -2
BITMAP
1400
2D00
9940
1800
6900
5840
1800
1800
1800
1800
ENDCHAR
STARTCHAR uni21A0
ENCODING 8608
SWIDTH 948 0
DWIDTH 11 0
BBX 10 5 1 1
BITMAP
004400
006240
FFFFD0
006240
004400
ENDCHAR
STARTCHAR uni21A1
ENCODING 8609
SWIDTH 523 0
DWIDTH 6 0
BBX 5 10 1 -2
BITMAP
1800
1800
1800
1800
5840
6900
2800
9940
2D00
1800
ENDCHAR
STARTCHAR uni21A2
ENCODING 8610
SWIDTH 948 0
DWIDTH 11 0
BBX 10 5 1 1
BITMAP
040050
200140
BFFF40
200140
040050
ENDCHAR
STARTCHAR uni21A3
ENCODING 8611
SWIDTH 948 0
DWIDTH 11 0
BBX 10 5 1 1
BITMAP
400400
600240
3FFFD0
600240
400400
ENDCHAR
STARTCHAR uni21A4
ENCODING 8612
SWIDTH 948 0
DWIDTH 11 0
BBX 10 5 1 1
BITMAP
040020
200020
BFFFE0
200020
040010
ENDCHAR
STARTCHAR uni21A5
ENCODING 8613
SWIDTH 523 0
DWIDTH 6 0
BBX 6 10 0 -2
BITMAP
0600
0F40
2650
0600
0600
0600
0600
0600
0600
7FD0
ENDCHAR
STARTCHAR uni21A6
ENCODING 8614
SWIDTH 948 0
DWIDTH 11 0
BBX 10 5 1 1
BITMAP
400500
400240
FFFFD0
400240
400400
ENDCHAR
STARTCHAR uni21A7
ENCODING 8615
SWIDTH 523 0
DWIDTH 6 0
BBX 6 10 0 -2
BITMAP
7FD0
0600
0600
0600
0600
0600
0600
1610
1B40
0600
ENDCHAR
STARTCHAR uni21A8
ENCODING 8616
SWIDTH 523 0
DWIDTH 6 0
BBX 5 10 1 -2
BITMAP
1800
3D00
5940
1800
1800
1800
5940
6D00
1800
AA40
ENDCHAR
STARTCHAR uni21A9
ENCODING 8617
SWIDTH 948 0
DWIDTH 11 0
BBX 10 6 1 1
BITMAP
000B80
040090
140090
BFFF80
200000
040000
ENDCHAR
STARTCHAR uni21AA
ENCODING 8618
SWIDTH 948 0
DWIDTH 11 0
BBX 10 6 1 1
BITMAP
6C0000
800400
800200
6FFFD0
000240
000400
ENDCHAR
STARTCHAR uni21AB
ENCODING 8619
SWIDTH 948 0
DWIDTH 11 0
BBX 10 7 1 0
BITMAP
000B80
041890
142490
BFFF80
202400
042400
001000
ENDCHAR
STARTCHAR uni21AC
ENCODING 8620
SWIDTH 948 0
DWIDTH 11 0
BBX 10 7 1 0
BITMAP
680000
860400
820200
6FFFD0
020200
020400
010000
ENDCHAR
STARTCHAR uni21AD
ENCODING 8621
SWIDTH 1229 0
DWIDTH 15 0
BBX 13 6 1 0
BITMAP
04000400
141C0400
60260200
FE622F80
22C1D200
04000400
ENDCHAR
STARTCHAR uni21AE
ENCODING 8622
SWIDTH 948 0
DWIDTH 11 0
BBX 11 5 0 1
BITMAP
050840
181460
7EBEF8
182050
015040
ENDCHAR
STARTCHAR uni21AF
ENCODING 8623
SWIDTH 523 0
DWIDTH 6 0
BBX 5 10 1 -2
BITMAP
0240
0A00
1800
7000
BF40
0600
4C00
6400
E000
D400
ENDCHAR
STARTCHAR uni21B0
ENCODING 8624
SWIDTH 474 0
DWIDTH 6 0
BBX 6 11 0 -3
BITMAP
0100
1800
7FD0
1890
0590
0090
0090
0090
0090
0090
0040
ENDCHAR
STARTCHAR uni21B1
ENCODING 8625
SWIDTH 474 0
DWIDTH 6 0
BBX 5 11 0 -3
BITMAP
0400
0200
7FC0
9200
9400
9000
9000
9000
9000
9000
4000
ENDCHAR
STARTCHAR uni21B2
ENCODING 8626
SWIDTH 474 0
DWIDTH 6 0
BBX 5 10 0 -2
BITMAP
0080
0080
0080
0080
0080
0180
1880
7FC0
1800
0500
ENDCHAR
STARTCHAR uni21B3
ENCODING 8627
SWIDTH 474 0
DWIDTH 6 0
BBX 5 10 0 -2
BITMAP
9000
9000
9000
9000
9000
9400
9200
7FC0
0200
0400
ENDCHAR
STARTCHAR uni21B4
ENCODING 8628
SWIDTH 948 0
DWIDTH 11 0
BBX 9 10 1 -2
BITMAP
FFFD00
000600
000600
000600
000600
000600
000600
002640
000B40
000500
ENDCHAR
STARTCHAR uni21B5
ENCODING 8629
SWIDTH 948 0
DWIDTH 11 0
BBX 10 10 1 -2
BITMAP
000060
000060
000060
000060
000060
040060
200060
BFFFD0
200000
040000
ENDCHAR
STARTCHAR uni21B6
ENCODING 8630
SWIDTH 948 0
DWIDTH 11 0
BBX 10 7 1 0
BITMAP
01BD00
0A4680
180090
250020
A90010
340000
100000
ENDCHAR
STARTCHAR uni21B7
ENCODING 8631
SWIDTH 948 0
DWIDTH 11 0
BBX 11 7 0 0
BITMAP
06F800
190A00
200180
500484
0002E0
0000D0
000040
ENDCHAR
STARTCHAR uni21B8
ENCODING 8632
SWIDTH 948 0
DWIDTH 11 0
BBX 11 11 0 -2
BITMAP
7FFFF4
3F4000
380000
160000
118000
006000
001800
000600
000180
000060
000014
ENDCHAR
STARTCHAR uni21B9
ENCODING 8633
SWIDTH 948 0
DWIDTH 11 0
BBX 11 9 0 -1
BITMAP
100000
560000
6FFFF8
560000
510104
000188
7FFFE8
000188
000108
ENDCHAR
STARTCHAR uni21BA
ENCODING 8634
SWIDTH 997 0
DWIDTH 12 0
BBX 10 10 1 -1
BITMAP
000140
061E00
280A80
200480
500150
900060
500050
3000C0
1D0740
06F900
ENDCHAR
STARTCHAR uni21BB
ENCODING 8635
SWIDTH 997 0
DWIDTH 12 0
BBX 10 10 1 -1
BITMAP
140000
0B4900
2A0240
210080
540050
900060
500050
3000C0
1D0740
06F900
ENDCHAR
STARTCHAR uni21BC
ENCODING 8636
SWIDTH 978 0
DWIDTH 12 0
BBX 10 4 1 3
BITMAP
010000
080000
240000
BFFFF0
ENDCHAR
STARTCHAR uni21BD
ENCODING 8637
SWIDTH 978 0
DWIDTH 12 0
BBX 10 4 1 0
BITMAP
BFFFF0
240000
080000
010000
ENDCHAR
STARTCHAR uni21BE
ENCODING 8638
SWIDTH 523 0
DWIDTH 6 0
BBX 3 10 2 -2
BITMAP
50
70
64
60
60
60
60
60
60
60
ENDCHAR
STARTCHAR uni21BF
ENCODING 8639
SWIDTH 523 0
DWIDTH 6 0
BBX 3 10 1 -2
BITMAP
04
28
58
18
18
18
18
18
18
18
ENDCHAR
STARTCHAR uni21C0
ENCODING 8640
SWIDTH 978 0
DWIDTH 12 0
BBX 11 4 0 3
BITMAP
000100
000140
000090
7FFFF4
ENDCHAR
STARTCHAR uni21C1
ENCODING 8641
SWIDTH 978 0
DWIDTH 12 0
BBX 11 4 0 0
BITMAP
7FFFF8
000090
000140
000100
ENDCHAR
STARTCHAR uni21C2
ENCODING 8642
SWIDTH 523 0
DWIDTH 6 0
BBX 3 10 2 -2
BITMAP
60
60
60
60
60
60
60
64
70
50
ENDCHAR
STARTCHAR uni21C3
ENCODING 8643
SWIDTH 523 0
DWIDTH 6 0
BBX 3 10 1 -2
BITMAP
18
18
18
18
18
18
18
58
28
04
ENDCHAR
STARTCHAR uni21C4
ENCODING 8644
SWIDTH 948 0
DWIDTH 11 0
BBX 10 9 1 -1
BITMAP
000400
000240
FFFFD0
000240
040400
200000
BFFFD0
200000
040000
ENDCHAR
STARTCHAR uni21C5
ENCODING 8645
SWIDTH 791 0
DWIDTH 9 0
BBX 9 10 0 -2
BITMAP
080800
1E0800
598800
090800
090800
090800
090800
095940
091E00
090800
ENDCHAR
STARTCHAR uni21C6
ENCODING 8646
SWIDTH 948 0
DWIDTH 11 0
BBX 10 9 1 -1
BITMAP
040000
200000
BFFFD0
200000
040400
000240
FFFFD0
000240
000400
ENDCHAR
STARTCHAR uni21C7
ENCODING 8647
SWIDTH 948 0
DWIDTH 11 0
BBX 10 9 1 -1
BITMAP
040000
200000
BFFFD0
200000
080000
200000
BFFFD0
200000
040000
ENDCHAR
STARTCHAR uni21C8
ENCODING 8648
SWIDTH 791 0
DWIDTH 9 0
BBX 9 10 0 -2
BITMAP
080800
1E1E00
599940
090800
090800
090800
090800
090800
090800
090800
ENDCHAR
STARTCHAR uni21C9
ENCODING 8649
SWIDTH 948 0
DWIDTH 11 0
BBX 10 9 1 -1
BITMAP
000400
000240
FFFFD0
000240
000500
000240
FFFFD0
000240
000400
ENDCHAR
STARTCHAR uni21CA
ENCODING 8650
SWIDTH 791 0
DWIDTH 9 0
BBX 9 10 0 -2
BITMAP
090800
090800
090800
090800
090800
090800
090800
599940
1E1E00
080800
ENDCHAR
STARTCHAR uni21CB
ENCODING 8651
SWIDTH 948 0
DWIDTH 11 0
BBX 10 7 1 -1
BITMAP
040000
140000
7FFFD0
000000
FFFF80
000200
000400
ENDCHAR
STARTCHAR uni21CC
ENCODING 8652
SWIDTH 948 0
DWIDTH 11 0
BBX 10 7 1 -1
BITMAP
000400
000200
FFFF80
000000
7FFFD0
140000
040000
ENDCHAR
STARTCHAR uni21CD
ENCODING 8653
SWIDTH 948 0
DWIDTH 11 0
BBX 10 8 1 -1
BITMAP
004040
020080
090140
7FFFE0
D00500
2FFFE0
091400
016000
ENDCHAR
STARTCHAR uni21CE
ENCODING 8654
SWIDTH 948 0
DWIDTH 11 0
BBX 11 7 0 -1
BITMAP
014A00
061580
2FFFF0
602018
1FFFE0
062140
005100
ENDCHAR
STARTCHAR uni21CF
ENCODING 8655
SWIDTH 948 0
DWIDTH 11 0
BBX 11 8 0 -1
BITMAP
004400
008900
008340
7FFFD0
020034
7FFFD0
080200
100400
ENDCHAR
STARTCHAR uni21D0
ENCODING 8656
SWIDTH 887 0
DWIDTH 11 0
BBX 10 7 1 -1
BITMAP
014000
090000
2FFFE0
D00000
2FFFE0
090000
014000
ENDCHAR
STARTCHAR uni21D1
ENCODING 8657
SWIDTH 720 0
DWIDTH 9 0
BBX 7 10 1 -2
BITMAP
0200
0980
24D0
64D4
1484
1480
1480
1480
1480
1480
ENDCHAR
STARTCHAR uni21D2
ENCODING 8658
SWIDTH 887 0
DWIDTH 11 0
BBX 10 7 0 -1
BITMAP
001000
000900
FFFF80
0000A0
FFFF80
000900
001000
ENDCHAR
STARTCHAR uni21D3
ENCODING 8659
SWIDTH 720 0
DWIDTH 9 0
BBX 7 10 1 -2
BITMAP
1480
1480
1480
1480
1480
1484
A4D4
24D0
0880
0600
ENDCHAR
STARTCHAR uni21D4
ENCODING 8660
SWIDTH 948 0
DWIDTH 11 0
BBX 11 7 0 -1
BITMAP
000100
060180
1FFFE0
600018
1FFFE0
060140
000100
ENDCHAR
STARTCHAR uni21D5
ENCODING 8661
SWIDTH 720 0
DWIDTH 9 0
BBX 7 11 1 -2
BITMAP
0200
0980
24D0
A4D4
1484
1480
1480
9494
34E0
0880
0700
ENDCHAR
STARTCHAR uni21D6
ENCODING 8662
SWIDTH 948 0
DWIDTH 11 0
BBX 11 11 0 -2
BITMAP
650000
7BF400
218000
345000
3D2400
274900
11C240
007090
001C24
000604
000180
ENDCHAR
STARTCHAR uni21D7
ENCODING 8663
SWIDTH 948 0
DWIDTH 11 0
BBX 10 11 1 -2
BITMAP
000150
00FEA0
001850
006090
0182D0
020A50
082840
20A000
928000
0A0000
180000
ENDCHAR
STARTCHAR uni21D8
ENCODING 8664
SWIDTH 948 0
DWIDTH 11 0
BBX 10 10 1 -3
BITMAP
180000
460000
918000
246000
091840
018250
0060D0
001850
00FEA0
000550
ENDCHAR
STARTCHAR uni21D9
ENCODING 8665
SWIDTH 948 0
DWIDTH 11 0
BBX 11 10 0 -3
BITMAP
000180
000604
001824
006090
118600
251800
346000
218000
7BF400
650000
ENDCHAR
STARTCHAR uni21DA
ENCODING 8666
SWIDTH 872 0
DWIDTH 10 0
BBX 11 10 0 -2
BITMAP
004000
004000
02FFF4
040000
140000
7FFFF4
180000
03FFF4
004000
004000
ENDCHAR
STARTCHAR uni21DB
ENCODING 8667
SWIDTH 872 0
DWIDTH 10 0
BBX 10 10 0 -2
BITMAP
001000
000400
FFFC00
000200
000080
FFFFE0
000180
FFFE00
000400
001000
ENDCHAR
STARTCHAR uni21DC
ENCODING 8668
SWIDTH 948 0
DWIDTH 11 0
BBX 10 5 1 1
BITMAP
040000
202400
FE9AE0
218600
040000
ENDCHAR
STARTCHAR uni21DD
ENCODING 8669
SWIDTH 948 0
DWIDTH 11 0
BBX 11 5 0 1
BITMAP
000140
009050
7A67F4
061890
000140
ENDCHAR
STARTCHAR uni21DE
ENCODING 8670
SWIDTH 523 0
DWIDTH 6 0
BBX 6 10 0 -2
BITMAP
0600
0B40
1650
0600
0600
7FD0
7FD0
0600
0600
0600
ENDCHAR
STARTCHAR uni21DF
ENCODING 8671
SWIDTH 523 0
DWIDTH 6 0
BBX 6 10 0 -2
BITMAP
0600
0600
0600
7FD0
7FD0
0600
0600
2640
0B00
0100
ENDCHAR
STARTCHAR uni21E0
ENCODING 8672
SWIDTH 948 0
DWIDTH 11 0
BBX 10 5 1 1
BITMAP
040000
200000
FD9AA0
200000
040000
ENDCHAR
STARTCHAR uni21E1
ENCODING 8673
SWIDTH 523 0
DWIDTH 6 0
BBX 4 10 1 -2
BITMAP
04
2C
9A
14
00
18
00
18
00
18
ENDCHAR
STARTCHAR uni21E2
ENCODING 8674
SWIDTH 948 0
DWIDTH 11 0
BBX 11 5 0 1
BITMAP
000140
000050
7777F4
000090
000140
ENDCHAR
STARTCHAR uni21E3
ENCODING 8675
SWIDTH 523 0
DWIDTH 6 0
BBX 5 10 1 -2
BITMAP
1800
0000
1800
0000
1800
0000
1840
6A00
2C00
0400
ENDCHAR
STARTCHAR uni21E4
ENCODING 8676
SWIDTH 948 0
DWIDTH 11 0
BBX 11 5 0 1
BITMAP
514000
550000
6FFFF8
560000
514000
ENDCHAR
STARTCHAR uni21E5
ENCODING 8677
SWIDTH 948 0
DWIDTH 11 0
BBX 11 5 0 1
BITMAP
000108
000188
7FFFE8
000188
000108
ENDCHAR
STARTCHAR uni21E6
ENCODING 8678
SWIDTH 948 0
DWIDTH 11 0
BBX 10 8 1 -1
BITMAP
014000
064000
14FFE0
900020
900020
14FFE0
064000
014000
ENDCHAR
STARTCHAR uni21E7
ENCODING 8679
SWIDTH 720 0
DWIDTH 9 0
BBX 7 10 1 -2
BITMAP
0200
0940
1050
5020
F4B8
1480
1480
1480
1480
1FC0
ENDCHAR
STARTCHAR uni21E8
ENCODING 8680
SWIDTH 948 0
DWIDTH 11 0
BBX 11 8 0 -1
BITMAP
000800
000A00
7FF480
500024
500024
7FF480
000A00
000800
ENDCHAR
STARTCHAR uni21E9
ENCODING 8681
SWIDTH 720 0
DWIDTH 9 0
BBX 7 10 1 -2
BITMAP
1FC0
1480
1480
1480
1480
F4B8
5020
1050
0840
0600
ENDCHAR
STARTCHAR uni21EA
ENCODING 8682
SWIDTH 720 0
DWIDTH 9 0
BBX 7 11 1 -2
BITMAP
0200
0940
1050
5020
F4B8
1480
1480
1FC0
0000
1FC0
1FC0
ENDCHAR
STARTCHAR uni21F4
ENCODING 8692
SWIDTH 948 0
DWIDTH 11 0
BBX 10 6 1 0
BITMAP
000400
078500
085240
FFFFD0
0BD200
000400
ENDCHAR
STARTCHAR uni21F5
ENCODING 8693
SWIDTH 791 0
DWIDTH 9 0
BBX 9 10 0 -2
BITMAP
090800
091E00
095940
090800
090800
090800
090800
598800
1E0800
080800
ENDCHAR
STARTCHAR uni21F6
ENCODING 8694
SWIDTH 948 0
DWIDTH 11 0
BBX 11 12 0 -3
BITMAP
000100
000090
7FFFF4
000040
000040
7FFFF4
000090
000140
000090
7FFFF4
000090
000100
ENDCHAR
STARTCHAR uni21F7
ENCODING 8695
SWIDTH 948 0
DWIDTH 11 0
BBX 10 5 1 1
BITMAP
042000
202000
FFFFE0
202000
042000
ENDCHAR
STARTCHAR uni21F8
ENCODING 8696
SWIDTH 948 0
DWIDTH 11 0
BBX 11 5 0 1
BITMAP
004140
004090
7FFFF4
004090
004140
ENDCHAR
STARTCHAR uni21F9
ENCODING 8697
SWIDTH 948 0
DWIDTH 11 0
BBX 10 5 1 1
BITMAP
048100
208140
FFFFD0
208140
048100
ENDCHAR
STARTCHAR uni21FA
ENCODING 8698
SWIDTH 948 0
DWIDTH 11 0
BBX 10 5 1 1
BITMAP
045800
205800
FFFFE0
205800
045800
ENDCHAR
STARTCHAR uni21FB
ENCODING 8699
SWIDTH 948 0
DWIDTH 11 0
BBX 11 5 0 1
BITMAP
022140
022090
7FFFF4
022090
012140
ENDCHAR
STARTCHAR uni21FC
ENCODING 8700
SWIDTH 948 0
DWIDTH 11 0
BBX 11 5 0 1
BITMAP
055840
185860
7FFFF8
185850
015840
ENDCHAR
STARTCHAR uni21FD
ENCODING 8701
SWIDTH 948 0
DWIDTH 11 0
BBX 10 5 1 1
BITMAP
080000
2C0000
DBFFE0
2C0000
080000
ENDCHAR
STARTCHAR uni21FE
ENCODING 8702
SWIDTH 948 0
DWIDTH 11 0
BBX 11 5 0 1
BITMAP
000100
000290
7FFF34
000290
000100
ENDCHAR
STARTCHAR uni21FF
ENCODING 8703
SWIDTH 948 0
DWIDTH 11 0
BBX 11 5 0 1
BITMAP
010040
1A00A0
63FF58
1A00A0
050040
ENDCHAR
STARTCHAR uni2200
ENCODING 8704
SWIDTH 573 0
DWIDTH 7 0
BBX 7 8 0 0
BITMAP
8018
6024
3FF0
2460
1880
0D80
0B40
0300
ENDCHAR
STARTCHAR uni2201
ENCODING 8705
SWIDTH 474 0
DWIDTH 6 0
BBX 5 10 0 0
BITMAP
2F40
60C0
6080
6000
6000
6000
6000
6080
61C0
2F40
ENDCHAR
STARTCHAR partialdiff
ENCODING 8706
SWIDTH 478 0
DWIDTH 6 0
BBX 5 9 0 0
BITMAP
1F00
1180
0080
1E80
21C0
5080
5080
6180
1F00
ENDCHAR
STARTCHAR uni2203
ENCODING 8707
SWIDTH 573 0
DWIDTH 7 0
BBX 5 8 1 0
BITMAP
FFC0
0080
0080
FFC0
0080
0080
0080
FFC0
ENDCHAR
STARTCHAR uni2204
ENCODING 8708
SWIDTH 573 0
DWIDTH 7 0
BBX 5 12 1 -2
BITMAP
0100
0200
FFC0
0580
0880
FFC0
2480
2080
2080
FFC0
8000
4000
ENDCHAR
STARTCHAR uni2205
ENCODING 8709
SWIDTH 780 0
DWIDTH 9 0
BBX 9 8 0 -1
BITMAP
06F640
190A00
301540
605080
504180
210240
190A00
26F800
ENDCHAR
STARTCHAR uni2206
ENCODING 8710
SWIDTH 748 0
DWIDTH 9 0
BBX 7 9 1 0
BITMAP
0100
0300
0640
05C0
10D0
1060
5030
4028
FFFC
ENDCHAR
STARTCHAR uni2207
ENCODING 8711
SWIDTH 748 0
DWIDTH 9 0
BBX 7 9 1 -1
BITMAP
FFFC
A004
7014
2410
1810
0C40
0A40
0740
0200
ENDCHAR
STARTCHAR uni2208
ENCODING 8712
SWIDTH 720 0
DWIDTH 9 0
BBX 7 7 1 0
BITMAP
1BF8
6000
C000
FFF8
C000
6000
1FF8
ENDCHAR
STARTCHAR uni2209
ENCODING 8713
SWIDTH 720 0
DWIDTH 9 0
BBX 7 11 1 -2
BITMAP
0010
0020
1BF8
6080
C240
FFF8
C900
6800
2FF8
2000
4000
ENDCHAR
STARTCHAR uni220A
ENCODING 8714
SWIDTH 497 0
DWIDTH 6 0
BBX 5 5 0 0
BITMAP
1BC0
2000
7FC0
2000
1BC0
ENDCHAR
STARTCHAR uni220B
ENCODING 8715
SWIDTH 720 0
DWIDTH 9 0
BBX 7 7 1 0
BITMAP
FF90
0070
0018
FFF8
0018
0070
FF90
ENDCHAR
STARTCHAR uni220C
ENCODING 8716
SWIDTH 720 0
DWIDTH 9 0
BBX 7 11 1 -2
BITMAP
0010
0020
FFD0
00B0
0258
FFF8
0518
0870
FF90
2000
4000
ENDCHAR
STARTCHAR uni220D
ENCODING 8717
SWIDTH 497 0
DWIDTH 6 0
BBX 5 5 0 0
BITMAP
7E40
0080
7FC0
0080
7E00
ENDCHAR
STARTCHAR uni220E
ENCODING 8718
SWIDTH 558 0
DWIDTH 7 0
BBX 6 8 0 0
BITMAP
7FF0
7FF0
7FF0
7FF0
7FF0
7FF0
7FF0
7FF0
ENDCHAR
STARTCHAR uni220F
ENCODING 8719
SWIDTH 1135 0
DWIDTH 14 0
BBX 13 13 0 -3
BITMAP
7FFFFF80
0B001D00
07001C00
07001C00
07001C00
07001C00
07001C00
07001C00
07001C00
07001C00
07001C00
0B402D00
7FE0FF80
ENDCHAR
STARTCHAR uni2210
ENCODING 8720
SWIDTH 1135 0
DWIDTH 14 0
BBX 12 13 1 -3
BITMAP
AA42A9
2C00B0
1C0070
1C0070
1C0070
1C0070
1C0070
1C0070
1C0070
1C0070
1C0070
2C0070
AAAAA9
ENDCHAR
STARTCHAR uni2211
ENCODING 8721
SWIDTH 936 0
DWIDTH 11 0
BBX 9 13 1 -4
BITMAP
FFFF80
7401C0
2C0080
0B0000
038000
00D000
008000
024000
090000
180080
6001C0
FFFF80
555500
ENDCHAR
STARTCHAR uni2212
ENCODING 8722
SWIDTH 720 0
DWIDTH 9 0
BBX 8 1 0 3
BITMAP
7FFE
ENDCHAR
STARTCHAR uni2213
ENCODING 8723
SWIDTH 720 0
DWIDTH 9 0
BBX 8 8 0 -2
BITMAP
7FFE
0040
0080
0080
7FFE
0080
0080
0040
ENDCHAR
STARTCHAR uni2214
ENCODING 8724
SWIDTH 720 0
DWIDTH 9 0
BBX 8 10 0 0
BITMAP
0180
01C0
0000
0080
0080
0080
7FFE
0080
0080
0080
ENDCHAR
STARTCHAR uni2215
ENCODING 8725
SWIDTH 535 0
DWIDTH 6 0
BBX 6 12 0 -3
BITMAP
0010
0050
0080
0180
0240
0300
0600
0900
0800
1400
2000
6000
ENDCHAR
STARTCHAR uni2216
ENCODING 8726
SWIDTH 535 0
DWIDTH 6 0
BBX 6 12 0 -3
BITMAP
5000
2000
2400
1800
0C00
0900
0200
0200
0180
00C0
0090
0060
ENDCHAR
STARTCHAR uni2217
ENCODING 8727
SWIDTH 536 0
DWIDTH 6 0
BBX 5 6 1 0
BITMAP
0400
4840
9640
1900
D640
0800
ENDCHAR
STARTCHAR uni2218
ENCODING 8728
SWIDTH 436 0
DWIDTH 5 0
BBX 5 4 0 1
BITMAP
2E00
6180
6180
2E00
ENDCHAR
STARTCHAR uni2219
ENCODING 8729
SWIDTH 457 0
DWIDTH 5 0
BBX 3 3 1 2
BITMAP
78
BC
78
ENDCHAR
STARTCHAR uni221A
ENCODING 8730
SWIDTH 794 0
DWIDTH 10 0
BBX 10 15 0 -4
BITMAP
0000F0
000140
000200
000200
000200
000500
140800
6C0800
0D1800
0A1400
032000
026000
01D000
00D000
004000
ENDCHAR
STARTCHAR uni221B
ENCODING 8731
SWIDTH 794 0
DWIDTH 10 0
BBX 10 15 0 -4
BITMAP
2900F0
050140
1A0200
020200
690200
000500
140800
6C0800
0D1800
0A1400
032000
026000
01D000
00D000
004000
ENDCHAR
STARTCHAR uni221C
ENCODING 8732
SWIDTH 794 0
DWIDTH 10 0
BBX 10 15 0 -4
BITMAP
0A00F0
160140
160200
6B4200
060200
000500
140800
6C0800
0D1800
0A1400
032000
026000
01D000
00D000
004000
ENDCHAR
STARTCHAR uni221D
ENCODING 8733
SWIDTH 720 0
DWIDTH 9 0
BBX 8 5 0 0
BITMAP
1F47
21E8
5070
706C
2F47
ENDCHAR
STARTCHAR uni221E
ENCODING 8734
SWIDTH 953 0
DWIDTH 11 0
BBX 10 5 1 0
BITMAP
6E1B80
87A090
80E050
D1B490
7E1F40
ENDCHAR
STARTCHAR uni221F
ENCODING 8735
SWIDTH 720 0
DWIDTH 9 0
BBX 8 7 0 0
BITMAP
6000
6000
6000
6000
6000
6000
7FFE
ENDCHAR
STARTCHAR uni2220
ENCODING 8736
SWIDTH 720 0
DWIDTH 9 0
BBX 7 7 1 0
BITMAP
0014
0060
0180
0600
0800
2000
FFFC
ENDCHAR
STARTCHAR uni2221
ENCODING 8737
SWIDTH 720 0
DWIDTH 9 0
BBX 7 8 1 -1
BITMAP
0014
0060
0280
0680
1850
2020
FFFC
0020
ENDCHAR
STARTCHAR uni2222
ENCODING 8738
SWIDTH 720 0
DWIDTH 9 0
BBX 7 6 1 0
BITMAP
0068
06B0
7820
6920
01B4
0068
ENDCHAR
STARTCHAR uni2223
ENCODING 8739
SWIDTH 272 0
DWIDTH 3 0
BBX 1 11 1 -2
BITMAP
80
80
80
80
80
80
80
80
80
80
80
ENDCHAR
STARTCHAR uni2224
ENCODING 8740
SWIDTH 413 0
DWIDTH 5 0
BBX 5 11 0 -2
BITMAP
0800
0800
0800
0800
0940
1D00
6800
0800
0800
0800
0800
ENDCHAR
STARTCHAR uni2225
ENCODING 8741
SWIDTH 535 0
DWIDTH 6 0
BBX 4 11 1 -2
BITMAP
52
52
52
52
52
52
52
52
52
52
52
ENDCHAR
STARTCHAR uni2226
ENCODING 8742
SWIDTH 623 0
DWIDTH 7 0
BBX 7 11 0 -2
BITMAP
0850
0850
0850
0854
08B8
0E90
6C50
4850
0850
0850
0850
ENDCHAR
STARTCHAR uni2227
ENCODING 8743
SWIDTH 636 0
DWIDTH 8 0
BBX 7 7 0 0
BITMAP
0100
0380
0580
0860
1420
2018
6008
ENDCHAR
STARTCHAR uni2228
ENCODING 8744
SWIDTH 636 0
DWIDTH 8 0
BBX 7 7 0 0
BITMAP
6008
2018
1420
0860
0580
0380
0100
ENDCHAR
STARTCHAR uni2229
ENCODING 8745
SWIDTH 636 0
DWIDTH 8 0
BBX 7 7 0 0
BITMAP
0BE0
3428
600C
5008
5008
5008
5008
ENDCHAR
STARTCHAR uni222A
ENCODING 8746
SWIDTH 636 0
DWIDTH 8 0
BBX 7 7 0 0
BITMAP
5008
5008
5008
5008
600C
3428
0BE0
ENDCHAR
STARTCHAR uni222B
ENCODING 8747
SWIDTH 684 0
DWIDTH 8 0
BBX 8 12 0 -3
BITMAP
0015
0066
0090
00C0
01C0
0180
0280
0340
0300
0600
9900
6400
ENDCHAR
STARTCHAR uni222C
ENCODING 8748
SWIDTH 1016 0
DWIDTH 12 0
BBX 12 12 0 -3
BITMAP
001515
006666
009090
00C0C0
01C1C0
018280
028240
034340
030300
060600
999900
646400
ENDCHAR
STARTCHAR uni222D
ENCODING 8749
SWIDTH 1348 0
DWIDTH 16 0
BBX 16 12 0 -3
BITMAP
00151515
00666666
00909090
00C0C0C0
01C1C1C0
01828280
02824240
03434340
03030300
06060600
99999900
64646400
ENDCHAR
STARTCHAR uni222E
ENCODING 8750
SWIDTH 684 0
DWIDTH 8 0
BBX 8 12 0 -3
BITMAP
0015
0066
0090
05D0
15D4
2288
2288
1754
0790
0600
9900
6400
ENDCHAR
STARTCHAR uni222F
ENCODING 8751
SWIDTH 1016 0
DWIDTH 12 0
BBX 12 12 0 -3
BITMAP
001515
006666
009090
01E6C0
09C1E0
228288
228288
0B43A0
03BF40
060600
595900
646400
ENDCHAR
STARTCHAR uni2230
ENCODING 8752
SWIDTH 1348 0
DWIDTH 16 0
BBX 16 12 0 -3
BITMAP
00151515
00666666
00909090
00E5E6C0
06C1C1E4
22828288
22828288
1B434354
039B9B00
06060600
99999900
64646400
ENDCHAR
STARTCHAR uni2231
ENCODING 8753
SWIDTH 684 0
DWIDTH 8 0
BBX 8 12 0 -3
BITMAP
002E
0066
0090
00C0
02C0
0A94
1689
0340
0300
0600
9900
6400
ENDCHAR
STARTCHAR uni2232
ENCODING 8754
SWIDTH 684 0
DWIDTH 8 0
BBX 8 12 0 -3
BITMAP
001E
0026
0095
05D0
15D9
2198
2288
1754
0790
0600
9800
6400
ENDCHAR
STARTCHAR uni2233
ENCODING 8755
SWIDTH 684 0
DWIDTH 8 0
BBX 8 12 0 -3
BITMAP
0019
0026
0090
05D0
15D8
1198
2284
1754
0790
0600
9900
6400
ENDCHAR
STARTCHAR uni2234
ENCODING 8756
SWIDTH 635 0
DWIDTH 8 0
BBX 7 7 0 0
BITMAP
0240
0240
0000
0000
0000
6018
601C
ENDCHAR
STARTCHAR uni2235
ENCODING 8757
SWIDTH 635 0
DWIDTH 8 0
BBX 7 7 0 0
BITMAP
6018
601C
0000
0000
0000
0240
0240
ENDCHAR
STARTCHAR uni2236
ENCODING 8758
SWIDTH 523 0
DWIDTH 6 0
BBX 2 7 2 0
BITMAP
60
60
00
00
00
60
60
ENDCHAR
STARTCHAR uni2237
ENCODING 8759
SWIDTH 720 0
DWIDTH 9 0
BBX 7 7 1 0
BITMAP
9024
9024
0000
0000
0000
9024
9034
ENDCHAR
STARTCHAR uni2238
ENCODING 8760
SWIDTH 720 0
DWIDTH 9 0
BBX 8 4 0 3
BITMAP
0180
01C0
0000
7FFE
ENDCHAR
STARTCHAR uni2239
ENCODING 8761
SWIDTH 720 0
DWIDTH 9 0
BBX 8 7 0 0
BITMAP
0006
0006
0000
7FE0
0000
0006
0006
ENDCHAR
STARTCHAR uni223A
ENCODING 8762
SWIDTH 720 0
DWIDTH 9 0
BBX 8 7 0 0
BITMAP
2006
3006
0000
7FFE
0000
2006
3006
ENDCHAR
STARTCHAR uni223B
ENCODING 8763
SWIDTH 720 0
DWIDTH 9 0
BBX 8 7 0 0
BITMAP
0080
01C0
1E01
22D1
4078
0080
01C0
ENDCHAR
STARTCHAR uni223C
ENCODING 8764
SWIDTH 720 0
DWIDTH 9 0
BBX 7 3 1 2
BITMAP
0004
7D08
86F0
ENDCHAR
STARTCHAR uni223D
ENCODING 8765
SWIDTH 720 0
DWIDTH 9 0
BBX 7 2 1 2
BITMAP
86F4
7D08
ENDCHAR
STARTCHAR uni223E
ENCODING 8766
SWIDTH 720 0
DWIDTH 9 0
BBX 8 4 0 1
BITMAP
2D09
5241
5092
242D
ENDCHAR
STARTCHAR uni223F
ENCODING 8767
SWIDTH 720 0
DWIDTH 9 0
BBX 7 5 1 0
BITMAP
7800
8A00
4204
0358
01F0
ENDCHAR
STARTCHAR uni2240
ENCODING 8768
SWIDTH 293 0
DWIDTH 4 0
BBX 3 7 0 0
BITMAP
60
08
08
24
60
50
14
ENDCHAR
STARTCHAR uni2241
ENCODING 8769
SWIDTH 720 0
DWIDTH 9 0
BBX 7 5 1 1
BITMAP
0040
0144
7A08
85F0
0800
ENDCHAR
STARTCHAR uni2242
ENCODING 8770
SWIDTH 720 0
DWIDTH 9 0
BBX 8 5 0 1
BITMAP
7FFF
0000
0000
1F42
21BD
ENDCHAR
STARTCHAR uni2243
ENCODING 8771
SWIDTH 720 0
DWIDTH 9 0
BBX 8 5 0 1
BITMAP
1E01
21D1
5068
0000
7FFE
ENDCHAR
STARTCHAR uni2244
ENCODING 8772
SWIDTH 720 0
DWIDTH 9 0
BBX 8 7 0 0
BITMAP
0010
1E61
21D1
40A8
0140
7FFE
0500
ENDCHAR
STARTCHAR uni2245
ENCODING 8773
SWIDTH 720 0
DWIDTH 9 0
BBX 8 7 0 0
BITMAP
1E01
21D1
4068
0000
7FFE
0000
7FFE
ENDCHAR
STARTCHAR uni2246
ENCODING 8774
SWIDTH 720 0
DWIDTH 9 0
BBX 8 9 0 -1
BITMAP
1E01
21D1
4068
0000
0020
7FFE
0080
7FFE
0500
ENDCHAR
STARTCHAR uni2247
ENCODING 8775
SWIDTH 720 0
DWIDTH 9 0
BBX 8 11 0 -2
BITMAP
0004
0008
1E21
21E1
5078
0080
7FFE
0140
7FFE
0500
0800
ENDCHAR
STARTCHAR uni2248
ENCODING 8776
SWIDTH 720 0
DWIDTH 9 0
BBX 7 6 1 0
BITMAP
0004
7D08
85A0
0000
7D08
86F4
ENDCHAR
STARTCHAR uni2249
ENCODING 8777
SWIDTH 720 0
DWIDTH 9 0
BBX 8 8 0 -1
BITMAP
0010
1E21
21D1
40B8
1E41
22D1
4278
0500
ENDCHAR
STARTCHAR uni224A
ENCODING 8778
SWIDTH 720 0
DWIDTH 9 0
BBX 8 8 0 -1
BITMAP
0001
1E42
2068
0000
1E42
1068
0000
7FFE
ENDCHAR
STARTCHAR uni224B
ENCODING 8779
SWIDTH 720 0
DWIDTH 9 0
BBX 8 7 0 0
BITMAP
2F81
51BD
1E01
22D1
407C
2F81
51BD
ENDCHAR
STARTCHAR uni224C
ENCODING 8780
SWIDTH 720 0
DWIDTH 9 0
BBX 8 7 0 0
BITMAP
4068
21D1
1E01
0000
7FFE
0000
7FFE
ENDCHAR
STARTCHAR uni224D
ENCODING 8781
SWIDTH 720 0
DWIDTH 9 0
BBX 7 6 1 1
BITMAP
0004
9024
2F90
0000
2F90
9014
ENDCHAR
STARTCHAR uni224E
ENCODING 8782
SWIDTH 720 0
DWIDTH 9 0
BBX 8 5 0 0
BITMAP
02E0
7E2F
0000
7E2F
02E0
ENDCHAR
STARTCHAR uni224F
ENCODING 8783
SWIDTH 720 0
DWIDTH 9 0
BBX 8 4 0 1
BITMAP
02E0
7D2E
0000
7FFE
ENDCHAR
STARTCHAR uni2250
ENCODING 8784
SWIDTH 720 0
DWIDTH 9 0
BBX 8 6 0 1
BITMAP
01C0
0180
0000
7FFE
0000
7FFE
ENDCHAR
STARTCHAR uni2251
ENCODING 8785
SWIDTH 720 0
DWIDTH 9 0
BBX 8 9 0 -1
BITMAP
01C0
0180
0000
7FFE
0000
7FFE
0000
0180
01C0
ENDCHAR
STARTCHAR uni2252
ENCODING 8786
SWIDTH 720 0
DWIDTH 9 0
BBX 8 9 0 -1
BITMAP
3000
2000
0000
7FFE
0000
7FFE
0000
0006
0006
ENDCHAR
STARTCHAR uni2253
ENCODING 8787
SWIDTH 720 0
DWIDTH 9 0
BBX 8 9 0 -1
BITMAP
0006
0006
0000
7FFE
0000
7FFE
0000
2000
3000
ENDCHAR
STARTCHAR uni2254
ENCODING 8788
SWIDTH 844 0
DWIDTH 10 0
BBX 10 4 0 1
BITMAP
72FFD0
600000
600000
72FFD0
ENDCHAR
STARTCHAR uni2255
ENCODING 8789
SWIDTH 844 0
DWIDTH 10 0
BBX 10 4 0 1
BITMAP
7FF890
000090
000090
7FF890
ENDCHAR
STARTCHAR uni2256
ENCODING 8790
SWIDTH 720 0
DWIDTH 9 0
BBX 8 4 0 1
BITMAP
6BEA
0260
0260
6BEA
ENDCHAR
STARTCHAR uni2257
ENCODING 8791
SWIDTH 720 0
DWIDTH 9 0
BBX 8 8 0 1
BITMAP
02D0
0220
02D0
0000
0000
7FFE
0000
7FFE
ENDCHAR
STARTCHAR uni2258
ENCODING 8792
SWIDTH 720 0
DWIDTH 9 0
BBX 8 8 0 1
BITMAP
06E0
0818
1001
0000
0000
7FFE
0000
7FFE
ENDCHAR
STARTCHAR uni2259
ENCODING 8793
SWIDTH 720 0
DWIDTH 9 0
BBX 8 9 0 1
BITMAP
0080
0290
0620
0814
0404
0000
7FFE
0000
7FFE
ENDCHAR
STARTCHAR uni225A
ENCODING 8794
SWIDTH 720 0
DWIDTH 9 0
BBX 8 9 0 1
BITMAP
0818
0920
0260
01C0
0040
0000
7FFE
0000
7FFE
ENDCHAR
STARTCHAR uni225B
ENCODING 8795
SWIDTH 720 0
DWIDTH 9 0
BBX 8 8 0 1
BITMAP
0040
06E0
02D0
0110
0000
7FFE
0000
7FFE
ENDCHAR
STARTCHAR uni225C
ENCODING 8796
SWIDTH 720 0
DWIDTH 9 0
BBX 8 9 0 1
BITMAP
0040
01C0
0260
0524
0FF8
0000
7FFE
0000
7FFE
ENDCHAR
STARTCHAR uni225D
ENCODING 8797
SWIDTH 720 0
DWIDTH 9 0
BBX 9 9 0 1
BITMAP
080540
689F00
89F500
895500
79EE00
000000
7FFE00
000000
7FFE00
ENDCHAR
STARTCHAR uni225E
ENCODING 8798
SWIDTH 720 0
DWIDTH 9 0
BBX 8 8 0 1
BITMAP
0A64
0894
0894
0EE8
0000
7FFE
0000
7FFE
ENDCHAR
STARTCHAR uni225F
ENCODING 8799
SWIDTH 720 0
DWIDTH 9 0
BBX 8 9 0 1
BITMAP
02D0
0260
0080
0040
0080
0000
7FFE
0000
7FFE
ENDCHAR
STARTCHAR uni2260
ENCODING 8800
SWIDTH 720 0
DWIDTH 9 0
BBX 8 11 0 -3
BITMAP
0004
0014
0020
0020
7FFE
0080
7FFE
0200
0500
0800
0400
ENDCHAR
STARTCHAR uni2261
ENCODING 8801
SWIDTH 720 0
DWIDTH 9 0
BBX 8 6 0 0
BITMAP
7FFE
0000
0000
7FFE
0000
7FFE
ENDCHAR
STARTCHAR uni2262
ENCODING 8802
SWIDTH 720 0
DWIDTH 9 0
BBX 8 10 0 -2
BITMAP
0008
0020
7FFE
0050
0080
7FFE
0200
7FFE
0800
0800
ENDCHAR
STARTCHAR uni2263
ENCODING 8803
SWIDTH 720 0
DWIDTH 9 0
BBX 8 7 0 -1
BITMAP
7FFE
0000
7FFE
0000
7FFE
0000
7FFE
ENDCHAR
STARTCHAR uni2264
ENCODING 8804
SWIDTH 720 0
DWIDTH 9 0
BBX 7 9 1 -1
BITMAP
0018
01A0
1A00
B000
1900
0190
0018
0000
FFF8
ENDCHAR
STARTCHAR uni2265
ENCODING 8805
SWIDTH 720 0
DWIDTH 9 0
BBX 7 9 1 -1
BITMAP
8000
6800
0680
0074
0290
2900
9000
0000
FFF8
ENDCHAR
STARTCHAR uni2266
ENCODING 8806
SWIDTH 720 0
DWIDTH 9 0
BBX 7 11 1 -3
BITMAP
0018
0190
2900
B000
1A00
01A4
0004
0000
FFF8
0000
FFF8
ENDCHAR
STARTCHAR uni2267
ENCODING 8807
SWIDTH 720 0
DWIDTH 9 0
BBX 7 11 1 -3
BITMAP
9000
2900
0290
0074
0680
6400
4000
0000
FFF8
0000
FFF8
ENDCHAR
STARTCHAR uni2268
ENCODING 8808
SWIDTH 720 0
DWIDTH 9 0
BBX 7 12 1 -3
BITMAP
0018
0190
2900
B000
1A00
01A0
0004
0080
FFF8
0600
FFF8
1400
ENDCHAR
STARTCHAR uni2269
ENCODING 8809
SWIDTH 720 0
DWIDTH 9 0
BBX 7 12 1 -3
BITMAP
9000
2900
0290
0074
0680
6800
4000
0080
FFF8
0200
FFF8
1400
ENDCHAR
STARTCHAR uni226A
ENCODING 8810
SWIDTH 955 0
DWIDTH 11 0
BBX 11 7 0 0
BITMAP
000404
006868
068680
686800
292900
029290
001828
ENDCHAR
STARTCHAR uni226B
ENCODING 8811
SWIDTH 955 0
DWIDTH 11 0
BBX 11 7 0 0
BITMAP
404000
646400
068640
006868
00A4A4
0A4A40
64A400
ENDCHAR
STARTCHAR uni226C
ENCODING 8812
SWIDTH 477 0
DWIDTH 6 0
BBX 4 12 1 -3
BITMAP
41
28
24
68
95
86
85
99
28
24
18
41
ENDCHAR
STARTCHAR uni226D
ENCODING 8813
SWIDTH 720 0
DWIDTH 9 0
BBX 7 9 1 -1
BITMAP
0040
0084
9094
2F90
0200
1B90
9814
1404
1000
ENDCHAR
STARTCHAR uni226E
ENCODING 8814
SWIDTH 720 0
DWIDTH 9 0
BBX 7 10 1 -2
BITMAP
0020
0050
00A8
0680
6A00
6600
0A40
0864
1404
2000
ENDCHAR
STARTCHAR uni226F
ENCODING 8815
SWIDTH 720 0
DWIDTH 9 0
BBX 7 10 1 -2
BITMAP
0020
0080
A080
1A40
02A0
05A4
0A40
A400
2000
2000
ENDCHAR
STARTCHAR uni2270
ENCODING 8816
SWIDTH 720 0
DWIDTH 9 0
BBX 7 12 1 -3
BITMAP
0020
0054
00E4
0B80
B600
2A00
0690
0818
0800
FFF8
2000
1000
ENDCHAR
STARTCHAR uni2271
ENCODING 8817
SWIDTH 720 0
DWIDTH 9 0
BBX 7 11 1 -2
BITMAP
0050
4080
A480
0780
0274
0390
1D00
9800
1400
FFF8
2000
ENDCHAR
STARTCHAR uni2272
ENCODING 8818
SWIDTH 720 0
DWIDTH 9 0
BBX 7 10 1 -2
BITMAP
0018
0190
1900
B000
1A00
01A0
0014
0004
7D08
86F0
ENDCHAR
STARTCHAR uni2273
ENCODING 8819
SWIDTH 720 0
DWIDTH 9 0
BBX 7 10 1 -2
BITMAP
9000
2900
0290
0074
0680
6800
8000
0004
7D08
86F0
ENDCHAR
STARTCHAR uni2274
ENCODING 8820
SWIDTH 720 0
DWIDTH 9 0
BBX 7 12 1 -3
BITMAP
0080
00A8
0290
2A40
B200
1A00
06A0
0814
0804
7D08
96F0
2000
ENDCHAR
STARTCHAR uni2275
ENCODING 8821
SWIDTH 720 0
DWIDTH 9 0
BBX 7 12 1 -3
BITMAP
0080
9140
1A40
0290
0274
0780
6D00
8800
0804
7D08
A6F0
2000
ENDCHAR
STARTCHAR uni2276
ENCODING 8822
SWIDTH 720 0
DWIDTH 9 0
BBX 7 12 1 -3
BITMAP
0004
01A4
1A00
B400
0A40
4064
6404
0680
0074
0680
A400
4000
ENDCHAR
STARTCHAR uni2277
ENCODING 8823
SWIDTH 720 0
DWIDTH 9 0
BBX 7 12 1 -3
BITMAP
4000
6800
0690
0074
0640
A404
01A4
1A40
B400
1A40
00A4
0004
ENDCHAR
STARTCHAR uni2278
ENCODING 8824
SWIDTH 720 0
DWIDTH 9 0
BBX 8 13 0 -3
BITMAP
0010
0026
0078
1A90
2980
01E0
509A
1A80
01A4
021D
0290
2A00
0200
ENDCHAR
STARTCHAR uni2279
ENCODING 8825
SWIDTH 720 0
DWIDTH 9 0
BBX 8 13 0 -3
BITMAP
0010
6420
1A50
00A4
00A9
06D0
6882
00A9
0780
2E00
0690
021A
0201
ENDCHAR
STARTCHAR uni227A
ENCODING 8826
SWIDTH 720 0
DWIDTH 9 0
BBX 7 6 1 0
BITMAP
0018
01A0
AE00
6A40
00A0
0018
ENDCHAR
STARTCHAR uni227B
ENCODING 8827
SWIDTH 720 0
DWIDTH 9 0
BBX 7 6 1 0
BITMAP
8000
2900
06E4
0B94
6400
8000
ENDCHAR
STARTCHAR uni227C
ENCODING 8828
SWIDTH 720 0
DWIDTH 9 0
BBX 7 9 1 -2
BITMAP
0018
01A0
AE40
6E40
01A0
E918
1690
0064
0004
ENDCHAR
STARTCHAR uni227D
ENCODING 8829
SWIDTH 720 0
DWIDTH 9 0
BBX 7 9 1 -2
BITMAP
8000
6800
06A4
07A4
6800
81B8
1E40
A000
4000
ENDCHAR
STARTCHAR uni227E
ENCODING 8830
SWIDTH 720 0
DWIDTH 9 0
BBX 7 10 1 -2
BITMAP
0008
0064
1A80
FD00
0690
0024
0004
0004
7D08
86F0
ENDCHAR
STARTCHAR uni227F
ENCODING 8831
SWIDTH 720 0
DWIDTH 9 0
BBX 7 10 1 -2
BITMAP
4000
A000
1A50
02F8
2940
9000
4000
0004
7D08
86F0
ENDCHAR
STARTCHAR uni2280
ENCODING 8832
SWIDTH 720 0
DWIDTH 9 0
BBX 7 10 1 -2
BITMAP
0020
0020
0058
00E0
6B80
AF40
02A0
0518
0800
1400
ENDCHAR
STARTCHAR uni2281
ENCODING 8833
SWIDTH 720 0
DWIDTH 9 0
BBX 7 10 1 -2
BITMAP
0080
0080
8200
6600
0BA4
0AE4
6800
A000
2000
5000
ENDCHAR
STARTCHAR uni2282
ENCODING 8834
SWIDTH 720 0
DWIDTH 9 0
BBX 7 7 1 0
BITMAP
1FF8
6000
C000
C000
C000
6000
1FF8
ENDCHAR
STARTCHAR uni2283
ENCODING 8835
SWIDTH 720 0
DWIDTH 9 0
BBX 7 7 1 0
BITMAP
FF90
0070
0018
0018
0018
0070
FF90
ENDCHAR
STARTCHAR uni2284
ENCODING 8836
SWIDTH 720 0
DWIDTH 9 0
BBX 7 11 1 -2
BITMAP
0010
0050
1FF8
6080
C140
C200
C500
6800
2FF8
2000
1000
ENDCHAR
STARTCHAR uni2285
ENCODING 8837
SWIDTH 720 0
DWIDTH 9 0
BBX 7 11 1 -2
BITMAP
0010
0050
FFD0
01B0
0218
0218
0818
0870
FF90
2000
1000
ENDCHAR
STARTCHAR uni2286
ENCODING 8838
SWIDTH 720 0
DWIDTH 9 0
BBX 7 9 1 -1
BITMAP
1FF8
6000
C000
C000
C000
6000
1FF8
0000
FFF8
ENDCHAR
STARTCHAR uni2287
ENCODING 8839
SWIDTH 720 0
DWIDTH 9 0
BBX 7 9 1 -1
BITMAP
FF90
0070
0018
0018
0018
0070
FF90
0000
FFF8
ENDCHAR
STARTCHAR uni2288
ENCODING 8840
SWIDTH 720 0
DWIDTH 9 0
BBX 7 12 1 -3
BITMAP
0020
1FF8
6080
C140
C200
C200
6500
1FF8
0800
FFF8
2000
1000
ENDCHAR
STARTCHAR uni2289
ENCODING 8841
SWIDTH 720 0
DWIDTH 9 0
BBX 7 12 1 -3
BITMAP
0020
FFD0
00A0
0158
0218
0218
0570
FF90
0800
FFF8
2000
1000
ENDCHAR
STARTCHAR uni228A
ENCODING 8842
SWIDTH 720 0
DWIDTH 9 0
BBX 7 10 1 -3
BITMAP
1AA8
A000
C000
C000
8000
6000
0554
0240
AFA8
0800
ENDCHAR
STARTCHAR uni228B
ENCODING 8843
SWIDTH 720 0
DWIDTH 9 0
BBX 7 10 1 -3
BITMAP
AA90
0034
0018
0018
0014
0060
5540
0140
AFA8
0800
ENDCHAR
STARTCHAR uni228C
ENCODING 8844
SWIDTH 636 0
DWIDTH 8 0
BBX 7 7 0 0
BITMAP
5008
5048
5208
5BD8
610C
3428
0BE0
ENDCHAR
STARTCHAR uni228D
ENCODING 8845
SWIDTH 636 0
DWIDTH 8 0
BBX 7 7 0 0
BITMAP
5008
5008
5248
5248
600C
3428
0BE0
ENDCHAR
STARTCHAR uni228E
ENCODING 8846
SWIDTH 636 0
DWIDTH 8 0
BBX 7 7 0 0
BITMAP
5008
5248
5248
5FE8
624C
3428
0BE0
ENDCHAR
STARTCHAR uni228F
ENCODING 8847
SWIDTH 720 0
DWIDTH 9 0
BBX 7 7 1 0
BITMAP
FFF8
8000
8000
8000
8000
8000
FFF8
ENDCHAR
STARTCHAR uni2290
ENCODING 8848
SWIDTH 720 0
DWIDTH 9 0
BBX 7 7 1 0
BITMAP
FFF8
0008
0008
0008
0008
0008
FFF8
ENDCHAR
STARTCHAR uni2291
ENCODING 8849
SWIDTH 720 0
DWIDTH 9 0
BBX 7 9 1 -1
BITMAP
FFF8
8000
8000
8000
8000
8000
FFF8
0000
FFF8
ENDCHAR
STARTCHAR uni2292
ENCODING 8850
SWIDTH 720 0
DWIDTH 9 0
BBX 7 9 1 -1
BITMAP
FFF8
0008
0008
0008
0008
0008
FFF8
0000
FFF8
ENDCHAR
STARTCHAR uni2293
ENCODING 8851
SWIDTH 635 0
DWIDTH 8 0
BBX 7 7 0 0
BITMAP
7FFC
5008
5008
5008
5008
5008
5008
ENDCHAR
STARTCHAR uni2294
ENCODING 8852
SWIDTH 635 0
DWIDTH 8 0
BBX 7 7 0 0
BITMAP
5008
5008
5008
5008
5008
5008
7FFC
ENDCHAR
STARTCHAR uni2295
ENCODING 8853
SWIDTH 862 0
DWIDTH 10 0
BBX 10 9 0 -1
BITMAP
06F900
196280
306090
606060
7FFFE0
606060
206090
196240
02B900
ENDCHAR
STARTCHAR uni2296
ENCODING 8854
SWIDTH 862 0
DWIDTH 10 0
BBX 10 9 0 -2
BITMAP
02F900
1D0680
200090
600060
7FFFE0
600060
200090
1D0680
02F900
ENDCHAR
STARTCHAR uni2297
ENCODING 8855
SWIDTH 862 0
DWIDTH 10 0
BBX 10 9 0 -2
BITMAP
02F900
1D0780
390690
625860
50B020
619860
3A0690
1D0780
02F900
ENDCHAR
STARTCHAR uni2298
ENCODING 8856
SWIDTH 862 0
DWIDTH 10 0
BBX 10 9 0 -2
BITMAP
02F900
1D0780
340690
601860
505020
614060
2500D0
1D0680
02F900
ENDCHAR
STARTCHAR uni2299
ENCODING 8857
SWIDTH 862 0
DWIDTH 10 0
BBX 10 9 0 -2
BITMAP
02F900
1D0680
340090
606060
50A020
600060
340090
1D0680
02F900
ENDCHAR
STARTCHAR uni229A
ENCODING 8858
SWIDTH 862 0
DWIDTH 10 0
BBX 10 9 0 -2
BITMAP
02F900
1D0680
340090
60B460
519820
60B460
340090
1D0680
02F900
ENDCHAR
STARTCHAR uni229B
ENCODING 8859
SWIDTH 862 0
DWIDTH 10 0
BBX 10 9 0 -2
BITMAP
02F900
1D0680
346090
635960
50A420
635960
346090
1D0680
02F900
ENDCHAR
STARTCHAR uni229C
ENCODING 8860
SWIDTH 862 0
DWIDTH 10 0
BBX 10 9 0 -2
BITMAP
02F900
1D0680
340090
67FE60
500020
67FE60
340090
1D0680
02F900
ENDCHAR
STARTCHAR uni229D
ENCODING 8861
SWIDTH 862 0
DWIDTH 10 0
BBX 10 9 0 -2
BITMAP
02F900
1D0680
340090
600060
57FE20
600060
340090
1D0680
02F900
ENDCHAR
STARTCHAR uni229E
ENCODING 8862
SWIDTH 932 0
DWIDTH 11 0
BBX 11 10 0 -2
BITMAP
7FFFF8
502018
502018
502018
7FFFF8
502018
502018
502018
502018
7FFFF8
ENDCHAR
STARTCHAR uni229F
ENCODING 8863
SWIDTH 932 0
DWIDTH 11 0
BBX 11 10 0 -2
BITMAP
7FFFF8
500018
500018
500018
7FFFF8
500018
500018
500018
500018
7FFFF8
ENDCHAR
STARTCHAR uni22A0
ENCODING 8864
SWIDTH 932 0
DWIDTH 11 0
BBX 11 10 0 -2
BITMAP
7FFFF8
740068
590198
524618
506818
506418
518618
550198
640068
7FFFF8
ENDCHAR
STARTCHAR uni22A1
ENCODING 8865
SWIDTH 932 0
DWIDTH 11 0
BBX 11 10 0 -2
BITMAP
7FFFF8
500018
500018
500018
503418
502018
500018
500018
500018
7FFFF8
ENDCHAR
STARTCHAR uni22A2
ENCODING 8866
SWIDTH 720 0
DWIDTH 9 0
BBX 7 9 1 0
BITMAP
4000
8000
8000
8000
FFF8
8000
8000
8000
4000
ENDCHAR
STARTCHAR uni22A3
ENCODING 8867
SWIDTH 720 0
DWIDTH 9 0
BBX 7 9 1 0
BITMAP
0004
0008
0008
0008
FFF8
0008
0008
0008
0004
ENDCHAR
STARTCHAR uni22A4
ENCODING 8868
SWIDTH 720 0
DWIDTH 9 0
BBX 8 9 0 -1
BITMAP
7FFE
0080
0080
0080
0080
0080
0080
0080
0040
ENDCHAR
STARTCHAR uni22A5
ENCODING 8869
SWIDTH 720 0
DWIDTH 9 0
BBX 8 8 0 0
BITMAP
0080
0080
0080
0080
0080
0080
0080
7FFE
ENDCHAR
STARTCHAR uni22A6
ENCODING 8870
SWIDTH 509 0
DWIDTH 6 0
BBX 6 9 0 0
BITMAP
1000
6000
6000
6000
7FD0
6000
6000
6000
1000
ENDCHAR
STARTCHAR uni22A7
ENCODING 8871
SWIDTH 510 0
DWIDTH 6 0
BBX 6 9 0 -1
BITMAP
1000
6000
6000
7FD0
6000
7FD0
6000
6000
1000
ENDCHAR
STARTCHAR uni22A8
ENCODING 8872
SWIDTH 720 0
DWIDTH 9 0
BBX 7 9 1 -1
BITMAP
4000
8000
8000
FFF8
8000
FFF8
8000
8000
4000
ENDCHAR
STARTCHAR uni22A9
ENCODING 8873
SWIDTH 880 0
DWIDTH 11 0
BBX 10 9 0 0
BITMAP
110000
620000
620000
620000
63FFF0
620000
620000
620000
110000
ENDCHAR
STARTCHAR uni22AA
ENCODING 8874
SWIDTH 880 0
DWIDTH 11 0
BBX 10 9 0 0
BITMAP
511000
522400
522400
522400
522FF0
522400
522400
522400
411000
ENDCHAR
STARTCHAR uni22AB
ENCODING 8875
SWIDTH 880 0
DWIDTH 11 0
BBX 10 9 0 -1
BITMAP
110000
620000
620000
63FFF0
620000
63FFF0
620000
620000
110000
ENDCHAR
STARTCHAR uni22AC
ENCODING 8876
SWIDTH 805 0
DWIDTH 10 0
BBX 9 9 0 0
BITMAP
040040
080200
080800
082000
0FFF80
0E0000
0C0000
280000
440000
ENDCHAR
STARTCHAR uni22AD
ENCODING 8877
SWIDTH 805 0
DWIDTH 10 0
BBX 9 9 0 -1
BITMAP
040040
080200
080800
0FFF80
088000
0FFF80
0C0000
280000
440000
ENDCHAR
STARTCHAR uni22AE
ENCODING 8878
SWIDTH 991 0
DWIDTH 12 0
BBX 12 9 0 0
BITMAP
044004
089020
089180
089900
08BFFD
089000
0E9000
289000
444000
ENDCHAR
STARTCHAR uni22AF
ENCODING 8879
SWIDTH 991 0
DWIDTH 12 0
BBX 12 9 0 -1
BITMAP
044004
089024
089180
08BFFD
08A400
09FFFD
0D9000
289000
444000
ENDCHAR
STARTCHAR uni22B0
ENCODING 8880
SWIDTH 720 0
DWIDTH 9 0
BBX 7 8 1 -1
BITMAP
0074
0048
0024
6A90
6A90
0024
0048
0074
ENDCHAR
STARTCHAR uni22B1
ENCODING 8881
SWIDTH 720 0
DWIDTH 9 0
BBX 7 8 1 -1
BITMAP
B000
9000
9000
1A94
1AA4
9000
9000
B000
ENDCHAR
STARTCHAR uni22B2
ENCODING 8882
SWIDTH 720 0
DWIDTH 9 0
BBX 7 7 1 0
BITMAP
0004
006C
0688
B408
6908
0698
002C
ENDCHAR
STARTCHAR uni22B3
ENCODING 8883
SWIDTH 720 0
DWIDTH 9 0
BBX 8 7 0 0
BITMAP
4000
7900
5690
5029
5068
5680
7400
ENDCHAR
STARTCHAR uni22B4
ENCODING 8884
SWIDTH 720 0
DWIDTH 9 0
BBX 8 9 0 -1
BITMAP
0002
006B
0692
2D02
0682
006B
0006
0000
7FFF
ENDCHAR
STARTCHAR uni22B5
ENCODING 8885
SWIDTH 720 0
DWIDTH 9 0
BBX 8 9 0 -1
BITMAP
5000
6900
51A0
501D
51A4
6A40
6000
0000
7FFE
ENDCHAR
STARTCHAR uni22B6
ENCODING 8886
SWIDTH 1172 0
DWIDTH 14 0
BBX 14 4 0 1
BITMAP
2D000780
52000FD0
52FFFFD0
2E000B80
ENDCHAR
STARTCHAR uni22B7
ENCODING 8887
SWIDTH 1172 0
DWIDTH 14 0
BBX 14 4 0 1
BITMAP
2D000780
7F000850
7FFFF850
2E000B80
ENDCHAR
STARTCHAR uni22B8
ENCODING 8888
SWIDTH 869 0
DWIDTH 10 0
BBX 10 4 0 1
BITMAP
0003D0
000820
7FFC20
0007D0
ENDCHAR
STARTCHAR uni22B9
ENCODING 8889
SWIDTH 720 0
DWIDTH 9 0
BBX 8 7 0 0
BITMAP
0080
0080
0080
7D2E
0080
0080
0080
ENDCHAR
STARTCHAR uni22BA
ENCODING 8890
SWIDTH 491 0
DWIDTH 6 0
BBX 4 9 1 -3
BITMAP
FF
24
24
24
24
24
24
24
14
ENDCHAR
STARTCHAR uni22BB
ENCODING 8891
SWIDTH 635 0
DWIDTH 8 0
BBX 7 9 0 -2
BITMAP
5004
2008
2424
0820
0990
0680
0240
0000
7FFC
ENDCHAR
STARTCHAR uni22BC
ENCODING 8892
SWIDTH 635 0
DWIDTH 8 0
BBX 7 9 0 -1
BITMAP
7FFC
0100
0240
0680
0850
1820
2014
6008
4004
ENDCHAR
STARTCHAR uni22BD
ENCODING 8893
SWIDTH 635 0
DWIDTH 8 0
BBX 7 8 0 0
BITMAP
7FFC
4004
2008
2424
0820
0990
0680
0240
ENDCHAR
STARTCHAR uni22BE
ENCODING 8894
SWIDTH 720 0
DWIDTH 9 0
BBX 8 7 0 0
BITMAP
6000
6000
7900
6240
6090
6060
7FFE
ENDCHAR
STARTCHAR uni22BF
ENCODING 8895
SWIDTH 933 0
DWIDTH 11 0
BBX 10 10 1 -2
BITMAP
000020
0000E0
000260
000860
002060
008060
020060
080060
200060
BFFFE0
ENDCHAR
STARTCHAR uni22C0
ENCODING 8896
SWIDTH 946 0
DWIDTH 11 0
BBX 10 13 1 -3
BITMAP
004000
00D000
01E000
027000
072800
090C00
0C0900
180600
240300
300240
600180
900080
800060
ENDCHAR
STARTCHAR uni22C1
ENCODING 8897
SWIDTH 946 0
DWIDTH 11 0
BBX 10 13 1 -3
BITMAP
400050
C00090
9000C0
600180
300240
140200
0C0900
090C00
061800
032400
027000
01E000
00D000
ENDCHAR
STARTCHAR uni22C2
ENCODING 8898
SWIDTH 946 0
DWIDTH 11 0
BBX 10 13 1 -3
BITMAP
06F800
290700
600180
800080
C00090
C00090
C00090
C00090
C00090
C00090
C00090
C00090
800090
ENDCHAR
ENDFONT
